SplineFontDB: 3.0
FontName: Pelagiad
FullName: Pelagiad
FamilyName: Pelagiad
Weight: Regular
Copyright: Copyright Isak Larborn. Licensed under the SIL Open Font License.
UComments: "2015-2-24: Created with FontForge (http://fontforge.org)"
Version: 20160331
ItalicAngle: 0
UnderlinePosition: -50
UnderlineWidth: 25
Ascent: 849
Descent: 175
InvalidEm: 0
LayerCount: 2
Layer: 0 1 "Back" 1
Layer: 1 1 "Fore" 0
XUID: [1021 550 254111602 2708]
FSType: 0
OS2Version: 0
OS2_WeightWidthSlopeOnly: 0
OS2_UseTypoMetrics: 1
CreationTime: 1424795239
ModificationTime: 1501783913
PfmFamily: 17
TTFWeight: 400
TTFWidth: 5
LineGap: 92
VLineGap: 0
OS2TypoAscent: 849
OS2TypoAOffset: 0
OS2TypoDescent: -175
OS2TypoDOffset: 0
OS2TypoLinegap: 92
OS2WinAscent: 849
OS2WinAOffset: 0
OS2WinDescent: 175
OS2WinDOffset: 0
HheadAscent: 849
HheadAOffset: 0
HheadDescent: -175
HheadDOffset: 0
OS2CapHeight: 0
OS2XHeight: 0
OS2Vendor: 'PfEd'
Lookup: 258 0 0 "'kern' Horizontal Kerning in Latin lookup 0" { "'kern' Horizontal Kerning in Latin lookup 0-1" [153,15,0] "'kern' Horizontal Kerning in Latin lookup 0-2" [153,15,0] "'kern' Horizontal Kerning in Latin lookup 0-4" [153,15,0] "'kern' Horizontal Kerning in Latin lookup 0-5" [153,15,0] "'kern' Horizontal Kerning in Latin lookup 0-6" [153,15,0] "'kern' Horizontal Kerning in Latin lookup 0-8" [153,15,0] } ['kern' ('DFLT' <'dflt' > 'latn' <'dflt' > ) ]
MarkAttachClasses: 1
DEI: 91125
KernClass2: 1+ 2 "'kern' Horizontal Kerning in Latin lookup 0-8"
 5 V W Y
 330 a c d e g i j m n o p q r s t u v w x y z aacute acircumflex atilde adieresis aring ae ccedilla eacute ecircumflex edieresis iacute icircumflex idieresis ntilde oacute ocircumflex otilde odieresis oslash uacute ucircumflex udieresis yacute ydieresis aogonek cacute dcaron eogonek dotlessi nacute oe sacute tcaron zacute zdotaccent
 0 {} -28 {}
KernClass2: 1+ 2 "'kern' Horizontal Kerning in Latin lookup 0-6"

StartChar: o
Encoding: 111 111 0
Width: 450
VWidth: -3
Flags: W
HStem: -11 69<221.19 319.092> 324 69<133.948 245.324>
VStem: 30 93<174.285 301.937> 326 94<94.0215 249>
LayerCount: 2
Back
Fore
SplineSet
326 122 m 0,0,1
 326 191 326 191 282.5 257.5 c 128,-1,2
 239 324 239 324 194.5 324 c 128,-1,3
 150 324 150 324 136.5 312 c 128,-1,4
 123 300 123 300 123 262 c 0,5,6
 123 190 123 190 178 124 c 128,-1,7
 233 58 233 58 271 58 c 128,-1,8
 309 58 309 58 317.5 69 c 128,-1,9
 326 80 326 80 326 122 c 0,0,1
378 55 m 128,-1,11
 336 -11 336 -11 250 -11 c 135,-1,12
 164 -11 164 -11 97 51.5 c 128,-1,13
 30 114 30 114 30 188 c 0,14,15
 30 295 30 295 83 344 c 128,-1,16
 136 393 136 393 232 393 c 0,17,18
 302 393 302 393 361 333.5 c 128,-1,19
 420 274 420 274 420 224 c 0,20,10
 420 121 420 121 378 55 c 128,-1,11
EndSplineSet
Validated: 1
EndChar

StartChar: n
Encoding: 110 110 1
Width: 531
VWidth: -3
Flags: W
HStem: -14 21G<99 124 351 351.5> 321 78<236.232 351.5> 331 69<48.3159 73.3354>
VStem: 99 100<30.9569 304.281> 362 89<74.3832 282.524>
LayerCount: 2
Back
Fore
SplineSet
15 344.5 m 128,-1,1
 15 358 15 358 50.5 379 c 128,-1,2
 86 400 86 400 102.5 400 c 128,-1,3
 119 400 119 400 149.5 385.5 c 128,-1,4
 180 371 180 371 194 343 c 1,5,6
 225 373 225 373 253 386 c 128,-1,7
 281 399 281 399 328 399 c 128,-1,8
 375 399 375 399 405 367.5 c 128,-1,9
 435 336 435 336 443 301 c 128,-1,10
 451 266 451 266 451 192 c 128,-1,11
 451 118 451 118 436 73 c 1,12,13
 484 101 484 101 496 101 c 0,14,15
 516 101 516 101 516 69 c 0,16,17
 516 55 516 55 439.5 20.5 c 128,-1,18
 363 -14 363 -14 340 -14 c 1,19,20
 362 70 362 70 362 160.5 c 131,-1,21
 362 251 362 251 337.5 286 c 128,-1,22
 313 321 313 321 259 321 c 0,23,24
 240 321 240 321 199 290 c 1,25,-1
 199 103 l 1,26,27
 197 66 197 66 173 24.5 c 128,-1,28
 149 -17 149 -17 99 -17 c 1,29,-1
 99 153 l 2,30,31
 99 272 99 272 79 301 c 0,32,33
 59 331 59 331 37 331 c 128,-1,0
 15 331 15 331 15 344.5 c 128,-1,1
EndSplineSet
Validated: 1
EndChar

StartChar: c
Encoding: 99 99 2
Width: 414
VWidth: -3
Flags: W
HStem: -19 67<194.676 309.425> 316 73<160.558 274.363>
VStem: 30 102<109.638 284.232>
LayerCount: 2
Back
Fore
SplineSet
384 97 m 1,0,1
 354 37 354 37 335 21 c 0,2,3
 287 -19 287 -19 216 -19 c 0,4,5
 131 -19 131 -19 80.5 44.5 c 128,-1,6
 30 108 30 108 30 198.5 c 128,-1,7
 30 289 30 289 83 339 c 128,-1,8
 136 389 136 389 231 389 c 0,9,10
 295 389 295 389 334.5 368.5 c 128,-1,11
 374 348 374 348 374 323 c 0,12,13
 374 296 374 296 345 277 c 0,14,15
 336 271 336 271 316 259 c 1,16,17
 292 280 292 280 280 290 c 0,18,19
 248 316 248 316 198 316 c 3,20,21
 172 316 172 316 152 281 c 0,22,23
 132 245 132 245 132 189 c 3,24,25
 132 128 132 128 172 88 c 0,26,27
 214 48 214 48 273 48 c 0,28,29
 303 48 303 48 322.5 78.5 c 128,-1,30
 342 109 342 109 355 109 c 0,31,32
 374 109 374 109 384 97 c 1,0,1
EndSplineSet
Validated: 1
EndChar

StartChar: E
Encoding: 69 69 3
Width: 674
VWidth: -12
Flags: W
HStem: -26 108<285.973 459.963> 261 104<167 274.946> 285 105<415.207 519 554 568> 566 90<207.872 354.34>
VStem: 40 117<365 460.071> 568 66<167.755 285> 586 37<-69 57.4231>
LayerCount: 2
Back
Fore
SplineSet
414 82 m 0,0,1
 512 82 512 82 569 119 c 1,2,-1
 568 285 l 1,3,4
 185 262 185 262 167 261 c 1,5,6
 174 195 174 195 228 142 c 0,7,8
 288 82 288 82 414 82 c 0,0,1
180 500 m 0,9,10
 161 447 161 447 157 365 c 1,11,-1
 519 387 l 1,12,13
 470 455 470 455 404 510.5 c 128,-1,14
 338 566 338 566 271 566 c 128,-1,15
 204 566 204 566 180 500 c 0,9,10
579 64 m 1,16,17
 527 30 527 30 500 15 c 0,18,19
 426 -26 426 -26 335 -26 c 0,20,21
 235 -26 235 -26 167 24 c 0,22,23
 40 118 40 118 40 329 c 0,24,25
 40 497 40 497 166 605 c 0,26,27
 226 656 226 656 291 656 c 128,-1,28
 356 656 356 656 422.5 628 c 128,-1,29
 489 600 489 600 535 552 c 1,30,31
 540 566 540 566 547.5 598 c 128,-1,32
 555 630 555 630 562.5 642.5 c 128,-1,33
 570 655 570 655 584 655 c 0,34,35
 601 655 601 655 601 629 c 128,-1,36
 601 603 601 603 580.5 516.5 c 128,-1,37
 560 430 560 430 554 390 c 1,38,-1
 634 398 l 1,39,40
 623 262 623 262 623 -69 c 1,41,42
 620 -72 620 -72 616 -76 c 0,43,44
 604 -89 604 -89 586 -91 c 1,45,46
 585 -47 585 -47 579 64 c 1,16,17
EndSplineSet
Validated: 1
EndChar

StartChar: I
Encoding: 73 73 4
Width: 423
VWidth: -15
Flags: W
HStem: -9 20G<20 40 349.5 402.5> -2 55<39.5947 141.27 236.483 288.933> 567 51<235.342 290> 572 57<40.626 139.693 345 366.82>
VStem: 142 94<60.668 562.85> 291 54<56 567>
LayerCount: 2
Back
Fore
SplineSet
142 79 m 2,0,-1
 142 542 l 2,1,2
 142 567 142 567 84 572 c 0,3,4
 60 574 60 574 40 586 c 128,-1,5
 20 598 20 598 20 629 c 1,6,7
 75 629 75 629 124 618 c 0,8,9
 164 609 164 609 190.5 609 c 128,-1,10
 217 609 217 609 291 618 c 1,11,12
 294 654 294 654 311 654 c 128,-1,13
 328 654 328 654 338 625 c 1,14,15
 380 629 380 629 401 629 c 1,16,17
 401 581 401 581 345 569 c 1,18,-1
 345 50 l 1,19,20
 383 39 383 39 394 25 c 4,21,22
 402 15 402 15 403 -10 c 1,23,24
 296 5 296 5 233 5 c 128,-1,25
 170 5 170 5 115 -2 c 128,-1,26
 60 -9 60 -9 20 -9 c 1,27,28
 20 23 20 23 39 37 c 128,-1,29
 58 51 58 51 81 53 c 0,30,31
 142 60 142 60 142 79 c 2,0,-1
235 542 m 2,32,-1
 236 79 l 6,33,34
 236 57 236 57 291 56 c 1,35,-1
 290 567 l 1,36,37
 235 565 235 565 235 542 c 2,32,-1
EndSplineSet
Validated: 1
EndChar

StartChar: e
Encoding: 101 101 5
Width: 429
VWidth: -3
Flags: W
HStem: -9 71<180.699 315.58> 336 53<165.962 239.625>
VStem: 30 106<221 287.901>
DStem2: 136 221 141 161 0.895274 0.445516<0 69.3265 226.816 274.571>
LayerCount: 2
Back
Fore
SplineSet
389 107 m 1,0,1
 384 89 384 89 356 49 c 0,2,3
 314 -9 314 -9 217 -9 c 0,4,5
 132 -9 132 -9 80 52 c 0,6,7
 30 113 30 113 30 194 c 131,-1,8
 30 275 30 275 84 332 c 0,9,10
 137 389 137 389 216 389 c 0,11,12
 260 389 260 389 307 361 c 0,13,14
 311 358 311 358 347 326 c 1,15,16
 368 338 368 338 385 338 c 0,17,18
 409 338 409 338 409 305 c 0,19,20
 409 289 409 289 341 258 c 0,21,22
 175 181 175 181 141 161 c 1,23,24
 150 106 150 106 180 84 c 128,-1,25
 210 62 210 62 265 62 c 0,26,27
 292 62 292 62 309 71 c 128,-1,28
 326 80 326 80 332 90 c 0,29,30
 347 119 347 119 359 119 c 0,31,32
 366 119 366 119 375.5 113.5 c 128,-1,33
 385 108 385 108 389 107 c 1,0,1
187 336 m 0,34,35
 174 336 174 336 156.5 296.5 c 128,-1,36
 139 257 139 257 136 221 c 1,37,38
 186 242 186 242 200 248 c 0,39,40
 253 268 253 268 266 277 c 1,41,42
 236 336 236 336 187 336 c 0,34,35
EndSplineSet
Validated: 1
EndChar

StartChar: p
Encoding: 112 112 6
Width: 503
VWidth: 8
Flags: W
HStem: -160.5 56.5<194.959 315.417> -11 67<219.496 354.048> 313 82<228.859 318.058> 314 61<18.4041 87.5601>
VStem: 89 105<-104 19 81.4092 292.996> 365 108<88.04 253.8>
LayerCount: 2
Back
Fore
SplineSet
194 -104 m 5,0,1
 298 -107 298 -107 316 -120 c 4,2,3
 322 -124 322 -124 322 -129 c 4,4,5
 322 -149 322 -149 253 -160.5 c 132,-1,6
 184 -172 184 -172 116 -174 c 6,7,-1
 39 -175 l 5,8,9
 39 -151 39 -151 50 -140 c 4,10,11
 67 -122 67 -122 89 -114 c 5,12,-1
 89 314 l 5,13,14
 32 322 32 322 14 340 c 4,15,16
 0 354 0 354 0 383 c 13,17,-1
 72 375 l 7,18,19
 114 375 114 375 194 389 c 5,20,-1
 191 329 l 5,21,-1
 230 374 l 6,22,23
 248 395 248 395 290 395 c 4,24,25
 361 394 361 394 417 334 c 4,26,27
 473 271 473 271 473 225 c 4,28,29
 473 119 473 119 434.5 54 c 132,-1,30
 396 -11 396 -11 312 -11 c 4,31,32
 264 -11 264 -11 241 -4 c 132,-1,33
 218 3 218 3 194 19 c 5,34,-1
 194 -104 l 5,0,1
268 313 m 4,35,36
 240 313 240 313 223.5 299.5 c 132,-1,37
 207 286 207 286 191 260 c 5,38,-1
 194 115 l 5,39,40
 210 56 210 56 313 56 c 4,41,42
 345 56 345 56 355 79 c 132,-1,43
 365 102 365 102 365 159 c 132,-1,44
 365 216 365 216 337.5 264.5 c 132,-1,45
 310 313 310 313 268 313 c 4,35,36
EndSplineSet
Validated: 1
EndChar

StartChar: q
Encoding: 113 113 7
Width: 475
VWidth: 8
Flags: W
HStem: -6 74<154.595 242.932> 330 64<144.356 238.481>
VStem: 30 83<114.124 292.033> 290 105<-70 39 85.7971 280.175>
LayerCount: 2
Back
Fore
SplineSet
202 330 m 0,0,1
 161 330 161 330 137 299.5 c 128,-1,2
 113 269 113 269 113 206 c 128,-1,3
 113 143 113 143 140.5 105.5 c 128,-1,4
 168 68 168 68 208.5 68 c 128,-1,5
 249 68 249 68 290 101 c 1,6,-1
 290 255 l 1,7,8
 277 272 277 272 246.5 301 c 128,-1,9
 216 330 216 330 202 330 c 0,0,1
290 -175 m 1,10,-1
 290 39 l 1,11,12
 203 -6 203 -6 170 -6 c 0,13,14
 109 -6 109 -6 69.5 50 c 128,-1,15
 30 106 30 106 30 172 c 0,16,17
 30 266 30 266 72.5 330 c 128,-1,18
 115 394 115 394 182.5 394 c 128,-1,19
 250 394 250 394 298 357 c 1,20,21
 316 374 316 374 342.5 390.5 c 128,-1,22
 369 407 369 407 395 407 c 1,23,-1
 395 -70 l 1,24,25
 421 -58 421 -58 485 -58 c 1,26,27
 472 -82 472 -82 416 -121 c 0,28,29
 358 -161 358 -161 290 -175 c 1,10,-1
EndSplineSet
Validated: 1
EndChar

StartChar: a
Encoding: 97 97 8
Width: 443
VWidth: -3
Flags: W
HStem: -9 74<367.542 431.562> 40 11<181 263> 255 46<128.002 158.622> 322 69<128.128 261.218>
VStem: 30 104<54.0059 124.979 279.326 316.219> 275 91<234.083 307.219>
LayerCount: 2
Back
Fore
SplineSet
181 51 m 0,0,1
 246 51 246 51 274 182 c 1,2,3
 228 169 228 169 181 143 c 128,-1,4
 134 117 134 117 134 76 c 0,5,6
 134 51 134 51 181 51 c 0,0,1
123 -13 m 0,7,8
 30 -13 30 -13 30 59 c 0,9,10
 30 154 30 154 152 193 c 128,-1,11
 274 232 274 232 275 259 c 0,12,13
 275 322 275 322 195 322 c 0,14,15
 172 322 172 322 152 315 c 0,16,17
 128 307 128 307 128 303 c 0,18,19
 128 302 128 302 136 301 c 0,20,21
 159 298 159 298 159 281 c 0,22,23
 159 255 159 255 97 255 c 0,24,25
 74 255 74 255 52 268 c 128,-1,26
 30 281 30 281 30 306 c 128,-1,27
 30 331 30 331 62 352 c 0,28,29
 122 391 122 391 207 391 c 0,30,31
 262 391 262 391 300 377 c 0,32,33
 366 352 366 352 366 308 c 2,34,-1
 367 90 l 2,35,36
 367 75 367 75 405 65 c 0,37,38
 443 56 443 56 443 38 c 132,-1,39
 443 20 443 20 421.5 6 c 128,-1,40
 400 -8 400 -8 377 -9 c 3,41,42
 359 -9 359 -9 289 28 c 0,43,44
 265 40 265 40 263 40 c 3,45,46
 260 40 260 40 246 27 c 0,47,48
 204 -13 204 -13 123 -13 c 0,7,8
EndSplineSet
EndChar

StartChar: b
Encoding: 98 98 9
Width: 498
VWidth: -15
Flags: W
HStem: -17 64<221.023 345.115> 320 73<219.142 311.469>
VStem: 71 102<87.9297 285.393 338 545.097> 368 100<94.1635 249.269>
LayerCount: 2
Back
Fore
SplineSet
0 582 m 0,0,1
 0 593 0 593 30 597 c 0,2,3
 62 601 62 601 102 610 c 0,4,5
 141 619 141 619 173 658 c 1,6,-1
 173 338 l 1,7,8
 234 393 234 393 301 393 c 0,9,10
 385 393 385 393 426.5 323.5 c 128,-1,11
 468 254 468 254 468 154 c 0,12,13
 468 111 468 111 409 47 c 128,-1,14
 350 -17 350 -17 281 -17 c 0,15,16
 184 -17 184 -17 127.5 36.5 c 128,-1,17
 71 90 71 90 71 184 c 2,18,-1
 71 534 l 1,19,20
 0 568 0 568 0 582 c 0,0,1
302 47 m 0,21,22
 368 47 368 47 368 175 c 0,23,24
 368 217 368 217 335 268.5 c 128,-1,25
 302 320 302 320 263 320 c 0,26,27
 205 320 205 320 173 250 c 1,28,-1
 173 109 l 1,29,30
 227 47 227 47 302 47 c 0,21,22
EndSplineSet
Validated: 1
EndChar

StartChar: d
Encoding: 100 100 10
Width: 471
VWidth: -13
Flags: W
HStem: -10 76<181.756 263.966> 328 59<164.638 273.45> 602 20G<357 388.5>
VStem: 30 101<122.119 290.309> 302 97<101.193 305.234 365 550.434>
LayerCount: 2
Back
Fore
SplineSet
165 106 m 132,-1,1
 199 66 199 66 225 66 c 132,-1,2
 251 66 251 66 265 81.5 c 132,-1,3
 279 97 279 97 302 140 c 5,4,-1
 302 270 l 5,5,6
 283 306 283 306 268 317 c 132,-1,7
 253 328 253 328 213 328 c 132,-1,8
 173 328 173 328 152 288.5 c 132,-1,9
 131 249 131 249 131 197.5 c 132,-1,0
 131 146 131 146 165 106 c 132,-1,1
204 -10 m 4,10,11
 132 -10 132 -10 81 50.5 c 132,-1,12
 30 111 30 111 30 185 c 4,13,14
 30 280 30 280 70.5 333.5 c 132,-1,15
 111 387 111 387 186 387 c 132,-1,16
 261 387 261 387 302 365 c 5,17,-1
 302 541 l 1,18,19
 246 563 246 563 246 581 c 0,20,21
 246 595 246 595 296 608.5 c 128,-1,22
 346 622 346 622 368 622 c 0,23,24
 409 622 409 622 409 594 c 0,25,26
 409 581 409 581 404 568.5 c 128,-1,27
 399 556 399 556 399 551 c 2,28,-1
 399 95 l 5,29,30
 419 105 419 105 442 105 c 4,31,32
 471 105 471 105 471 65 c 5,33,-1
 325 -6 l 5,34,-1
 306 44 l 5,35,36
 243 -10 243 -10 204 -10 c 4,10,11
EndSplineSet
Validated: 1
EndChar

StartChar: f
Encoding: 102 102 12
Width: 305
VWidth: -13
Flags: W
HStem: 291.5 75<176.315 242.169> 569 68<210.629 276.214>
VStem: 74 102<22.8726 290.514 367.226 504.429>
LayerCount: 2
Back
Fore
SplineSet
338 470 m 1,0,1
 337 471 337 471 325 488 c 0,2,3
 313 504 313 504 301 520 c 0,4,5
 265 565 265 565 235 569 c 0,6,7
 218 569 218 569 197 523 c 128,-1,8
 176 477 176 477 176 448 c 2,9,-1
 176 370 l 1,10,11
 184 367 184 367 208 366.5 c 128,-1,12
 232 366 232 366 242.5 357.5 c 128,-1,13
 253 349 253 349 253 326.5 c 128,-1,14
 253 304 253 304 240.5 298.5 c 128,-1,15
 228 293 228 293 207 291.5 c 128,-1,16
 186 290 186 290 176 283 c 1,17,-1
 176 68 l 2,18,19
 175 50 175 50 153 22 c 0,20,21
 132 -4 132 -4 74 -56 c 1,22,-1
 74 284 l 1,23,24
 61 293 61 293 51 294 c 0,25,26
 31 297 31 297 30 319 c 0,27,28
 30 347 30 347 74 371 c 1,29,30
 74 498 74 498 133 567.5 c 128,-1,31
 192 637 192 637 275 637 c 0,32,33
 324 637 324 637 359.5 614.5 c 128,-1,34
 395 592 395 592 395 570 c 0,35,36
 395 545 395 545 338 470 c 1,0,1
EndSplineSet
Validated: 1
EndChar

StartChar: m
Encoding: 109 109 13
Width: 752
VWidth: -3
Flags: W
HStem: -18 19G<103 129.5 332 359.5 552.5 554> 323 77<233.607 350.141> 335 65<45.7617 72.0898 471.838 578.028>
VStem: 103 95<9.21582 301.979> 332 97<9.21582 287.69> 563 109<68.0026 321.514>
LayerCount: 2
Back
Fore
SplineSet
15 346.5 m 128,-1,1
 15 360 15 360 50 380 c 128,-1,2
 85 400 85 400 101.5 400 c 128,-1,3
 118 400 118 400 147.5 386.5 c 128,-1,4
 177 373 177 373 191 345 c 1,5,6
 246 400 246 400 314 400 c 0,7,8
 400 400 400 400 423 343 c 1,9,10
 485 400 485 400 563 400 c 0,11,12
 609 400 609 400 634 371 c 0,13,14
 672 328 672 328 672 194 c 0,15,16
 672 112 672 112 657 67 c 1,17,18
 705 95 705 95 717 95 c 0,19,20
 737 95 737 95 737 63 c 0,21,22
 737 48 737 48 651.5 14 c 128,-1,23
 566 -20 566 -20 542 -20 c 1,24,25
 563 72 563 72 563 128 c 0,26,27
 561 297 561 297 544 318 c 0,28,29
 532 335 532 335 504 335 c 0,30,31
 468 335 468 335 429 304 c 1,32,-1
 429 108 l 2,33,34
 429 40 429 40 408 11 c 128,-1,35
 387 -18 387 -18 332 -18 c 1,36,-1
 332 151 l 2,37,38
 332 200 332 200 323.5 243 c 128,-1,39
 315 286 315 286 301 300 c 0,40,41
 278 323 278 323 255 323 c 0,42,43
 238 322 238 322 198 292 c 1,44,-1
 198 104 l 2,45,46
 198 40 198 40 177 11 c 128,-1,47
 156 -18 156 -18 103 -18 c 1,48,-1
 103 153 l 2,49,50
 103 271 103 271 80 303 c 0,51,52
 59 333 59 333 37 333 c 128,-1,0
 15 333 15 333 15 346.5 c 128,-1,1
EndSplineSet
Validated: 1
EndChar

StartChar: l
Encoding: 108 108 14
Width: 247
VWidth: -14
Flags: W
VStem: 61 93<56 561.368>
LayerCount: 2
Back
Fore
SplineSet
227 64 m 0,0,1
 227 47 227 47 162.5 9 c 128,-1,2
 98 -29 98 -29 61 -29 c 1,3,-1
 61 521 l 2,4,5
 61 538 61 538 40 560 c 0,6,7
 20 582 20 582 20 596.5 c 131,-1,8
 20 611 20 611 69.5 626 c 128,-1,9
 119 641 119 641 154 644 c 1,10,-1
 154 56 l 1,11,12
 175 60 175 60 209 94 c 1,13,14
 227 67 227 67 227 64 c 0,0,1
EndSplineSet
Validated: 1
EndChar

StartChar: g
Encoding: 103 103 15
Width: 453
VWidth: 8
Flags: W
HStem: -174 53<127.881 335.82> -22 70<140.076 332.711> 102 47<154.875 245.17> 288 74<336 397.825> 338 55<125.29 212.845>
VStem: 30 84<-103.581 -61.6465 192.462 326.552> 52 87<34.25 80.8732> 255 92<158.687 287.111> 345 88<-108.054 -37.2458>
LayerCount: 2
Back
Fore
SplineSet
139 63 m 3,0,1
 139 48 139 48 225 48 c 2,2,-1
 327 48 l 2,3,4
 374 48 374 48 403.5 9.5 c 128,-1,5
 433 -29 433 -29 433 -58 c 0,6,7
 433 -108 433 -108 375 -141 c 128,-1,8
 317 -174 317 -174 229 -174 c 0,9,10
 30 -174 30 -174 30 -99 c 0,11,12
 30 -69 30 -69 108 -19 c 1,13,14
 86 -13 86 -13 69 5 c 128,-1,15
 52 23 52 23 52 45.5 c 128,-1,16
 52 68 52 68 121 122 c 1,17,18
 32 174 32 174 32 272 c 0,19,20
 32 322 32 322 75 357.5 c 128,-1,21
 118 393 118 393 174 393 c 128,-1,22
 230 393 230 393 276 362 c 1,23,-1
 420 362 l 1,24,25
 420 325 420 325 393 288 c 1,26,-1
 336 288 l 1,27,28
 347 250 347 250 347 226 c 0,29,30
 347 175 347 175 306.5 138.5 c 128,-1,31
 266 102 266 102 202.5 102 c 128,-1,32
 139 102 139 102 139 63 c 3,0,1
203 149 m 0,33,34
 255 149 255 149 255 211 c 131,-1,35
 255 273 255 273 223.5 305.5 c 128,-1,36
 192 338 192 338 162.5 338 c 128,-1,37
 133 338 133 338 126 321 c 128,-1,38
 119 304 119 304 119 256 c 128,-1,39
 119 208 119 208 147 178.5 c 128,-1,40
 175 149 175 149 203 149 c 0,33,34
345 -74 m 0,41,42
 345 -22 345 -22 241 -22 c 0,43,44
 114 -22 114 -22 114 -74 c 0,45,46
 114 -121 114 -121 251 -121 c 0,47,48
 345 -121 345 -121 345 -74 c 0,41,42
EndSplineSet
Validated: 1
EndChar

StartChar: i
Encoding: 105 105 16
Width: 239
VWidth: -10
Flags: W
HStem: -18 21G<59.9361 78.5>
VStem: 60 93<66 325.091>
LayerCount: 2
Back
Fore
SplineSet
88 425 m 7,0,1
 62 425 62 425 62 456 c 4,2,3
 62 472 62 472 87 513 c 4,4,5
 112 554 112 554 132 554 c 4,6,7
 152 554 152 554 168 544 c 4,8,9
 185 534 185 534 185 510 c 7,10,11
 185 488 185 488 150 456 c 4,12,13
 116 425 116 425 88 425 c 7,0,1
EndSplineSet
Refer: 104 305 N 1 0 0 1 0 0 2
Validated: 1
EndChar

StartChar: h
Encoding: 104 104 17
Width: 498
VWidth: -14
Flags: W
HStem: 318 78<194.255 320.5>
VStem: 60 97<4.69751 305.309 344 556.465> 324 89<62.2169 273.821>
LayerCount: 2
Back
Fore
SplineSet
301 -26 m 1,0,1
 324 48 324 48 324 146 c 128,-1,2
 324 244 324 244 297 281 c 128,-1,3
 270 318 270 318 216 318 c 0,4,5
 194 318 194 318 175 302 c 0,6,7
 165 294 165 294 157 287 c 1,8,-1
 157 20 l 2,9,10
 157 -10 157 -10 60 -31 c 1,11,-1
 60 515 l 2,12,13
 60 530 60 530 52 541.5 c 128,-1,14
 44 553 44 553 35 558 c 0,15,16
 10 572 10 572 10 589 c 131,-1,17
 10 606 10 606 67 622 c 128,-1,18
 124 638 124 638 157 640 c 1,19,-1
 157 344 l 1,20,21
 185 371 185 371 212.5 383.5 c 128,-1,22
 240 396 240 396 286 396 c 0,23,24
 355 396 355 396 384 337.5 c 128,-1,25
 413 279 413 279 413 170 c 0,26,27
 413 103 413 103 399 61 c 1,28,29
 447 89 447 89 458 89 c 0,30,31
 478 89 478 89 478 56 c 0,32,33
 478 42 478 42 401.5 8 c 128,-1,34
 325 -26 325 -26 301 -26 c 1,0,1
EndSplineSet
Validated: 1
EndChar

StartChar: r
Encoding: 114 114 18
Width: 386
VWidth: -3
Flags: W
HStem: -17 21G<74 88.5> 306 87<238.428 299.252>
VStem: 74 99<13.1725 278.216>
LayerCount: 2
Back
Fore
SplineSet
173 261 m 1,0,-1
 173 46 l 2,1,2
 173 26 173 26 138 4.5 c 128,-1,3
 103 -17 103 -17 74 -17 c 1,4,-1
 74 280 l 2,5,6
 74 298 74 298 65.5 308.5 c 128,-1,7
 57 319 57 319 47 322.5 c 128,-1,8
 37 326 37 326 28.5 333.5 c 128,-1,9
 20 341 20 341 20 355 c 128,-1,10
 20 369 20 369 80.5 375 c 128,-1,11
 141 381 141 381 182 381 c 1,12,-1
 176 336 l 1,13,14
 195 345 195 345 220 360 c 0,15,16
 275 393 275 393 282 393 c 0,17,18
 298 393 298 393 334.5 380 c 128,-1,19
 371 367 371 367 371 352 c 128,-1,20
 371 337 371 337 354 305.5 c 128,-1,21
 337 274 337 274 323.5 274 c 128,-1,22
 310 274 310 274 291.5 290 c 128,-1,23
 273 306 273 306 260.5 306 c 131,-1,24
 248 306 248 306 219.5 292 c 128,-1,25
 191 278 191 278 173 261 c 1,0,-1
EndSplineSet
Validated: 1
EndChar

StartChar: s
Encoding: 115 115 19
Width: 364
VWidth: -4
Flags: W
HStem: -12 63<139.309 231.984> 173 85<142.354 228.906> 347 45<137.681 279>
VStem: 33 97<244 333.815> 247 87<80.9199 182>
LayerCount: 2
Back
Fore
SplineSet
83 135 m 1,0,1
 86 132 86 132 94 120 c 0,2,3
 145 52 145 52 197 51 c 0,4,5
 218 51 218 51 232.5 68 c 128,-1,6
 247 85 247 85 247 111.5 c 128,-1,7
 247 138 247 138 225 154 c 0,8,9
 206 169 206 169 172 173 c 0,10,11
 80 185 80 185 55 206 c 0,12,13
 33 225 33 225 33 263 c 0,14,15
 33 392 33 392 239 392 c 4,16,17
 319 392 319 392 319 342 c 4,18,19
 319 320 319 320 303.5 304 c 132,-1,20
 288 288 288 288 268 288 c 4,21,22
 231 288 231 288 218 317 c 4,23,24
 205 347 205 347 183.5 347 c 132,-1,25
 162 347 162 347 146 335 c 132,-1,26
 130 323 130 323 130 305 c 4,27,28
 130 267 130 267 202 258 c 0,29,30
 285 248 285 248 313 220 c 0,31,32
 334 200 334 200 334 164 c 0,33,34
 334 88 334 88 274 38 c 128,-1,35
 214 -12 214 -12 147 -12 c 0,36,37
 30 -12 30 -12 30 65 c 0,38,39
 30 116 30 116 83 135 c 1,0,1
EndSplineSet
Validated: 1
EndChar

StartChar: t
Encoding: 116 116 20
Width: 368
VWidth: -6
Flags: W
HStem: -22 80<178.037 278.25> 304 70<167 319.045>
VStem: 69 98<70.3047 304>
LayerCount: 2
Back
Fore
SplineSet
167 304 m 1,0,-1
 167 114 l 2,1,2
 167 58 167 58 246 58 c 0,3,4
 269 58 269 58 288 65.5 c 128,-1,5
 307 73 307 73 315 73 c 0,6,7
 348 73 348 73 348 51 c 0,8,9
 348 35 348 35 291.5 6.5 c 128,-1,10
 235 -22 235 -22 194.5 -22 c 128,-1,11
 154 -22 154 -22 111.5 7 c 128,-1,12
 69 36 69 36 69 68 c 2,13,-1
 69 295 l 1,14,15
 68 296 68 296 57 303 c 0,16,17
 25 323 25 323 25 336.5 c 128,-1,18
 25 350 25 350 83 393 c 128,-1,19
 141 436 141 436 154 436 c 128,-1,20
 167 436 167 436 167 374 c 1,21,22
 233 377 233 377 305 377 c 0,23,24
 323 377 323 377 323 353 c 0,25,26
 323 316 323 316 304 311 c 1,27,-1
 167 304 l 1,0,-1
EndSplineSet
Validated: 1
EndChar

StartChar: j
Encoding: 106 106 21
Width: 264
VWidth: 1
Flags: W
HStem: -176 53<43.222 106.004>
VStem: -20 42<-100.417 -73.9285> 118 96<-114.803 325.833>
LayerCount: 2
Back
Fore
SplineSet
137 425 m 3,0,1
 111 425 111 425 111 456 c 0,2,3
 111 472 111 472 136 513 c 128,-1,4
 161 554 161 554 181 554 c 128,-1,5
 201 554 201 554 217 544 c 0,6,7
 234 534 234 534 234 510 c 3,8,9
 234 488 234 488 199 456 c 0,10,11
 165 425 165 425 137 425 c 3,0,1
22 -61 m 1,12,13
 22 -68 22 -68 33 -86 c 0,14,15
 56 -123 56 -123 74 -123 c 3,16,17
 118 -123 118 -123 118 -30 c 2,18,-1
 117 286 l 2,19,20
 117 303 117 303 97 324.5 c 128,-1,21
 77 346 77 346 77 357 c 0,22,23
 78 373 78 373 127.5 387 c 128,-1,24
 177 401 177 401 213 404 c 1,25,-1
 214 -42 l 2,26,27
 214 -113 214 -113 179 -144.5 c 128,-1,28
 144 -176 144 -176 97 -176 c 128,-1,29
 50 -176 50 -176 15 -160.5 c 128,-1,30
 -20 -145 -20 -145 -20 -113 c 0,31,32
 -20 -98 -20 -98 -11 -86 c 0,33,34
 -1 -72 -1 -72 22 -61 c 1,12,13
EndSplineSet
Validated: 1
EndChar

StartChar: k
Encoding: 107 107 22
Width: 513
VWidth: -14
Flags: W
HStem: -18 70<359 440.355>
VStem: 62 94<-4.6875 177.897 244 568.874>
LayerCount: 2
Back
Fore
SplineSet
156 22 m 2,0,1
 156 5 156 5 127 -8 c 128,-1,2
 98 -21 98 -21 62 -21 c 1,3,-1
 62 550 l 2,4,5
 62 554 62 554 41 568 c 128,-1,6
 20 582 20 582 20 595 c 0,7,8
 21 612 21 612 73 627 c 0,9,10
 123 642 123 642 156 644 c 1,11,-1
 156 244 l 1,12,13
 382 391 382 391 429 392 c 0,14,15
 443 392 443 392 452 381 c 128,-1,16
 461 370 461 370 464 344 c 1,17,-1
 284 229 l 1,18,19
 318 199 318 199 348 154 c 0,20,21
 415 52 415 52 422 52 c 0,22,23
 432 52 432 52 438 68.5 c 128,-1,24
 444 85 444 85 461 85 c 0,25,26
 483 85 483 85 483 48 c 0,27,28
 483 24 483 24 443.5 3 c 128,-1,29
 404 -18 404 -18 374 -18 c 128,-1,30
 344 -18 344 -18 318 13.5 c 128,-1,31
 292 45 292 45 274 83.5 c 128,-1,32
 256 122 256 122 233 153.5 c 128,-1,33
 210 185 210 185 190 185 c 0,34,35
 174 185 174 185 156 130 c 1,36,-1
 156 22 l 2,0,1
EndSplineSet
Validated: 1
EndChar

StartChar: P
Encoding: 80 80 23
Width: 647
VWidth: -14
Flags: W
HStem: -19 56<29.1906 144.516 282.814 519.327> -6.5 50.5<274.715 502.121> 3 50<272 447.025> 148 56<339.26 483.305> 560 44<20.0547 110.069> 571 6<217 356>
VStem: 135 137<258.093 536.099> 152 120<53 180 252.743 494.527> 525 102<310.229 490.39>
LayerCount: 2
Back
Fore
SplineSet
356 571 m 0,0,1
 316 571 316 571 272 527 c 1,2,-1
 272 270 l 1,3,4
 351 204 351 204 433 204 c 0,5,6
 525 204 525 204 525 409 c 0,7,8
 525 477 525 477 475.5 524 c 128,-1,9
 426 571 426 571 356 571 c 0,0,1
29 -12.5 m 128,-1,11
 23 -6 23 -6 23 4.5 c 128,-1,12
 23 15 23 15 30.5 26 c 128,-1,13
 38 37 38 37 52 37 c 0,14,15
 130 37 130 37 145 55 c 1,16,17
 152 78 152 78 152 206 c 0,18,19
 152 396 152 396 135 518 c 0,20,21
 134 528 134 528 98.5 544 c 128,-1,22
 63 560 63 560 34 560 c 0,23,24
 20 560 20 560 20 580 c 0,25,26
 20 604 20 604 39 604 c 0,27,28
 88 604 88 604 128 590.5 c 128,-1,29
 168 577 168 577 217 577 c 3,30,31
 247 577 247 577 281 614 c 0,32,33
 316 652 316 652 385 652 c 0,34,35
 484 652 484 652 555.5 578.5 c 128,-1,36
 627 505 627 505 627 404 c 0,37,38
 627 352 627 352 596 292 c 128,-1,39
 565 232 565 232 514 190 c 0,40,41
 464 148 464 148 418 148 c 0,42,43
 341 148 341 148 295 170 c 0,44,45
 275 180 275 180 272 180 c 1,46,-1
 272 53 l 1,47,48
 359 52 359 52 430.5 44 c 128,-1,49
 502 36 502 36 508 35 c 128,-1,50
 514 34 514 34 519.5 26.5 c 128,-1,51
 525 19 525 19 525 10 c 128,-1,52
 525 1 525 1 519.5 -7.5 c 128,-1,53
 514 -16 514 -16 502.5 -16 c 128,-1,54
 491 -16 491 -16 400 -6.5 c 128,-1,55
 309 3 309 3 228 3 c 128,-1,56
 147 3 147 3 109.5 -8 c 128,-1,57
 72 -19 72 -19 53.5 -19 c 128,-1,10
 35 -19 35 -19 29 -12.5 c 128,-1,11
EndSplineSet
Validated: 1
EndChar

StartChar: period
Encoding: 46 46 24
Width: 244
VWidth: 9
Flags: W
HStem: -20 149<80.0214 155.641>
VStem: 40 164<23.1106 87.168>
LayerCount: 2
Back
Fore
SplineSet
171.5 12.5 m 132,-1,1
 139 -20 139 -20 122.5 -20 c 132,-1,2
 106 -20 106 -20 73 7.5 c 132,-1,3
 40 35 40 35 40 52.5 c 132,-1,4
 40 70 40 70 69 99.5 c 132,-1,5
 98 129 98 129 112 129 c 132,-1,6
 126 129 126 129 165 100.5 c 132,-1,7
 204 72 204 72 204 58.5 c 132,-1,0
 204 45 204 45 171.5 12.5 c 132,-1,1
EndSplineSet
Validated: 1
EndChar

StartChar: comma
Encoding: 44 44 25
Width: 272
VWidth: 13
Flags: W
HStem: -104 64<103.759 173.145> -18 21G<98.5 112>
VStem: 174 58<-38.0665 9.42664>
LayerCount: 2
Back
Fore
SplineSet
146 150 m 0,0,1
 155 150 155 150 172 123.5 c 128,-1,2
 189 97 189 97 202 70 c 0,3,4
 232 8 232 8 232 -14 c 0,5,6
 232 -52 232 -52 211 -78 c 128,-1,7
 190 -104 190 -104 150 -104 c 0,8,9
 132 -104 132 -104 116.5 -94.5 c 128,-1,10
 101 -85 101 -85 101 -70.5 c 128,-1,11
 101 -56 101 -56 113 -48 c 0,12,13
 123 -40 123 -40 137 -40 c 0,14,15
 173 -39 173 -39 174 -19 c 0,16,17
 174 -4 174 -4 165 10 c 1,18,19
 152 9 152 9 134 -4.5 c 128,-1,20
 116 -18 116 -18 108 -18 c 0,21,22
 89 -18 89 -18 64.5 27 c 128,-1,23
 40 72 40 72 40 93 c 0,24,25
 40 111 40 111 82.5 130.5 c 128,-1,26
 125 150 125 150 146 150 c 0,0,1
EndSplineSet
Validated: 1
EndChar

StartChar: u
Encoding: 117 117 26
Width: 495
VWidth: -4
Flags: W
HStem: -15 77<185.464 282.469>
VStem: 60 90<98.5254 349.187> 337 91<96.7959 338.393>
LayerCount: 2
Back
Fore
SplineSet
342 385 m 0,0,1
 397 388 397 388 410 388 c 0,2,3
 428 388 428 388 428 267 c 0,4,5
 428 202 428 202 423 150 c 8,6,7
 421 130 421 130 421 116 c 16,8,9
 421 90 421 90 461 60 c 0,10,11
 475 50 475 50 475 38 c 3,12,13
 475 28 475 28 456 6 c 0,14,15
 438 -16 438 -16 421.5 -16 c 128,-1,16
 405 -16 405 -16 375 -2 c 128,-1,17
 345 12 345 12 330 41 c 1,18,19
 295 11 295 11 264 -2 c 128,-1,20
 233 -15 233 -15 188.5 -15 c 128,-1,21
 144 -15 144 -15 118 3 c 0,22,23
 60 41 60 41 60 185 c 0,24,25
 60 223 60 223 61.5 277.5 c 128,-1,26
 63 332 63 332 63 338 c 1,27,28
 30 347 30 347 30 364 c 0,29,30
 30 378 30 378 75.5 384.5 c 128,-1,31
 121 391 121 391 166 391 c 1,32,33
 150 328 150 328 150 215 c 0,34,35
 150 125 150 125 170 100 c 0,36,37
 201 62 201 62 244 62 c 3,38,39
 296 62 296 62 316 99 c 128,-1,40
 336 136 336 136 337 246 c 0,41,42
 337 320 337 320 330 339 c 1,43,44
 296 347 296 347 296 365 c 0,45,46
 296 382 296 382 342 385 c 0,0,1
EndSplineSet
Validated: 1
EndChar

StartChar: v
Encoding: 118 118 27
Width: 420
VWidth: -3
Flags: W
HStem: 335 55<32.0197 53.4786>
VStem: 335 70<209.579 375.824>
DStem2: 188.5 271.5 63.5 297 0.371869 -0.928285<-118.419 157.996>
LayerCount: 2
Back
Fore
SplineSet
245 -26 m 1,0,1
 196 19 196 19 158 86.5 c 128,-1,2
 120 154 120 154 102 206.5 c 128,-1,3
 84 259 84 259 63.5 297 c 128,-1,4
 43 335 43 335 15 335 c 1,5,6
 15 365 15 365 31.5 377.5 c 128,-1,7
 48 390 48 390 81 390 c 128,-1,8
 114 390 114 390 143 353.5 c 128,-1,9
 172 317 172 317 188.5 271.5 c 128,-1,10
 205 226 205 226 219.5 182.5 c 128,-1,11
 234 139 234 139 254 118 c 1,12,13
 335 212 335 212 335 313 c 0,14,15
 335 317 335 317 325.5 334.5 c 128,-1,16
 316 352 316 352 316 369 c 1,17,18
 352 386 352 386 384 386 c 0,19,20
 405 386 405 386 405 354 c 0,21,22
 405 247 405 247 365 156 c 128,-1,23
 325 65 325 65 245 -26 c 1,0,1
EndSplineSet
Validated: 1
EndChar

StartChar: w
Encoding: 119 119 28
Width: 645
VWidth: -3
Flags: W
DStem2: 422.5 269 329 226 0.453251 -0.891383<-136.787 16.4535 70.2074 159.879>
LayerCount: 2
Back
Fore
SplineSet
237 -26 m 1,0,1
 191 18 191 18 154 86 c 0,2,3
 118 154 118 154 100 206 c 0,4,5
 57 335 57 335 15 335 c 1,6,7
 15 390 15 390 77 390 c 0,8,9
 112 390 112 390 140 354 c 128,-1,10
 168 318 168 318 184 272 c 0,11,12
 230 136 230 136 260 102 c 1,13,14
 311 162 311 162 329 226 c 1,15,16
 316 253 316 253 306.5 266.5 c 128,-1,17
 297 280 297 280 273.5 301 c 128,-1,18
 250 322 250 322 250 342 c 0,19,20
 250 388 250 388 311 388 c 0,21,22
 346 388 346 388 376 351.5 c 128,-1,23
 406 315 406 315 422.5 269 c 128,-1,24
 439 223 439 223 455 183.5 c 128,-1,25
 471 144 471 144 490 123 c 1,26,27
 538 209 538 209 557 313 c 1,28,29
 538 342 538 342 528 372 c 1,30,31
 553 383 553 383 608 383 c 0,32,33
 630 383 630 383 630 350 c 1,34,35
 606 228 606 228 558.5 114 c 128,-1,36
 511 0 511 0 471 -24 c 1,37,38
 442 0 442 0 412 54 c 0,39,40
 390 95 390 95 365 161 c 1,41,42
 351 120 351 120 303 56 c 0,43,44
 279 24 279 24 237 -26 c 1,0,1
EndSplineSet
Validated: 1
EndChar

StartChar: y
Encoding: 121 121 29
Width: 420
VWidth: 8
Flags: W
HStem: 345 53<34.0853 60.0403>
VStem: 331 74<258.928 383.04>
LayerCount: 2
Back
Fore
SplineSet
202 -67 m 1,0,1
 213 -83 213 -83 240 -105 c 1,2,3
 210 -176 210 -176 183 -176 c 0,4,5
 164 -176 164 -176 142 -158 c 0,6,7
 117 -138 117 -138 90 -100 c 1,8,9
 104 -80 104 -80 120 -62 c 0,10,11
 153 -22 153 -22 190 30 c 1,12,13
 120 223 120 223 96 270 c 0,14,15
 57 345 57 345 15 345 c 1,16,17
 15 378 15 378 33.5 388 c 128,-1,18
 52 398 52 398 100 398 c 0,19,20
 186 398 186 398 267 141 c 1,21,22
 331 256 331 256 331 326 c 0,23,24
 331 369 331 369 342 383.5 c 128,-1,25
 353 398 353 398 370.5 398 c 128,-1,26
 388 398 388 398 396.5 387 c 128,-1,27
 405 376 405 376 405 365 c 0,28,29
 405 316 405 316 378.5 246 c 128,-1,30
 352 176 352 176 310 106 c 0,31,32
 250 2 250 2 202 -67 c 1,0,1
EndSplineSet
Validated: 1
EndChar

StartChar: x
Encoding: 120 120 30
Width: 509
VWidth: -4
Flags: W
HStem: -15 70<380.257 432.794> -10 114<51.1201 116.164> 288 103<395.387 456.127>
DStem2: 130 56 177 24 0.568581 0.822627<0 109.942 241.538 366.964> 264 257 203 167 0.578747 -0.815507<-143.994 0 220.897 248.221>
LayerCount: 2
Back
Fore
SplineSet
130 56 m 1,0,-1
 203 167 l 1,1,2
 147 254 147 254 99 292 c 0,3,4
 74 312 74 312 33 328 c 1,5,6
 33 389 33 389 97 389 c 128,-1,7
 161 389 161 389 264 257 c 1,8,9
 312 333 312 333 341.5 362 c 128,-1,10
 371 391 371 391 409 391 c 0,11,12
 430 391 430 391 449.5 375 c 128,-1,13
 469 359 469 359 469 338 c 128,-1,14
 469 317 469 317 453.5 302.5 c 128,-1,15
 438 288 438 288 419 288 c 128,-1,16
 400 288 400 288 392 321 c 1,17,18
 345 269 345 269 299 202 c 1,19,20
 345 114 345 114 385 72 c 0,21,22
 401 55 401 55 408.5 55 c 131,-1,23
 416 55 416 55 431 63 c 0,24,25
 446 70 446 70 452 82 c 1,26,27
 463 79 463 79 471 70 c 128,-1,28
 479 61 479 61 479 52 c 0,29,30
 479 40 479 40 440.5 12.5 c 128,-1,31
 402 -15 402 -15 382 -15 c 0,32,33
 335 -15 335 -15 313 12 c 0,34,35
 265 68 265 68 238 115 c 1,36,37
 235 109 235 109 213 76 c 128,-1,38
 191 43 191 43 177 24 c 0,39,40
 152 -10 152 -10 132 -10 c 0,41,42
 67 -10 67 -10 46 18 c 0,43,44
 30 40 30 40 30 52 c 3,45,46
 30 76 30 76 45 92 c 0,47,48
 55 104 55 104 71 104 c 0,49,50
 99 104 99 104 108 92 c 0,51,52
 122 76 122 76 130 56 c 1,0,-1
EndSplineSet
Validated: 1
EndChar

StartChar: z
Encoding: 122 122 31
Width: 480
VWidth: -2
Flags: W
HStem: 4 77<204 413.122> 318 79<81.6147 227.951>
VStem: 417 48<-44.8364 -15>
DStem2: 30 -27 204 81 0.667545 0.744569<196.566 409.924 499.294 553.937>
LayerCount: 2
Back
Fore
SplineSet
381 364.5 m 128,-1,1
 392 382 392 382 404 382 c 3,2,3
 428 382 428 382 428 361 c 0,4,5
 428 349 428 349 372 279 c 128,-1,6
 316 209 316 209 204 81 c 1,7,8
 420 81 420 81 452 64 c 0,9,10
 464 58 464 58 465 44 c 0,11,12
 465 -50 465 -50 428 -50 c 0,13,14
 417 -50 417 -50 417 -34.5 c 128,-1,15
 417 -19 417 -19 418 -15 c 1,16,17
 261 4 261 4 219 4 c 0,18,19
 147 4 147 4 30 -27 c 1,20,21
 193 154 193 154 305 277 c 1,22,23
 265 285 265 285 227 296.5 c 128,-1,24
 189 308 189 308 163.5 313 c 128,-1,25
 138 318 138 318 98 318 c 0,26,27
 77 318 77 318 46 271 c 1,28,29
 46 322 46 322 70 359.5 c 128,-1,30
 94 397 94 397 119 397 c 0,31,32
 170 397 170 397 260.5 372 c 128,-1,33
 351 347 351 347 360.5 347 c 128,-1,0
 370 347 370 347 381 364.5 c 128,-1,1
EndSplineSet
Validated: 1
EndChar

StartChar: quotesingle
Encoding: 39 39 32
Width: 172
VWidth: 41
Flags: W
HStem: 380 314<72.1418 81.1262>
VStem: 33 111<484.871 653.447>
LayerCount: 2
Back
Fore
SplineSet
86 694 m 4,0,1
 144 694 144 694 144 645 c 0,2,3
 144 595 144 595 130 522 c 0,4,5
 103 380 103 380 33 380 c 1,6,7
 33 694 33 694 86 694 c 4,0,1
EndSplineSet
Validated: 1
EndChar

StartChar: A
Encoding: 65 65 34
Width: 670
VWidth: -15
Flags: W
HStem: -9 61<30.7734 71.686 148 158 213 231.047 560.944 597.26 621 637.954> -9 41<388.562 460.191> 287 76<308.88 394> 562 69<250 355> 573 71<65.8383 184 454 519.908>
VStem: 72 76<59 188.577>
DStem2: 109 253 181 248 0.216598 0.976261<-178.515 20.7777 112.345 329.276>
LayerCount: 2
Back
Fore
SplineSet
204 347 m 1,0,-1
 394 363 l 1,1,-1
 355 562 l 1,2,-1
 250 559 l 1,3,-1
 204 347 l 1,0,-1
158 -2 m 1,4,-1
 52 -7 l 1,5,6
 30 -7 30 -7 30 24 c 128,-1,7
 30 55 30 55 46 55 c 128,-1,8
 62 55 62 55 72 60 c 1,9,10
 74 105 74 105 109 253 c 0,11,12
 182 566 182 566 184 575 c 1,13,14
 180 576 180 576 128 578.5 c 128,-1,15
 76 581 76 581 65.5 589.5 c 128,-1,16
 55 598 55 598 48.5 616 c 128,-1,17
 42 634 42 634 42 644 c 1,18,19
 104 644 104 644 180 637 c 0,20,21
 255 631 255 631 303 631 c 128,-1,22
 351 631 351 631 387 638 c 0,23,24
 419 644 419 644 466 644 c 0,25,26
 524 644 524 644 524 611 c 0,27,28
 524 573 524 573 454 573 c 1,29,30
 454 539 454 539 507 329.5 c 128,-1,31
 560 120 560 120 560 70 c 0,32,33
 560 52 560 52 615 52 c 0,34,35
 628 52 628 52 634 40 c 128,-1,36
 640 28 640 28 640 16 c 0,37,38
 640 -9 640 -9 621 -9 c 0,39,40
 607 -9 607 -9 583.5 -5 c 128,-1,41
 560 -1 560 -1 509 -1 c 1,42,-1
 410 -9 l 2,43,44
 401 -9 401 -9 394.5 -0.5 c 128,-1,45
 388 8 388 8 388 16 c 0,46,47
 388 32 388 32 404 32 c 0,48,49
 411 32 411 32 467 55 c 1,50,-1
 414 287 l 1,51,52
 333 282 333 282 181 248 c 1,53,54
 150 138 150 138 148 59 c 1,55,-1
 213 56 l 2,56,57
 233 56 233 56 233 28 c 128,-1,58
 233 0 233 0 214 0 c 2,59,-1
 158 -2 l 1,4,-1
EndSplineSet
Validated: 1
EndChar

StartChar: B
Encoding: 66 66 35
Width: 628
VWidth: -15
Flags: W
HStem: -36 61<270.94 431.024> -20 50<60.2837 132.774> 558 45<34.6415 119.688> 579 72<269.428 389.493>
VStem: 135 106<54.0055 539.062> 428 110<407.638 539.02> 475 113<65.6028 228.648>
LayerCount: 2
Back
Fore
SplineSet
322 579 m 0,0,1
 289 579 289 579 265 552.5 c 128,-1,2
 241 526 241 526 241 481 c 2,3,-1
 241 126 l 1,4,5
 242 72 242 72 269 48.5 c 128,-1,6
 296 25 296 25 375 25 c 0,7,8
 403 25 403 25 439 52.5 c 128,-1,9
 475 80 475 80 475 125 c 0,10,11
 475 217 475 217 432 254 c 0,12,13
 401 280 401 280 343 305 c 0,14,15
 319 315 319 315 282 338 c 1,16,17
 428 381 428 381 428 469 c 0,18,19
 428 513 428 513 401 546 c 128,-1,20
 374 579 374 579 322 579 c 0,0,1
377 -36 m 0,21,22
 326 -36 326 -36 278.5 -17.5 c 128,-1,23
 231 1 231 1 194 1 c 0,24,25
 191 1 191 1 173 -4 c 0,26,27
 122 -20 122 -20 71 -20 c 0,28,29
 51 -20 51 -20 51 1 c 0,30,31
 51 14 51 14 60 22 c 128,-1,32
 69 30 69 30 88 30 c 0,33,34
 126 30 126 30 133 40 c 0,35,36
 135 43 135 43 135 50 c 2,37,-1
 135 519 l 1,38,39
 133 530 133 530 104.5 544 c 128,-1,40
 76 558 76 558 47 558 c 0,41,42
 39 558 39 558 34.5 564.5 c 128,-1,43
 30 571 30 571 30 579 c 128,-1,44
 30 587 30 587 35.5 595 c 128,-1,45
 41 603 41 603 50 603 c 0,46,47
 91 603 91 603 118 589.5 c 128,-1,48
 145 576 145 576 173 576 c 0,49,50
 214 576 214 576 248 613.5 c 128,-1,51
 282 651 282 651 353 651 c 0,52,53
 433 651 433 651 485.5 602 c 128,-1,54
 538 553 538 553 538 483 c 0,55,56
 538 431 538 431 511.5 389.5 c 128,-1,57
 485 348 485 348 436 331 c 1,58,59
 441 328 441 328 467 316 c 0,60,61
 544 281 544 281 563 249 c 0,62,63
 588 206 588 206 588 156 c 3,64,65
 588 56 588 56 519 13 c 0,66,67
 440 -36 440 -36 377 -36 c 0,21,22
EndSplineSet
Validated: 1
EndChar

StartChar: C
Encoding: 67 67 36
Width: 664
VWidth: -12
Flags: W
HStem: -17.5 53.5<346.25 479.312> 593 65<237.734 354.444>
VStem: 40 101<233.909 453.71> 585 38<-69 25>
LayerCount: 2
Back
Fore
SplineSet
623 -69 m 1,0,1
 620 -72 620 -72 616 -76 c 4,2,3
 602 -90 602 -90 592 -91 c 1,4,5
 585 -87 585 -87 585 -79 c 0,6,7
 581 3 581 3 579 25 c 1,8,9
 525 -9 525 -9 475 -17.5 c 128,-1,10
 425 -26 425 -26 330 -26 c 128,-1,11
 235 -26 235 -26 167 24 c 0,12,13
 40 118 40 118 40 329 c 7,14,15
 40 498 40 498 165 606 c 0,16,17
 225 658 225 658 296.5 658 c 131,-1,18
 368 658 368 658 410 646 c 128,-1,19
 452 634 452 634 493 590 c 1,20,21
 505 600 505 600 529 622 c 0,22,23
 564 655 564 655 584 655 c 0,24,25
 601 655 601 655 601 626 c 0,26,27
 601 586 601 586 474 484 c 1,28,29
 446 519 446 519 382 556 c 128,-1,30
 318 593 318 593 284 593 c 0,31,32
 250 592 250 592 216 548 c 0,33,34
 141 450 141 450 141 335 c 0,35,36
 141 214 141 214 250 122 c 0,37,38
 351 36 351 36 433 36 c 0,39,40
 453 36 453 36 537 98 c 0,41,42
 603 147 603 147 624 159 c 1,43,-1
 623 -69 l 1,0,1
EndSplineSet
Validated: 1
EndChar

StartChar: D
Encoding: 68 68 37
Width: 641
VWidth: -12
Flags: W
HStem: -21 55<268.645 462.435> 570 44<30.0625 116.727> 583 72<279.934 403.92>
VStem: 135 105<60.1628 550.619> 518 83<134.87 411.747>
LayerCount: 2
Back
Fore
SplineSet
518 236 m 0,0,1
 518 397 518 397 462.5 490 c 128,-1,2
 407 583 407 583 345 583 c 0,3,4
 311 583 311 583 275.5 561.5 c 128,-1,5
 240 540 240 540 240 520 c 2,6,-1
 240 61 l 1,7,8
 350 34 350 34 422 34 c 0,9,10
 449 34 449 34 480 76 c 0,11,12
 518 128 518 128 518 236 c 0,0,1
289.5 -4.5 m 128,-1,14
 233 12 233 12 190 12 c 131,-1,15
 147 12 147 12 126.5 -9 c 128,-1,16
 106 -30 106 -30 87 -82 c 1,17,18
 69 -82 69 -82 64 -63 c 128,-1,19
 59 -44 59 -44 59 -31 c 0,20,21
 59 2 59 2 85.5 33 c 128,-1,22
 112 64 112 64 135 74 c 1,23,-1
 135 530 l 1,24,25
 133 541 133 541 104 555.5 c 128,-1,26
 75 570 75 570 46 570 c 0,27,28
 30 570 30 570 30 590 c 0,29,30
 30 614 30 614 50 614 c 0,31,32
 100 614 100 614 128 596.5 c 128,-1,33
 156 579 156 579 205 579 c 0,34,35
 211 579 211 579 257 617 c 128,-1,36
 303 655 303 655 374 655 c 0,37,38
 464 655 464 655 532.5 562 c 128,-1,39
 601 469 601 469 601 313 c 0,40,41
 601 135 601 135 538 52 c 0,42,43
 483 -21 483 -21 414.5 -21 c 128,-1,13
 346 -21 346 -21 289.5 -4.5 c 128,-1,14
EndSplineSet
Validated: 1
EndChar

StartChar: less
Encoding: 60 60 40
Width: 472
VWidth: -3
Flags: W
HStem: -14 21G<395 409> 302 79<328 439.254>
DStem2: 170 198 136.5 121.5 0.929694 -0.368332<0 282.021>
LayerCount: 2
Back
Fore
SplineSet
286 264 m 0,0,1
 226 235 226 235 170 198 c 1,2,3
 191 189 191 189 276.5 159 c 128,-1,4
 362 129 362 129 406 104.5 c 128,-1,5
 450 80 450 80 450 51.5 c 128,-1,6
 450 23 450 23 436.5 4.5 c 128,-1,7
 423 -14 423 -14 395 -14 c 1,8,9
 395 33 395 33 261 73 c 0,10,11
 207 89 207 89 136.5 121.5 c 128,-1,12
 66 154 66 154 19 195 c 1,13,14
 81 246 81 246 212 313 c 128,-1,15
 343 380 343 380 414 381 c 0,16,17
 445 381 445 381 445 359 c 3,18,19
 445 333 445 333 431 302 c 1,20,21
 335 287 335 287 286 264 c 0,0,1
EndSplineSet
Validated: 1
EndChar

StartChar: greater
Encoding: 62 62 41
Width: 472
VWidth: -3
Flags: W
HStem: -14 21G<59.5 74> 302 79<29.156 137.858>
DStem2: 212 165.5 208 72 0.932174 0.362009<-187.381 91.9323>
LayerCount: 2
Back
Fore
SplineSet
38 302 m 1,0,1
 23 335 23 335 23 358 c 128,-1,2
 23 381 23 381 55 381 c 0,3,4
 126 380 126 380 257 313 c 128,-1,5
 388 246 388 246 450 195 c 1,6,7
 403 154 403 154 332.5 121 c 128,-1,8
 262 88 262 88 208 72 c 0,9,10
 74 34 74 34 74 -14 c 1,11,12
 45 -14 45 -14 32 4.5 c 128,-1,13
 19 23 19 23 19 54 c 0,14,15
 20 86 20 86 92 118 c 0,16,17
 148 143 148 143 212 165.5 c 128,-1,18
 276 188 276 188 298 198 c 1,19,20
 240 235 240 235 180 264 c 0,21,22
 132 287 132 287 38 302 c 1,0,1
EndSplineSet
Validated: 1
EndChar

StartChar: F
Encoding: 70 70 42
Width: 515
VWidth: -14
Flags: W
HStem: -18 56<44.0195 142.244> -2 49<253 389.842> 308 84<72 142> 316 76<79.28 142 253 417.527> 566 73<100.819 145 265.771 398.358>
VStem: 142 111<47.1875 310 392 546.916> 423 31<256.198 303.858 392 438.234>
LayerCount: 2
Back
Fore
SplineSet
485 597 m 1,0,1
 472 545 472 545 462 476 c 0,2,3
 452 400 452 400 452 381 c 0,4,5
 454 341 454 341 454 333 c 3,6,7
 454 226 454 226 423 226 c 1,8,9
 423 300 423 300 418 304 c 0,10,11
 403 316 403 316 369 316 c 0,12,13
 347 316 347 316 253 312 c 1,14,-1
 253 47 l 1,15,16
 337 47 337 47 356 43.5 c 128,-1,17
 375 40 375 40 380 40 c 128,-1,18
 385 40 385 40 390 32.5 c 128,-1,19
 395 25 395 25 395 16 c 128,-1,20
 395 7 395 7 390 0 c 128,-1,21
 385 -7 385 -7 373.5 -7 c 128,-1,22
 362 -7 362 -7 319 -4.5 c 128,-1,23
 276 -2 276 -2 203.5 -2 c 128,-1,24
 131 -2 131 -2 111.5 -10 c 128,-1,25
 92 -18 92 -18 73 -18 c 0,26,27
 43 -18 43 -18 43 5 c 0,28,29
 43 38 43 38 72 38 c 0,30,31
 119 38 119 38 143 50 c 1,32,-1
 142 310 l 1,33,-1
 72 308 l 1,34,-1
 40 392 l 1,35,-1
 142 392 l 1,36,-1
 142 455 l 2,37,38
 142 473 142 473 128.5 519.5 c 128,-1,39
 115 566 115 566 107 566 c 0,40,41
 102 566 102 566 84.5 556.5 c 128,-1,42
 67 547 67 547 62 547 c 0,43,44
 45 547 45 547 45 573 c 0,45,46
 45 585 45 585 87.5 612 c 128,-1,47
 130 639 130 639 139 639 c 3,48,49
 151 639 151 639 185 600 c 0,50,51
 201 582 201 582 213 570 c 1,52,53
 250 611 250 611 287 629 c 0,54,55
 315 643 315 643 357 643 c 0,56,57
 405 643 405 643 485 597 c 1,0,1
310 572 m 0,58,59
 285 572 285 572 271 557 c 128,-1,60
 257 542 257 542 253 529 c 1,61,-1
 253 392 l 1,62,-1
 427 392 l 1,63,-1
 443 521 l 1,64,65
 350 572 350 572 310 572 c 0,58,59
EndSplineSet
Validated: 1
EndChar

StartChar: G
Encoding: 71 71 43
Width: 707
VWidth: -15
Flags: W
HStem: -29 93<303.498 480.119> 590 64<232.857 349.846>
VStem: 40 101<226.142 450.788> 602 65<114.129 224.439>
DStem2: 357 274 377 230 0.935084 0.354427<0 131.952> 461 598 471 454 0.747409 -0.664364<-92.2739 125.571> 540 517 561.5 464.5 0.905263 0.424852<-5.81131 94.0512>
LayerCount: 2
Back
Fore
SplineSet
639 365 m 1,0,1
 632 359 632 359 620 350 c 128,-1,2
 608 341 608 341 598 331 c 1,3,4
 627 302 627 302 638 284 c 0,5,6
 667 238 667 238 667 178 c 0,7,8
 667 66 667 66 539 14 c 0,9,10
 431 -29 431 -29 345 -29 c 0,11,12
 181 -29 181 -29 109 78 c 0,13,14
 40 179 40 179 40 326 c 0,15,16
 42 547 42 547 172 624 c 0,17,18
 223 654 223 654 293 654 c 0,19,20
 398 654 398 654 461 598 c 0,21,22
 519 545 519 545 540 517 c 1,23,24
 577 534 577 534 594 544 c 0,25,26
 611 552 611 552 628 552 c 131,-1,27
 645 552 645 552 645 531 c 0,28,29
 645 509 645 509 627.5 497 c 128,-1,30
 610 485 610 485 561.5 464.5 c 128,-1,31
 513 444 513 444 489 432 c 1,32,33
 487 434 487 434 471 454 c 0,34,35
 361 590 361 590 281 590 c 0,36,37
 231 590 231 590 186 502 c 128,-1,38
 141 414 141 414 141 346 c 0,39,40
 141 212 141 212 230 134 c 0,41,42
 312 64 312 64 393 64 c 0,43,44
 485 64 485 64 569 108 c 0,45,46
 599 124 599 124 602 131 c 0,47,48
 602 190 602 190 575.5 231 c 128,-1,49
 549 272 549 272 499 272 c 0,50,51
 495 272 495 272 475 264 c 0,52,53
 412 239 412 239 377 230 c 1,54,55
 367 237 367 237 364 253 c 128,-1,56
 361 269 361 269 357 274 c 1,57,58
 448 300 448 300 507 331 c 128,-1,59
 566 362 566 362 618 414 c 1,60,61
 635 383 635 383 639 365 c 1,0,1
EndSplineSet
Validated: 1
EndChar

StartChar: H
Encoding: 72 72 44
Width: 852
VWidth: -15
Flags: W
HStem: -22 63<81 142.858 563.902 582.143 705.907 789.886> -17 70<257.27 450.051> -17 53<276.538 452.989> 301 79<255 380.251> 320 78<461.749 587> 580 56<40.626 113.641 253.356 280.185> 585 64<760.112 789.553> 586 49<560.031 587.996>
VStem: 145 110<58.5781 301 380 575.379> 587 107<58.5352 320 398 575.129>
LayerCount: 2
Back
Fore
SplineSet
694 558 m 6,0,1
 695 76 l 2,2,3
 695 58 695 58 763 48 c 0,4,5
 832 37 832 37 832 -19 c 1,6,7
 713 -2 713 -2 645 -2 c 0,8,9
 630 -2 630 -2 609 -9.5 c 128,-1,10
 588 -17 588 -17 554 -17 c 1,11,12
 554 40 554 40 569 45 c 128,-1,13
 584 50 584 50 584 80 c 128,-1,14
 584 110 584 110 587 320 c 1,15,-1
 255 301 l 1,16,-1
 255 72 l 2,17,18
 255 58 255 58 313 53 c 128,-1,19
 371 48 371 48 430 36 c 128,-1,20
 489 24 489 24 489 -17 c 1,21,22
 239 -8 239 -8 226 -8 c 0,23,24
 174 -8 174 -8 116 -15 c 0,25,26
 63 -22 63 -22 20 -22 c 1,27,28
 20 36 20 36 81 41 c 0,29,30
 145 46 145 46 145 67 c 2,31,-1
 145 552 l 2,32,33
 145 580 145 580 84 580 c 0,34,35
 60 580 60 580 40 591.5 c 128,-1,36
 20 603 20 603 20 636 c 1,37,-1
 187 625 l 24,38,-1
 290 637 l 1,39,40
 290 583 290 583 271 578 c 0,41,42
 253 573 253 573 253 552 c 2,43,-1
 253 380 l 1,44,-1
 587 398 l 1,45,46
 588 449 588 449 588 563 c 0,47,48
 588 586 588 586 571 586 c 3,49,50
 553 586 553 586 553 635 c 1,51,52
 583 635 583 635 604.5 632 c 128,-1,53
 626 629 626 629 635 629 c 24,54,-1
 830 649 l 1,55,56
 830 595 830 595 761 585 c 0,57,58
 694 575 694 575 694 558 c 6,0,1
EndSplineSet
Validated: 1
EndChar

StartChar: J
Encoding: 74 74 45
Width: 339
VWidth: -10
Flags: W
HStem: -152 67<103.281 174.47> 577 52<85.1241 180.834>
VStem: 182 117<-42.9441 576.468>
LayerCount: 2
Back
Fore
SplineSet
88 -38 m 1,0,1
 112 -85 112 -85 139 -85 c 128,-1,2
 166 -85 166 -85 174 -69 c 128,-1,3
 182 -53 182 -53 182 -6 c 2,4,-1
 182 541 l 2,5,6
 182 560 182 560 178 577 c 1,7,8
 111 579 111 579 65.5 593 c 128,-1,9
 20 607 20 607 20 635 c 0,10,11
 20 645 20 645 28 654.5 c 128,-1,12
 36 664 36 664 48.5 664 c 128,-1,13
 61 664 61 664 94 646.5 c 128,-1,14
 127 629 127 629 164.5 629 c 128,-1,15
 202 629 202 629 238 645.5 c 128,-1,16
 274 662 274 662 299 662 c 1,17,-1
 299 56 l 2,18,19
 299 -22 299 -22 249.5 -87 c 128,-1,20
 200 -152 200 -152 141 -152 c 0,21,22
 105 -152 105 -152 74.5 -136 c 128,-1,23
 44 -120 44 -120 44 -90 c 0,24,25
 44 -61 44 -61 71 -44 c 0,26,27
 78 -39 78 -39 88 -38 c 1,0,1
EndSplineSet
Validated: 1
EndChar

StartChar: K
Encoding: 75 75 46
Width: 658
VWidth: -15
Flags: W
HStem: -21 45<227.1 311.994 575.537 637.885> -20 56<42.8912 110> 597 46<38.1406 109.224 225.632 293.689 569.66 601.749>
VStem: 110 115<39.3895 296.831 369 595.397>
LayerCount: 2
Back
Fore
SplineSet
74 597 m 128,-1,1
 38 597 38 597 38 622 c 0,2,3
 38 643 38 643 65 643 c 0,4,5
 77 643 77 643 112.5 636 c 128,-1,6
 148 629 148 629 168.5 629 c 128,-1,7
 189 629 189 629 223.5 635 c 128,-1,8
 258 641 258 641 268 641 c 0,9,10
 294 641 294 641 294 622.5 c 128,-1,11
 294 604 294 604 259.5 598 c 128,-1,12
 225 592 225 592 225 582 c 2,13,-1
 225 369 l 1,14,15
 254 388 254 388 339 460 c 0,16,17
 560 646 560 646 580 646 c 0,18,19
 594 646 594 646 602 635 c 0,20,21
 611 623 611 623 613 595 c 1,22,23
 556 582 556 582 420 451 c 0,24,25
 364 397 364 397 349 386 c 1,26,27
 385 352 385 352 441 259.5 c 128,-1,28
 497 167 497 167 541 95.5 c 128,-1,29
 585 24 585 24 603 24 c 0,30,31
 614 24 614 24 626 16 c 0,32,33
 638 10 638 10 638 0 c 0,34,35
 638 -20 638 -20 520 -21 c 0,36,37
 475 -21 475 -21 384 142 c 128,-1,38
 293 305 293 305 259 305 c 0,39,40
 251 305 251 305 238 283 c 128,-1,41
 225 261 225 261 225 241 c 2,42,-1
 225 51 l 2,43,44
 225 43 225 43 246.5 39.5 c 128,-1,45
 268 36 268 36 290 28 c 128,-1,46
 312 20 312 20 312 2 c 128,-1,47
 312 -16 312 -16 286 -16 c 1,48,-1
 169 -8 l 1,49,50
 148 -8 148 -8 109 -14 c 128,-1,51
 70 -20 70 -20 58 -20 c 0,52,53
 30 -20 30 -20 30 -1 c 128,-1,54
 30 18 30 18 42.5 26.5 c 128,-1,55
 55 35 55 35 70 36 c 0,56,57
 110 37 110 37 110 55 c 2,58,-1
 110 577 l 2,59,0
 110 597 110 597 74 597 c 128,-1,1
EndSplineSet
Validated: 1
EndChar

StartChar: L
Encoding: 76 76 47
Width: 651
VWidth: -10
Flags: W
HStem: -18 21G<20 40.5> -10 62<39.5945 143.289 352.401 481.581> -2 54<265.77 429.355> 590 59<53.0625 141.129 259.441 357.5> 591 47<259.441 384.547>
VStem: 144 113<60.7653 582.142> 580 41<-126 -10>
LayerCount: 2
Back
Fore
SplineSet
256 557 m 2,0,-1
 257 76 l 2,1,2
 257 69 257 69 265.5 60.5 c 128,-1,3
 274 52 274 52 299 52 c 0,4,5
 466 52 466 52 548 102 c 0,6,7
 586 126 586 126 597 159 c 1,8,9
 609 160 609 160 614 142 c 0,10,11
 621 124 621 124 621 90 c 2,12,-1
 621 -126 l 1,13,-1
 580 -126 l 1,14,-1
 580 -10 l 1,15,16
 515 -2 515 -2 205 -2 c 0,17,18
 168 -2 168 -2 114.5 -10 c 128,-1,19
 61 -18 61 -18 20 -18 c 1,20,21
 20 17 20 17 39 31 c 128,-1,22
 58 45 58 45 80 47 c 0,23,24
 144 54 144 54 144 73 c 2,25,-1
 144 557 l 2,26,27
 144 585 144 585 84 590 c 0,28,29
 20 595 20 595 20 649 c 1,30,31
 75 649 75 649 123 638 c 0,32,33
 162 629 162 629 185 629 c 131,-1,34
 208 629 208 629 284 638 c 0,35,36
 367 648 367 648 398 649 c 1,37,38
 398 597 398 597 326 591 c 0,39,40
 256 586 256 586 256 557 c 2,0,-1
EndSplineSet
Validated: 1
EndChar

StartChar: M
Encoding: 77 77 48
Width: 863
VWidth: -15
Flags: W
HStem: -16 52<41.86 102.625 171.139 225.656> 571 50<520.236 586.991> 580 56<693.416 738.749> 583 43<104.819 184.987 693.165 738.749> 584 62<270.256 299.098>
VStem: 103 67<40.2109 190.408> 587 106<484.432 570.079> 610 106<98.8945 400.925> 627 113<38.8372 258.599>
LayerCount: 2
Back
Fore
SplineSet
538.5 406 m 128,-1,1
 587 545 587 545 587 558 c 128,-1,2
 587 571 587 571 552 571 c 128,-1,3
 517 571 517 571 517 611 c 1,4,5
 569 621 569 621 607 621 c 128,-1,6
 645 621 645 621 687 628 c 0,7,8
 729 636 729 636 747 636 c 1,9,10
 747 605 747 605 739 593 c 0,11,12
 731 580 731 580 720 580 c 0,13,14
 693 579 693 579 693 559 c 0,15,16
 693 534 693 534 716 325.5 c 128,-1,17
 739 117 739 117 740 70 c 0,18,19
 740 38 740 38 786 33 c 0,20,21
 803 31 803 31 818 19 c 128,-1,22
 833 7 833 7 833 -27 c 1,23,24
 807 -24 807 -24 783 -19 c 0,25,26
 738 -10 738 -10 698 -10 c 0,27,28
 660 -10 660 -10 627 -18 c 0,29,30
 592 -26 592 -26 567 -26 c 1,31,32
 567 8 567 8 576.5 18.5 c 128,-1,33
 586 29 586 29 598 29 c 0,34,35
 627 29 627 29 627 66 c 128,-1,36
 627 103 627 103 610 220 c 128,-1,37
 593 337 593 337 589 403 c 1,38,39
 495 134 495 134 424 -17 c 1,40,41
 380 151 380 151 241 436 c 1,42,43
 224 349 224 349 197 215 c 128,-1,44
 170 81 170 81 170 64 c 3,45,46
 170 38 170 38 203 36 c 0,47,48
 215 36 215 36 226 24.5 c 128,-1,49
 237 13 237 13 237 -19 c 1,50,51
 217 -19 217 -19 195 -16 c 0,52,53
 157 -11 157 -11 129 -11 c 128,-1,54
 101 -11 101 -11 79.5 -16.5 c 128,-1,55
 58 -22 58 -22 30 -22 c 1,56,57
 30 12 30 12 41.5 24.5 c 128,-1,58
 53 37 53 37 67 38 c 0,59,60
 103 41 103 41 103 62 c 128,-1,61
 103 83 103 83 144 304 c 128,-1,62
 185 525 185 525 185 563 c 0,63,64
 185 581 185 581 132 583 c 0,65,66
 73 585 73 585 73 626 c 1,67,-1
 186 626 l 2,68,69
 202 626 202 626 247 636 c 128,-1,70
 292 646 292 646 311 646 c 1,71,72
 311 609 311 609 282 590 c 0,73,74
 273 584 273 584 270 584 c 1,75,76
 415 274 415 274 452 174 c 1,77,0
 490 267 490 267 538.5 406 c 128,-1,1
EndSplineSet
Validated: 1
EndChar

StartChar: O
Encoding: 79 79 49
Width: 747
VWidth: -15
Flags: W
HStem: -17 55<330.115 522.694> 591 57<268.247 446.799>
VStem: 40 124<208.071 455.158> 594 113<152.877 415.446>
LayerCount: 2
Back
Fore
SplineSet
594 264 m 128,-1,1
 594 418 594 418 525.5 504.5 c 128,-1,2
 457 591 457 591 345 591 c 0,3,4
 270 591 270 591 217 520.5 c 128,-1,5
 164 450 164 450 164 341 c 0,6,7
 164 194 164 194 244 116 c 128,-1,8
 324 38 324 38 454 38 c 0,9,10
 494 38 494 38 523 59 c 0,11,0
 594 110 594 110 594 264 c 128,-1,1
430 -17 m 0,12,13
 240 -17 240 -17 140 70.5 c 128,-1,14
 40 158 40 158 40 318.5 c 128,-1,15
 40 479 40 479 135 563.5 c 128,-1,16
 230 648 230 648 397 648 c 0,17,18
 525 648 525 648 616 550 c 128,-1,19
 707 452 707 452 707 322 c 0,20,21
 707 151 707 151 643 67 c 128,-1,22
 579 -17 579 -17 430 -17 c 0,12,13
EndSplineSet
Validated: 1
EndChar

StartChar: N
Encoding: 78 78 50
Width: 716
VWidth: -14
Flags: W
HStem: -15 49<213.512 349.938> -11 57<65.438 139.958 209 335.976> 576 39<43.0349 111.787> 584 54<51.1458 165.679 521.86 584 651 676.75>
VStem: 140 69<49.9648 438> 584 67<3.47559 43 190 587.451>
DStem2: 367 412 209 438 0.683634 -0.729825<-126.99 310.37>
LayerCount: 2
Back
Fore
SplineSet
596 638 m 1,0,-1
 686 645 l 1,1,2
 685 604 685 604 677 595 c 0,3,4
 669 587 669 587 660 587 c 131,-1,5
 651 587 651 587 651 580 c 2,6,-1
 651 -38 l 1,7,8
 617 -13 617 -13 601 11 c 0,9,10
 581 41 581 41 579 42 c 1,11,-1
 579 43 l 1,12,-1
 209 438 l 1,13,-1
 209 64 l 2,14,15
 209 50 209 50 250 47 c 128,-1,16
 291 44 291 44 332 34 c 128,-1,17
 373 24 373 24 373 -15 c 1,18,-1
 195 -7 l 2,19,20
 166 -7 166 -7 131.5 -11 c 128,-1,21
 97 -15 97 -15 51 -15 c 1,22,23
 51 19 51 19 65 31.5 c 128,-1,24
 79 44 79 44 95 46 c 0,25,26
 139 50 139 50 140 69 c 2,27,-1
 140 568 l 2,28,29
 140 578 140 578 135.5 581 c 128,-1,30
 131 584 131 584 119 584 c 128,-1,31
 107 584 107 584 94 580 c 128,-1,32
 81 576 81 576 69 576 c 0,33,34
 30 576 30 576 30 615 c 1,35,36
 48 618 48 618 83 628 c 128,-1,37
 118 638 118 638 156 638 c 3,38,39
 196 638 196 638 209 595 c 24,40,41
 216 572 216 572 367 412 c 128,-1,42
 518 252 518 252 584 190 c 1,43,-1
 584 578 l 2,44,45
 584 588 584 588 547 588 c 0,46,47
 533 588 533 588 521.5 599.5 c 128,-1,48
 510 611 510 611 510 645 c 1,49,-1
 596 638 l 1,0,-1
EndSplineSet
Validated: 1
EndChar

StartChar: Q
Encoding: 81 81 51
Width: 757
VWidth: -7
Flags: W
HStem: -176 61<687.297 745.767> -6 54<328.767 519.994> 602 56<267.283 444.533>
VStem: 40 123<214.305 466.597> 574 108<-114.262 -10.3804> 591 116<159.228 427.089>
LayerCount: 2
Back
Fore
SplineSet
591 274 m 3,0,1
 591 428 591 428 523.5 515 c 128,-1,2
 456 602 456 602 344 602 c 0,3,4
 270 602 270 602 216.5 531 c 128,-1,5
 163 460 163 460 163 351 c 0,6,7
 163 204 163 204 242.5 126 c 128,-1,8
 322 48 322 48 451 48 c 0,9,10
 491 48 491 48 520 69 c 0,11,12
 591 119 591 119 591 274 c 3,0,1
428 -6 m 0,13,14
 239 -6 239 -6 139.5 81 c 128,-1,15
 40 168 40 168 40 328.5 c 128,-1,16
 40 489 40 489 134.5 573.5 c 128,-1,17
 229 658 229 658 394 658 c 0,18,19
 521 658 521 658 614 559.5 c 128,-1,20
 707 461 707 461 707 332 c 0,21,22
 707 134 707 134 626 57 c 1,23,24
 658 48 658 48 671 18 c 0,25,26
 682 -11 682 -11 682 -41 c 3,27,28
 682 -115 682 -115 707 -115 c 0,29,30
 730 -115 730 -115 749 -89 c 128,-1,31
 768 -63 768 -63 781 -63 c 0,32,33
 797 -63 797 -63 797 -86 c 128,-1,34
 797 -109 797 -109 763.5 -142.5 c 128,-1,35
 730 -176 730 -176 694 -176 c 0,36,37
 641 -176 641 -176 610 -146 c 0,38,39
 574 -111 574 -111 574 -56 c 0,40,41
 574 -22 574 -22 563.5 -10 c 128,-1,42
 553 2 553 2 526.5 2 c 128,-1,43
 500 2 500 2 467.5 -2 c 128,-1,44
 435 -6 435 -6 428 -6 c 0,13,14
EndSplineSet
Validated: 1
EndChar

StartChar: R
Encoding: 82 82 52
Width: 690
VWidth: -14
Flags: W
HStem: -18 56<25.373 145.516> -13 72<617.035 670.898> -6 49<258.743 388.842> 3 53<257 371.106> 274 34<303.539 310.938> 557 44<20.0042 112.133> 571 6<203 342>
VStem: 135 122<341.875 534.863> 152 106<56 274 339.654 523.883> 478 105<341.846 525.046>
DStem2: 483 263 475 78 0.560478 -0.828169<2.5761 269.105>
LayerCount: 2
Back
Fore
SplineSet
339.5 49 m 128,-1,1
 366 43 366 43 375 43 c 128,-1,2
 384 43 384 43 389 35.5 c 128,-1,3
 394 28 394 28 394 19 c 128,-1,4
 394 10 394 10 389 2 c 128,-1,5
 384 -6 384 -6 371.5 -6 c 128,-1,6
 359 -6 359 -6 334 -1.5 c 128,-1,7
 309 3 309 3 228 3 c 0,8,9
 147 2 147 2 109 -8 c 128,-1,10
 71 -18 71 -18 53 -18 c 0,11,12
 23 -18 23 -18 23 3 c 0,13,14
 23 15 23 15 31 26.5 c 128,-1,15
 39 38 39 38 53 38 c 0,16,17
 131 38 131 38 146 55 c 1,18,19
 152 74 152 74 152 196 c 0,20,21
 151 318 151 318 147 374 c 0,22,23
 143 424 143 424 135 515 c 0,24,25
 134 526 134 526 99.5 541.5 c 128,-1,26
 65 557 65 557 36 557 c 0,27,28
 20 557 20 557 20 579 c 128,-1,29
 20 601 20 601 37 601 c 0,30,31
 87 601 87 601 120 589 c 128,-1,32
 153 577 153 577 203 577 c 3,33,34
 233 577 233 577 267 614 c 0,35,36
 280 628 280 628 307.5 640 c 128,-1,37
 335 652 335 652 371 652 c 0,38,39
 469 652 469 652 526 593.5 c 128,-1,40
 583 535 583 535 583 434 c 0,41,42
 583 379 583 379 556 333 c 128,-1,43
 529 287 529 287 483 263 c 1,44,45
 496 242 496 242 518 210 c 0,46,47
 555 157 555 157 617 65 c 0,48,49
 618 63 618 63 633 59 c 0,50,51
 675 48 675 48 675 25 c 0,52,53
 675 -13 675 -13 605 -13 c 128,-1,54
 535 -13 535 -13 519 10 c 0,55,56
 503 32 503 32 475 78 c 0,57,58
 363 263 363 263 258 274 c 1,59,-1
 257 56 l 1,60,0
 313 55 313 55 339.5 49 c 128,-1,1
342 571 m 0,61,62
 301 571 301 571 257 527 c 1,63,-1
 258 362 l 1,64,65
 301 308 301 308 376 308 c 0,66,67
 435 308 435 308 456.5 339 c 128,-1,68
 478 370 478 370 478 438.5 c 128,-1,69
 478 507 478 507 445 539 c 128,-1,70
 412 571 412 571 342 571 c 0,61,62
EndSplineSet
Validated: 1
EndChar

StartChar: S
Encoding: 83 83 53
Width: 636
VWidth: -12
Flags: W
HStem: -28 83<284.513 427.585> 246 126<193.109 313.754> 587 69<222.983 318.247> 605 20G<540 551.5>
VStem: 30 51<-93.3164 -68> 77 101<348 501.671> 503 103<148.729 294.734>
DStem2: 30 -70 81 -68 0.312751 0.949835<-13.9492 104.181> 495 550 523 512 0.5547 0.83205<0 83.3962>
LayerCount: 2
Back
Fore
SplineSet
130 163 m 1,0,1
 292 55 292 55 375 55 c 0,2,3
 416 55 416 55 459.5 109 c 128,-1,4
 503 163 503 163 503 222 c 0,5,6
 503 257 503 257 487.5 285 c 128,-1,7
 472 313 472 313 450 313 c 128,-1,8
 428 313 428 313 344 279.5 c 128,-1,9
 260 246 260 246 201 246 c 128,-1,10
 142 246 142 246 109.5 283 c 128,-1,11
 77 320 77 320 77 376 c 0,12,13
 77 504 77 504 149 580 c 128,-1,14
 221 656 221 656 314 656 c 0,15,16
 347 656 347 656 399 623.5 c 128,-1,17
 451 591 451 591 495 550 c 1,18,-1
 524 602 l 1,19,20
 533 625 533 625 547 625 c 0,21,22
 556 625 556 625 565 618.5 c 128,-1,23
 574 612 574 612 574 598 c 128,-1,24
 574 584 574 584 567 577 c 1,25,-1
 523 512 l 2,26,27
 505 485 505 485 467 427 c 1,28,29
 485 430 485 430 507.5 430 c 128,-1,30
 530 430 530 430 552 414 c 128,-1,31
 574 398 574 398 585 372 c 0,32,33
 606 322 606 322 606 264 c 0,34,35
 606 140 606 140 518 52 c 0,36,37
 438 -28 438 -28 345 -28 c 0,38,39
 204 -28 204 -28 108 14 c 1,40,-1
 81 -68 l 1,41,42
 81 -77 81 -77 74 -85.5 c 128,-1,43
 67 -94 67 -94 58 -94 c 128,-1,44
 49 -94 49 -94 39.5 -87 c 128,-1,45
 30 -80 30 -80 30 -70 c 1,46,47
 34 -58 34 -58 74 47 c 0,48,49
 106 130 106 130 130 163 c 1,0,1
237 372 m 0,50,51
 268 372 268 372 372 403 c 0,52,53
 428 420 428 420 448 425 c 1,54,55
 336 587 336 587 255 587 c 0,56,57
 232 587 232 587 205 538 c 128,-1,58
 178 489 178 489 178 428 c 0,59,60
 178 403 178 403 195.5 387.5 c 128,-1,61
 213 372 213 372 237 372 c 0,50,51
EndSplineSet
Validated: 1
EndChar

StartChar: U
Encoding: 85 85 54
Width: 703
VWidth: -15
Flags: W
HStem: -31 74<262.529 409.997 635.348 671.93>
VStem: 84 113<111.234 602.889> 508 112<111.168 601.194>
LayerCount: 2
Back
Fore
SplineSet
84 216 m 1,0,-1
 88 580 l 2,1,2
 88 594 88 594 59 605.5 c 128,-1,3
 30 617 30 617 30 629 c 0,4,5
 30 652 30 652 212 652 c 1,6,7
 203 602 203 602 200.5 533.5 c 128,-1,8
 198 465 198 465 197 211 c 0,9,10
 197 128 197 128 238 85.5 c 128,-1,11
 279 43 279 43 337 43 c 3,12,13
 411 43 411 43 462 84 c 0,14,15
 508 122 508 122 508 195 c 2,16,-1
 506 556 l 2,17,18
 506 592 506 592 473 612 c 0,19,20
 462 618 462 618 462 626 c 0,21,22
 462 642 462 642 511 648 c 128,-1,23
 560 654 560 654 607 654 c 0,24,25
 624 654 624 654 624 577 c 2,26,-1
 620 123 l 2,27,28
 620 66 620 66 654 50 c 128,-1,29
 688 34 688 34 688 19 c 128,-1,30
 688 4 688 4 668.5 -11.5 c 128,-1,31
 649 -27 649 -27 621.5 -27 c 128,-1,32
 594 -27 594 -27 564 -3 c 128,-1,33
 534 21 534 21 520 54 c 1,34,35
 490 17 490 17 415.5 -7 c 128,-1,36
 341 -31 341 -31 284 -31 c 0,37,38
 207 -31 207 -31 145.5 42 c 128,-1,39
 84 115 84 115 84 216 c 1,0,-1
EndSplineSet
Validated: 1
EndChar

StartChar: T
Encoding: 84 84 55
Width: 680
VWidth: -17
Flags: W
HStem: -13 57<484.059 542.186> 7 37<188.976 281.602> 530 82<108.669 289.736 404.129 501.85> 533 69<404.129 615.734> 542 80<72.822 283.784>
VStem: 15 52<493.346 540.883> 290 110<56 523.813> 621 59<613.218 664.951>
LayerCount: 2
Back
Fore
SplineSet
332 7 m 3,0,1
 307 7 307 7 255 -2 c 0,2,3
 191 -14 191 -14 134 -14 c 1,4,5
 134 18 134 18 158.5 30 c 128,-1,6
 183 42 183 42 212 44 c 0,7,8
 290 51 290 51 290 78 c 2,9,-1
 290 515 l 1,10,11
 282 527 282 527 218 534.5 c 128,-1,12
 154 542 154 542 94 542 c 0,13,14
 67 542 67 542 67 470 c 1,15,16
 33 479 33 479 23 493 c 0,17,18
 15 504 15 504 15 523 c 0,19,20
 15 569 15 569 39 595.5 c 128,-1,21
 63 622 63 622 106 622 c 0,22,23
 191 622 191 622 329 612 c 128,-1,24
 467 602 467 602 503 602 c 0,25,26
 621 602 621 602 621 636 c 0,27,28
 621 651 621 651 586 674 c 1,29,-1
 646 713 l 1,30,31
 680 676 680 676 680 660 c 0,32,33
 680 616 680 616 646 576 c 0,34,35
 610 534 610 534 540 533 c 1,36,-1
 427 530 l 2,37,38
 408 530 408 530 404 524 c 128,-1,39
 400 518 400 518 400 515 c 2,40,-1
 400 78 l 2,41,42
 401 51 401 51 485 44 c 0,43,44
 517 42 517 42 543 30.5 c 128,-1,45
 569 19 569 19 569 -13 c 1,46,-1
 332 7 l 3,0,1
EndSplineSet
Validated: 1
EndChar

StartChar: V
Encoding: 86 86 56
Width: 609
VWidth: -15
Flags: W
VStem: 530 79<520.107 640.004>
DStem2: 185 564 100 510 0.415559 -0.909566<-95.9746 175.994 442.887 471.653>
LayerCount: 2
Back
Fore
SplineSet
20 622 m 0,0,1
 20 638 20 638 49.5 646.5 c 128,-1,2
 79 655 79 655 118 655 c 0,3,4
 139 655 139 655 185 564 c 128,-1,5
 231 473 231 473 292.5 330.5 c 128,-1,6
 354 188 354 188 381 135 c 1,7,8
 392 162 392 162 468 350 c 0,9,10
 530 504 530 504 530 528 c 3,11,12
 530 536 530 536 520 568 c 0,13,14
 509 600 509 600 509 630 c 0,15,16
 509 652 509 652 575 652 c 0,17,18
 609 652 609 652 609 622 c 0,19,20
 609 565 609 565 501.5 264 c 128,-1,21
 394 -37 394 -37 362 -37 c 0,22,23
 338 -37 338 -37 268 115 c 0,24,25
 212 239 212 239 162 360 c 0,26,27
 112 482 112 482 100 510 c 0,28,29
 77 565 77 565 47 589 c 0,30,31
 20 611 20 611 20 622 c 0,0,1
EndSplineSet
Validated: 1
EndChar

StartChar: W
Encoding: 87 87 57
Width: 959
VWidth: -14
Flags: W
VStem: 887 72<511.213 636.677>
DStem2: 344 138 408 122 0.342494 0.93952<1.61655 350.845> 643 392 518 448 0.389368 -0.921082<-100.252 281.248>
LayerCount: 2
Back
Fore
SplineSet
887 530 m 0,0,1
 887 532 887 532 877 564 c 128,-1,2
 867 596 867 596 867 626 c 0,3,4
 867 649 867 649 928 649 c 0,5,6
 959 649 959 649 959 620 c 0,7,8
 959 563 959 563 862.5 262 c 128,-1,9
 766 -39 766 -39 737 -39 c 0,10,11
 707 -37 707 -37 606 221 c 0,12,13
 549 370 549 370 518 448 c 1,14,15
 468 281 468 281 408 122 c 128,-1,16
 348 -37 348 -37 326 -37 c 0,17,18
 287 -35 287 -35 92 512 c 0,19,20
 72 567 72 567 31 604 c 0,21,22
 20 614 20 614 20 622 c 0,23,24
 20 638 20 638 47 646.5 c 128,-1,25
 74 655 74 655 110 655 c 0,26,27
 130 655 130 655 170.5 565.5 c 128,-1,28
 211 476 211 476 265.5 333 c 128,-1,29
 320 190 320 190 344 138 c 1,30,31
 413 331 413 331 442.5 409 c 128,-1,32
 472 487 472 487 490 544 c 0,33,34
 506 594 506 594 527 640 c 1,35,36
 557 594 557 594 643 392 c 0,37,38
 727 196 727 196 755 134 c 1,39,40
 887 499 887 499 887 530 c 0,0,1
EndSplineSet
Validated: 1
EndChar

StartChar: X
Encoding: 88 88 58
Width: 603
VWidth: -15
Flags: W
HStem: -18 78<35.8203 113.389> 546 100<58.2852 115.73>
DStem2: 317 415 101 546 0.49885 -0.866688<-228.335 0 54.3523 91.8882 139.199 357.546> 170 147 200.5 60 0.466974 0.884271<-89.6742 135.853 305.63 493.335>
LayerCount: 2
Back
Fore
SplineSet
556 91 m 5,0,1
 583 73 583 73 583 64 c 4,2,3
 583 48 583 48 555.5 15.5 c 132,-1,4
 528 -17 528 -17 495 -17 c 7,5,6
 435 -17 435 -17 398 30 c 4,7,8
 374 60 374 60 292 240 c 5,9,10
 255 138 255 138 200.5 60 c 132,-1,11
 146 -18 146 -18 101 -18 c 4,12,13
 68 -18 68 -18 44 -2 c 132,-1,14
 20 14 20 14 20 30 c 4,15,16
 20 55 20 55 70 60 c 4,17,18
 113 65 113 65 170 147 c 4,19,20
 220 219 220 219 252 294 c 5,21,22
 235 329 235 329 182 421 c 132,-1,23
 129 513 129 513 101 546 c 5,24,25
 20 546 20 546 20 575 c 4,26,27
 20 596 20 596 53.5 621 c 132,-1,28
 87 646 87 646 106 646 c 4,29,30
 182 646 182 646 317 415 c 5,31,32
 422 643 422 643 498 643 c 4,33,34
 512 643 512 643 526 629 c 132,-1,35
 540 615 540 615 540 603 c 4,36,37
 540 576 540 576 494 552 c 4,38,39
 458 533 458 533 412 460.5 c 132,-1,40
 366 388 366 388 347 347 c 5,41,42
 484 73 484 73 501 64 c 5,43,44
 522 68 522 68 556 91 c 5,0,1
EndSplineSet
Validated: 1
EndChar

StartChar: Y
Encoding: 89 89 59
Width: 446
VWidth: -15
Flags: W
HStem: -8 56<94.543 193.35 308 388.318>
VStem: 194 114<48 332.312> 374 72<518.505 633.558>
DStem2: 148.5 576 59 551 0.464007 -0.885832<-80.3125 251.682> 269 355 308 301 0.47016 0.882581<0 266.181>
LayerCount: 2
Back
Fore
SplineSet
194 48 m 1,0,-1
 197 143 l 1,1,2
 197 209 197 209 191 299 c 1,3,4
 153 364 153 364 116 442 c 128,-1,5
 79 520 79 520 59 551 c 128,-1,6
 39 582 39 582 10 595 c 1,7,8
 10 617 10 617 40 631 c 0,9,10
 72 646 72 646 96 646 c 1,11,12
 121 624 121 624 148.5 576 c 128,-1,13
 176 528 176 528 210.5 460.5 c 128,-1,14
 245 393 245 393 269 355 c 1,15,16
 332 459 332 459 354 509 c 0,17,18
 374 553 374 553 374 587 c 3,19,20
 374 620 374 620 382 634 c 128,-1,21
 390 648 390 648 418 648 c 128,-1,22
 446 648 446 648 446 615 c 0,23,24
 446 566 446 566 422 515 c 0,25,26
 386 440 386 440 346 368 c 0,27,28
 320 320 320 320 308 301 c 1,29,-1
 303 147 l 1,30,31
 303 98 303 98 308 48 c 0,32,33
 310 47 310 47 332 45 c 0,34,35
 389 40 389 40 389 22 c 0,36,37
 389 -8 389 -8 366 -8 c 0,38,39
 357 -8 357 -8 328 -1.5 c 128,-1,40
 299 5 299 5 265 5 c 128,-1,41
 231 5 231 5 169.5 -1 c 128,-1,42
 108 -7 108 -7 105.5 -7.5 c 128,-1,43
 103 -8 103 -8 99 -8 c 0,44,45
 86 -8 86 -8 86 10 c 0,46,47
 86 42 86 42 194 48 c 1,0,-1
EndSplineSet
Validated: 1
EndChar

StartChar: Z
Encoding: 90 90 60
Width: 640
VWidth: -10
Flags: W
HStem: -14 21G<30 240> 0 114<215 547.219> 553 105<71.8516 347.927> 561 83<81.116 347.927 350.073 458> 569 82<96.8125 455.666>
VStem: 544 66<-120.277 -7> 544 50<-144.155 -8.87036>
LayerCount: 2
Back
Fore
SplineSet
529 651 m 3,0,1
 557 651 557 651 557 621 c 3,2,3
 557 604 557 604 472 478 c 0,4,5
 400 371 400 371 215 114 c 1,6,7
 472 114 472 114 528 108 c 0,8,9
 610 99 610 99 610 73 c 0,10,11
 610 -26 610 -26 594 -100 c 0,12,13
 582 -149 582 -149 558 -149 c 0,14,15
 544 -149 544 -149 544 -108 c 128,-1,16
 544 -67 544 -67 549 -7 c 1,17,18
 262 0 262 0 240 0 c 2,19,-1
 30 -14 l 1,20,21
 30 20 30 20 346 418 c 0,22,23
 452 551 452 551 458 561 c 1,24,25
 383 569 383 569 349 569 c 132,-1,26
 315 569 315 569 239 561 c 128,-1,27
 163 553 163 553 108 553 c 0,28,29
 86 553 86 553 61 518 c 0,30,31
 55 510 55 510 39 481 c 1,32,33
 39 658 39 658 79 658 c 3,34,35
 146 658 146 658 304 651 c 128,-1,36
 462 644 462 644 479.5 644 c 131,-1,37
 497 644 497 644 506 647 c 0,38,39
 515 651 515 651 529 651 c 3,0,1
EndSplineSet
Validated: 1
EndChar

StartChar: degree
Encoding: 176 176 70
Width: 312
VWidth: -29
Flags: W
HStem: 409 51<136.825 199.934> 552 50<112.439 178.387>
VStem: 40 70<487.061 550.09> 200 72<460.331 530.603>
LayerCount: 2
Back
Fore
SplineSet
180 528 m 128,-1,1
 160 552 160 552 139.5 552 c 128,-1,2
 119 552 119 552 114.5 549 c 128,-1,3
 110 546 110 546 110 535 c 0,4,5
 110 508 110 508 135 484 c 128,-1,6
 160 460 160 460 180 460 c 128,-1,7
 200 460 200 460 200 482 c 131,-1,0
 200 504 200 504 180 528 c 128,-1,1
245 440.5 m 128,-1,9
 218 409 218 409 168.5 409 c 128,-1,10
 119 409 119 409 79.5 439.5 c 128,-1,11
 40 470 40 470 40 512.5 c 128,-1,12
 40 555 40 555 72 578.5 c 128,-1,13
 104 602 104 602 151 602 c 128,-1,14
 198 602 198 602 235 573.5 c 128,-1,15
 272 545 272 545 272 520 c 0,16,8
 272 472 272 472 245 440.5 c 128,-1,9
EndSplineSet
Validated: 1
EndChar

StartChar: asciicircum
Encoding: 94 94 74
Width: 442
VWidth: -28
Flags: W
HStem: 364 32<366.715 397.349>
DStem2: 102.5 461.5 148 428 0.880538 0.473975<-24.8841 109.349>
LayerCount: 2
Back
Fore
SplineSet
216 532 m 1,0,1
 254 514 254 514 286 488 c 0,2,3
 318 464 318 464 333 444 c 0,4,5
 370 396 370 396 414 396 c 1,6,7
 414 364 414 364 355 364 c 0,8,9
 318 364 318 364 254 430 c 0,10,11
 225 460 225 460 213 468 c 1,12,13
 176 450 176 450 148 428 c 0,14,15
 122 406 122 406 120 398 c 26,16,-1
 111 373 l 1,17,18
 62 366 62 366 59 366 c 0,19,20
 40 366 40 366 40 384 c 0,21,22
 41 415 41 415 102.5 461.5 c 128,-1,23
 164 508 164 508 216 532 c 1,0,1
EndSplineSet
Validated: 1
EndChar

StartChar: acute
Encoding: 180 180 86
Width: 208
VWidth: -34
Flags: W
HStem: 401 208
VStem: 15 178
LayerCount: 2
Back
Fore
SplineSet
153 609 m 0,0,1
 193 609 193 609 193 577 c 0,2,3
 193 548 193 548 126.5 474.5 c 128,-1,4
 60 401 60 401 15 401 c 1,5,6
 40 488 40 488 82 548 c 4,7,8
 126 609 126 609 153 609 c 0,0,1
EndSplineSet
Validated: 1
EndChar

StartChar: grave
Encoding: 96 96 87
Width: 208
VWidth: -34
Flags: W
HStem: 401 208
VStem: 15 178
LayerCount: 2
Back
Fore
SplineSet
15 577 m 0,0,1
 15 609 15 609 55 609 c 0,2,3
 84 609 84 609 130.5 543 c 128,-1,4
 177 477 177 477 193 401 c 1,5,6
 149 401 149 401 82 474.5 c 132,-1,7
 15 548 15 548 15 577 c 0,0,1
EndSplineSet
Validated: 1
EndChar

StartChar: dotlessi
Encoding: 305 305 104
Width: 234
VWidth: -4
Flags: W
HStem: -18 21G<59.9361 78.5>
VStem: 60 93<66 325.091>
LayerCount: 2
Back
Fore
SplineSet
224 75 m 0,0,1
 224 58 224 58 160.5 20 c 128,-1,2
 97 -18 97 -18 60 -18 c 1,3,-1
 59 295 l 2,4,5
 59 321 59 321 34.5 326 c 128,-1,6
 10 331 10 331 10 347 c 3,7,8
 10 362 10 362 66 378 c 0,9,10
 120 394 120 394 153 397 c 1,11,-1
 153 66 l 1,12,13
 179 76 179 76 206 103 c 1,14,15
 224 81 224 81 224 75 c 0,0,1
EndSplineSet
Validated: 1
EndChar

StartChar: asciitilde
Encoding: 126 126 112
Width: 471
VWidth: -14
Flags: W
HStem: 236 78<275.98 401.105> 302 77<78.2579 217.861>
LayerCount: 2
Back
Fore
SplineSet
155 379 m 0,0,1
 200 379 200 379 258 346 c 0,2,3
 313 314 313 314 336 314 c 0,4,5
 382 314 382 314 416 334 c 0,6,7
 454 355 454 355 459 369 c 1,8,9
 458 288 458 288 388 250 c 0,10,11
 362 236 362 236 323 236 c 0,12,13
 274 236 274 236 233 269 c 128,-1,14
 192 302 192 302 154 302 c 0,15,16
 125 302 125 302 91 286 c 0,17,18
 56 270 56 270 4 227 c 1,19,20
 8 301 8 301 49 340 c 0,21,22
 89 379 89 379 155 379 c 0,0,1
EndSplineSet
Validated: 1
EndChar

StartChar: Ccedilla
Encoding: 199 199 119
Width: 662
VWidth: -12
Flags: W
HStem: -198 54<313.923 392.7> -26 62<349.25 405.995> 593 65<240.734 357.444>
VStem: 43 101<233.909 453.71> 408 86<-129.03 -25.5698> 588 38<-69 25>
LayerCount: 2
Back
Fore
SplineSet
333 -26 m 0,0,1
 238 -26 238 -26 170 24 c 0,2,3
 43 118 43 118 43 329 c 3,4,5
 43 498 43 498 168 606 c 0,6,7
 228 658 228 658 299.5 658 c 131,-1,8
 371 658 371 658 413 646 c 128,-1,9
 455 634 455 634 496 590 c 1,10,11
 508 600 508 600 532 622 c 0,12,13
 567 655 567 655 587 655 c 0,14,15
 604 655 604 655 604 626 c 0,16,17
 604 586 604 586 477 484 c 1,18,19
 449 519 449 519 385 556 c 128,-1,20
 321 593 321 593 287 593 c 0,21,22
 253 592 253 592 219 548 c 0,23,24
 144 450 144 450 144 335 c 0,25,26
 144 214 144 214 253 122 c 0,27,28
 354 36 354 36 436 36 c 0,29,30
 456 36 456 36 540 98 c 0,31,32
 606 147 606 147 627 159 c 1,33,-1
 626 -69 l 1,34,35
 623 -72 623 -72 619 -76 c 0,36,37
 605 -91 605 -91 595 -91 c 1,38,39
 588 -87 588 -87 588 -79 c 0,40,41
 584 3 584 3 582 25 c 1,42,43
 528 -9 528 -9 483 -16 c 1,44,45
 494 -32 494 -32 494 -58 c 0,46,47
 494 -115 494 -115 454.5 -156.5 c 128,-1,48
 415 -198 415 -198 359 -198 c 0,49,50
 326 -198 326 -198 294 -171.5 c 128,-1,51
 262 -145 262 -145 262 -111 c 0,52,53
 262 -95 262 -95 277.5 -95 c 128,-1,54
 293 -95 293 -95 312 -119.5 c 128,-1,55
 331 -144 331 -144 335 -144 c 0,56,57
 408 -144 408 -144 408 -71 c 0,58,59
 408 -55 408 -55 402 -25 c 9,60,61
 396 -26 396 -26 333 -26 c 0,0,1
EndSplineSet
Validated: 1
EndChar

StartChar: ccedilla
Encoding: 231 231 120
Width: 410
VWidth: -3
Flags: W
HStem: -153 54<136.565 220.002> -19 67<195.289 239> 310 73<160.558 274.363>
VStem: 30 102<109.219 278.232> 239 85<-79.9958 -18>
LayerCount: 2
Back
Fore
SplineSet
216 -19 m 16,0,1
 131 -19 131 -19 80.5 41.5 c 128,-1,2
 30 102 30 102 30 192.5 c 128,-1,3
 30 283 30 283 83 333 c 128,-1,4
 136 383 136 383 231 383 c 0,5,6
 295 383 295 383 334.5 362.5 c 128,-1,7
 374 342 374 342 374 317 c 0,8,9
 374 290 374 290 345 271 c 0,10,11
 336 265 336 265 316 253 c 1,12,13
 292 274 292 274 280 284 c 0,14,15
 248 310 248 310 198 310 c 3,16,17
 172 310 172 310 152 275 c 0,18,19
 132 239 132 239 132 183 c 3,20,21
 132 128 132 128 172 88 c 0,22,23
 214 48 214 48 273 48 c 0,24,25
 303 48 303 48 322.5 78.5 c 128,-1,26
 342 109 342 109 355 109 c 0,27,28
 374 109 374 109 384 97 c 1,29,30
 352 34 352 34 320 10 c 1,31,32
 324 -1 324 -1 324 -14 c 0,33,34
 324 -71 324 -71 285 -112 c 128,-1,35
 246 -153 246 -153 186 -153 c 0,36,37
 150 -153 150 -153 119 -127 c 128,-1,38
 88 -101 88 -101 88 -66 c 0,39,40
 88 -50 88 -50 101.5 -50 c 128,-1,41
 115 -50 115 -50 134.5 -74.5 c 128,-1,42
 154 -99 154 -99 159 -99 c 0,43,44
 239 -99 239 -99 239 -18 c 9,45,46
 236 -19 236 -19 216 -19 c 16,0,1
EndSplineSet
Validated: 1
EndChar

StartChar: zero
Encoding: 48 48 121
Width: 466
VWidth: -14
Flags: W
HStem: -6 70<195.679 285.426> 560 74<172.043 260.13>
VStem: 40 112<149.676 476.567> 313 113<133.543 467.654>
LayerCount: 2
Back
Fore
SplineSet
163 511.5 m 128,-1,1
 153 463 153 463 152 383 c 3,2,3
 152 144 152 144 178 107 c 0,4,5
 207 64 207 64 255 64 c 0,6,7
 284 64 284 64 298.5 117 c 128,-1,8
 313 170 313 170 313 244 c 0,9,10
 313 409 313 409 290 484.5 c 128,-1,11
 267 560 267 560 207 560 c 0,12,0
 173 560 173 560 163 511.5 c 128,-1,1
234 -6 m 3,13,14
 176 -6 176 -6 130 40 c 0,15,16
 40 132 40 132 40 294 c 0,17,18
 40 530 40 530 143 606 c 0,19,20
 182 634 182 634 239 634 c 128,-1,21
 296 634 296 634 341 584 c 0,22,23
 426 490 426 490 426 299 c 0,24,25
 426 158 426 158 378.5 76 c 128,-1,26
 331 -6 331 -6 234 -6 c 3,13,14
EndSplineSet
Validated: 1
EndChar

StartChar: one
Encoding: 49 49 122
Width: 392
VWidth: -14
Flags: W
HStem: -7 65<43.4907 163 260 369.112> -7 52<34.2034 154.36 262.549 377.5>
VStem: 163 97<58 534.998>
LayerCount: 2
Back
Fore
SplineSet
191 0 m 1,0,-1
 51 -7 l 2,1,2
 34 -7 34 -7 34 16.5 c 128,-1,3
 34 40 34 40 43 45 c 0,4,5
 58 52 58 52 163 58 c 1,6,-1
 162 525 l 2,7,8
 162 535 162 535 152.5 535 c 128,-1,9
 143 535 143 535 101 521.5 c 128,-1,10
 59 508 59 508 51 508 c 128,-1,11
 43 508 43 508 41 510 c 0,12,13
 36 515 36 515 36 553 c 0,14,15
 36 563 36 563 121.5 597 c 128,-1,16
 207 631 207 631 259 646 c 1,17,-1
 260 56 l 1,18,19
 342 56 342 56 370 43 c 0,20,21
 378 39 378 39 378 23 c 0,22,23
 378 -9 378 -9 349 -9 c 1,24,-1
 191 0 l 1,0,-1
EndSplineSet
Validated: 1
EndChar

StartChar: two
Encoding: 50 50 123
Width: 529
VWidth: -14
Flags: W
HStem: -15 21G<63 102 457 473.5> -4 104<207.617 441.273> 542 101<179.539 304.988>
VStem: 52 85<387.129 493.898> 335 100<394.455 513.374> 445 44<107.469 174.296>
DStem2: 165.5 169 206 100 0.594843 0.803842<-31.3739 307.579>
LayerCount: 2
Back
Fore
SplineSet
445 137 m 0,0,1
 445 181 445 181 465 181 c 0,2,3
 474 181 474 181 481.5 174.5 c 128,-1,4
 489 168 489 168 489 156 c 0,5,6
 489 -15 489 -15 458 -15 c 0,7,8
 456 -15 456 -15 369.5 -9.5 c 128,-1,9
 283 -4 283 -4 223.5 -4 c 128,-1,10
 164 -4 164 -4 40 -17 c 1,11,12
 86 63 86 63 165.5 169 c 128,-1,13
 245 275 245 275 290 345 c 128,-1,14
 335 415 335 415 335 456 c 128,-1,15
 335 497 335 497 306 519.5 c 128,-1,16
 277 542 277 542 237.5 542 c 128,-1,17
 198 542 198 542 172.5 513 c 128,-1,18
 147 484 147 484 137 449 c 0,19,20
 110 356 110 356 85 356 c 0,21,22
 68 356 68 356 60 368.5 c 128,-1,23
 52 381 52 381 52 394 c 0,24,25
 52 483 52 483 112 563 c 128,-1,26
 172 643 172 643 247 643 c 128,-1,27
 322 643 322 643 378.5 595 c 128,-1,28
 435 547 435 547 435 470 c 0,29,30
 435 403 435 403 324 253 c 0,31,32
 284 199 284 199 206 100 c 1,33,34
 424 102 424 102 430 107 c 0,35,36
 445 122 445 122 445 137 c 0,0,1
EndSplineSet
Validated: 8388609
EndChar

StartChar: three
Encoding: 51 51 124
Width: 475
VWidth: -13
Flags: W
HStem: -25 71<196.476 309.013> 530 90<112 294>
VStem: 77 35<486.269 530> 334 113<71.9686 234.597>
DStem2: 72 78 81 20 0.302244 0.953231<-100.327 -21.5002> 294 530 269 388 0.577236 0.816577<-130.385 0>
LayerCount: 2
Back
Fore
SplineSet
92 486 m 0,0,1
 82 486 82 486 77 515 c 128,-1,2
 72 544 72 544 72 570 c 2,3,-1
 72 620 l 1,4,-1
 433 620 l 1,5,-1
 269 388 l 1,6,7
 320 374 320 374 373 336 c 0,8,9
 447 283 447 283 447 185 c 128,-1,10
 447 87 447 87 399 31 c 128,-1,11
 351 -25 351 -25 257 -25 c 0,12,13
 199 -25 199 -25 114 34 c 0,14,15
 91 50 91 50 90 50 c 0,16,17
 86 43 86 43 81 20 c 0,18,19
 69 -36 69 -36 57 -36 c 0,20,21
 41 -36 41 -36 41 -18 c 128,-1,22
 41 0 41 0 72 78 c 1,23,-1
 98 160 l 1,24,25
 132 116 132 116 182 78 c 0,26,27
 224 46 224 46 260 46 c 3,28,29
 334 46 334 46 334 171 c 0,30,31
 334 212 334 212 306 242 c 0,32,33
 252 299 252 299 132 312 c 1,34,-1
 294 530 l 1,35,-1
 112 530 l 1,36,37
 112 486 112 486 92 486 c 0,0,1
EndSplineSet
Validated: 1
EndChar

StartChar: four
Encoding: 52 52 125
Width: 513
VWidth: -14
Flags: W
HStem: -8 49<188.051 294.083 394.001 489.357> 198 87<144 294> 209 84<392 427.079> 592 38<392 457.929>
VStem: 294 98<51.6768 204 293 507>
LayerCount: 2
Back
Fore
SplineSet
144 285 m 1,0,-1
 294 289 l 1,1,-1
 294 507 l 1,2,3
 228 390 228 390 144 285 c 1,0,-1
279 -2 m 128,-1,5
 228 -8 228 -8 207 -8 c 128,-1,6
 186 -8 186 -8 186 7 c 128,-1,7
 186 22 186 22 200 41 c 1,8,9
 287 41 287 41 295 54 c 1,10,-1
 294 204 l 1,11,-1
 42 198 l 1,12,-1
 42 273 l 1,13,14
 108 326 108 326 164 414 c 0,15,16
 219 500 219 500 270 630 c 1,17,-1
 385 630 l 2,18,19
 458 630 458 630 458 610 c 0,20,21
 458 600 458 600 433.5 596 c 128,-1,22
 409 592 409 592 392 592 c 1,23,-1
 392 293 l 1,24,25
 416 295 416 295 430.5 320.5 c 128,-1,26
 445 346 445 346 473 346 c 1,27,28
 473 248 473 248 451 230 c 128,-1,29
 429 212 429 212 392 209 c 1,30,-1
 393 59 l 1,31,32
 414 46 414 46 486 46 c 1,33,34
 494 22 494 22 494 14 c 128,-1,35
 494 6 494 6 489.5 -1 c 128,-1,36
 485 -8 485 -8 469 -8 c 128,-1,37
 453 -8 453 -8 407.5 -2 c 128,-1,38
 362 4 362 4 346 4 c 128,-1,4
 330 4 330 4 279 -2 c 128,-1,5
EndSplineSet
Validated: 1
EndChar

StartChar: five
Encoding: 53 53 126
Width: 441
VWidth: -14
Flags: W
HStem: -8 63<134.312 263.2> 324 97<144.1 296> 557 67<142.83 305.751>
VStem: 40 103<397 549.125> 310 91<123.014 276.324>
LayerCount: 2
Back
Fore
SplineSet
40 484 m 1,0,-1
 42 599 l 1,1,2
 101 624 101 624 296 624 c 0,3,4
 359 624 359 624 376 586 c 0,5,6
 384 568 384 568 384 543 c 0,7,8
 384 493 384 493 359 493 c 0,9,10
 344 493 344 493 316 525 c 0,11,12
 290 557 290 557 226 557 c 0,13,14
 192 557 192 557 141 543 c 1,15,16
 142 523 142 523 142 490 c 0,17,18
 142 405 142 405 143 397 c 1,19,20
 192 421 192 421 270 421 c 0,21,22
 322 421 322 421 361.5 366.5 c 128,-1,23
 401 312 401 312 401 243 c 0,24,25
 401 136 401 136 343.5 64 c 128,-1,26
 286 -8 286 -8 206 -8 c 0,27,28
 154 -8 154 -8 97 11.5 c 128,-1,29
 40 31 40 31 40 51.5 c 128,-1,30
 40 72 40 72 52 104 c 128,-1,31
 64 136 64 136 77 155 c 1,32,33
 104 110 104 110 113 98 c 0,34,35
 144 56 144 56 213 55 c 0,36,37
 253 55 253 55 281.5 99.5 c 128,-1,38
 310 144 310 144 310 188 c 0,39,40
 310 324 310 324 181 324 c 0,41,42
 112 324 112 324 42 258 c 1,43,44
 40 332 40 332 40 484 c 1,0,-1
EndSplineSet
Validated: 1
EndChar

StartChar: six
Encoding: 54 54 127
Width: 467
VWidth: -13
Flags: W
HStem: -13 69<190.142 307.202> 340 63<189.933 298.904> 569 67<201.107 324.808>
VStem: 50 96<106.883 365.884> 337 102<91.3093 294.817>
LayerCount: 2
Back
Fore
SplineSet
244 636 m 3,0,1
 328 636 328 636 375 609 c 128,-1,2
 422 582 422 582 422 555 c 128,-1,3
 422 528 422 528 411.5 513.5 c 128,-1,4
 401 499 401 499 385 499 c 0,5,6
 360 499 360 499 336 534 c 128,-1,7
 312 569 312 569 253 569 c 0,8,9
 226 568 226 568 214 560 c 0,10,11
 174 533 174 533 160 368 c 1,12,13
 198 403 198 403 278 403 c 0,14,15
 334 403 334 403 372 369 c 0,16,17
 439 309 439 309 439 177 c 0,18,19
 439 111 439 111 389 49 c 128,-1,20
 339 -13 339 -13 255 -13 c 0,21,22
 147 -13 147 -13 96 62 c 0,23,24
 50 131 50 131 50 221 c 0,25,26
 50 416 50 416 98.5 526 c 128,-1,27
 147 636 147 636 244 636 c 3,0,1
175 301.5 m 128,-1,29
 146 263 146 263 146 196.5 c 131,-1,30
 146 130 146 130 175 93 c 128,-1,31
 204 56 204 56 259 56 c 0,32,33
 299 56 299 56 318 94 c 128,-1,34
 337 132 337 132 337 193 c 128,-1,35
 337 254 337 254 314 297 c 128,-1,36
 291 340 291 340 247.5 340 c 128,-1,28
 204 340 204 340 175 301.5 c 128,-1,29
EndSplineSet
Validated: 1
EndChar

StartChar: seven
Encoding: 55 55 128
Width: 495
VWidth: -14
Flags: W
HStem: -15 21G<41 54 358 385> -4 48<58.0167 153.836> 547 81<161.98 339.648>
DStem2: 166 81 260 66 0.369033 0.929416<15.948 477.527>
LayerCount: 2
Back
Fore
SplineSet
74 628 m 1,0,1
 95 621 95 621 264 621 c 3,2,3
 386 621 386 621 467 634 c 1,4,5
 467 581 467 581 449 542 c 0,6,7
 442 526 442 526 354.5 305 c 128,-1,8
 267 84 267 84 260 66 c 1,9,10
 260 54 260 54 322 44 c 0,11,12
 346 40 346 40 365.5 25.5 c 128,-1,13
 385 11 385 11 385 -15 c 1,14,15
 331 -13 331 -13 289 -3.5 c 128,-1,16
 247 6 247 6 225.5 6 c 128,-1,17
 204 6 204 6 135.5 -4 c 128,-1,18
 67 -14 67 -14 41 -15 c 1,19,20
 41 12 41 12 57.5 26.5 c 128,-1,21
 74 41 74 41 95 44 c 0,22,23
 154 52 154 52 166 81 c 0,24,25
 192 140 192 140 266.5 330.5 c 128,-1,26
 341 521 341 521 341 525.5 c 128,-1,27
 341 530 341 530 334.5 538.5 c 128,-1,28
 328 547 328 547 316 547 c 0,29,30
 207 545 207 545 133 514 c 0,31,32
 82 493 82 493 70 459 c 1,33,34
 55 459 55 459 43 531 c 1,35,36
 43 576 43 576 52 602 c 128,-1,37
 61 628 61 628 74 628 c 1,0,1
EndSplineSet
Validated: 1
EndChar

StartChar: eight
Encoding: 56 56 129
Width: 492
VWidth: -14
Flags: W
HStem: -22 61<193.878 338.61> 570 63<192.971 304.733>
VStem: 41 111<82.3618 223.075> 79 91<423.647 546.826> 323 86<400.574 551.539> 375 89<77.272 210.082>
DStem2: 340 342 250 287 0.746445 -0.665447<1.03286 146.626>
LayerCount: 2
Back
Fore
SplineSet
170 485 m 0,0,1
 170 416 170 416 263 372 c 1,2,3
 290 377 290 377 310 416 c 0,4,5
 323 442 323 442 323 487 c 0,6,7
 323 570 323 570 247 570 c 0,8,9
 214 570 214 570 192 547.5 c 128,-1,10
 170 525 170 525 170 485 c 0,0,1
375 160 m 3,11,12
 374 188 374 188 346 218 c 0,13,14
 306 260 306 260 250 287 c 1,15,16
 223 278 223 278 187.5 240 c 128,-1,17
 152 202 152 202 152 153.5 c 128,-1,18
 152 105 152 105 182 72 c 128,-1,19
 212 39 212 39 267 39 c 128,-1,20
 322 39 322 39 348.5 71.5 c 128,-1,21
 375 104 375 104 375 160 c 3,11,12
79 489 m 3,22,23
 79 561 79 561 132 597 c 128,-1,24
 185 633 185 633 255.5 633 c 128,-1,25
 326 633 326 633 367.5 590 c 128,-1,26
 409 547 409 547 409 490.5 c 128,-1,27
 409 434 409 434 396 399.5 c 128,-1,28
 383 365 383 365 340 342 c 1,29,30
 400 304 400 304 432 263 c 128,-1,31
 464 222 464 222 464 152.5 c 128,-1,32
 464 83 464 83 403 30.5 c 128,-1,33
 342 -22 342 -22 248.5 -22 c 128,-1,34
 155 -22 155 -22 98 24 c 128,-1,35
 41 70 41 70 41 160 c 0,36,37
 41 211 41 211 77.5 253.5 c 128,-1,38
 114 296 114 296 177 323 c 1,39,40
 121 354 121 354 100 394 c 128,-1,41
 79 434 79 434 79 489 c 3,22,23
EndSplineSet
Validated: 1
EndChar

StartChar: nine
Encoding: 57 57 130
Width: 459
VWidth: -13
Flags: W
HStem: -12 59<181.255 297.676> 237 62<179.445 289.797> 566 64<179.498 294.367>
VStem: 50 101<328.189 522.275> 329 102<133.989 499.658>
LayerCount: 2
Back
Fore
SplineSet
222 -12 m 0,0,1
 159 -12 159 -12 106.5 20.5 c 128,-1,2
 54 53 54 53 54 78.5 c 128,-1,3
 54 104 54 104 72.5 125 c 128,-1,4
 91 146 91 146 104 146 c 0,5,6
 122 146 122 146 157 96.5 c 128,-1,7
 192 47 192 47 234 47 c 4,8,9
 293 47 293 47 308 87 c 0,10,11
 332 151 332 151 332 284 c 1,12,13
 274 237 274 237 222 237 c 0,14,15
 137 237 137 237 93.5 286.5 c 128,-1,16
 50 336 50 336 50 417.5 c 128,-1,17
 50 499 50 499 96.5 564.5 c 128,-1,18
 143 630 143 630 225 630 c 0,19,20
 326 630 326 630 378.5 562 c 128,-1,21
 431 494 431 494 431 321 c 128,-1,22
 431 148 431 148 380.5 68 c 128,-1,23
 330 -12 330 -12 222 -12 c 0,0,1
329 432 m 3,24,25
 329 566 329 566 232 566 c 0,26,27
 151 566 151 566 151 436 c 0,28,29
 151 334 151 334 192 310 c 0,30,31
 211 299 211 299 244.5 299 c 128,-1,32
 278 299 278 299 303.5 338.5 c 128,-1,33
 329 378 329 378 329 432 c 3,24,25
EndSplineSet
Validated: 1
EndChar

StartChar: underscore
Encoding: 95 95 131
Width: 541
VWidth: 13
Flags: W
HStem: -31 83<20.3453 477.746> -7 64<18.9648 198.406>
LayerCount: 2
Back
Fore
SplineSet
8 -7 m 1,0,1
 8 4 8 4 16 27 c 128,-1,2
 24 50 24 50 31 57 c 1,3,4
 40 57 40 57 82 56 c 0,5,6
 166 52 166 52 295 52 c 0,7,8
 428 52 428 52 484 55 c 0,9,10
 522 57 522 57 524 57 c 1,11,12
 524 10 524 10 520.5 5 c 128,-1,13
 517 0 517 0 481 -8 c 0,14,15
 377 -31 377 -31 258.5 -31 c 128,-1,16
 140 -31 140 -31 8 -7 c 1,0,1
EndSplineSet
Validated: 1
EndChar

StartChar: equal
Encoding: 61 61 132
Width: 569
VWidth: -10
Flags: W
HStem: 140 84<52.6924 509.969> 149 80<38.6836 266.109 307.88 527.759> 284 84<61.75 517.969> 292 82<38.79 273.434 314.88 523.625>
LayerCount: 2
Back
Fore
SplineSet
18 149 m 1,0,1
 22 171 22 171 41 229 c 1,2,3
 56 224 56 224 301 224 c 1,4,-1
 535 229 l 1,5,6
 535 190 535 190 530.5 177.5 c 128,-1,7
 526 165 526 165 510 149 c 1,8,-1
 508 149 l 1,9,10
 397 140 397 140 305 140 c 0,11,12
 123 140 123 140 18 149 c 1,0,1
518 292 m 1,13,-1
 516 292 l 1,14,15
 404 284 404 284 312 284 c 0,16,17
 176 284 176 284 24 292 c 1,18,19
 26 306 26 306 34 338 c 0,20,21
 37 350 37 350 49 374 c 1,22,23
 73 368 73 368 309 368 c 1,24,-1
 542 374 l 1,25,26
 542 316 542 316 518 292 c 1,13,-1
EndSplineSet
Validated: 1
EndChar

StartChar: hyphen
Encoding: 45 45 133
Width: 344
VWidth: -10
Flags: W
HStem: 218 83<43.3369 297.573> 227 83<44.7832 185.224 189.503 203.224 207.503 299.217>
VStem: 30 284
LayerCount: 2
Back
Fore
SplineSet
314 309 m 1,0,1
 314 263 314 263 296 226 c 1,2,3
 236 218 236 218 188 218 c 0,4,5
 99 218 99 218 30 227 c 1,6,7
 30 277 30 277 48 310 c 1,8,9
 117 301 117 301 206 301 c 0,10,11
 254 301 254 301 314 309 c 1,0,1
EndSplineSet
Validated: 1
EndChar

StartChar: plus
Encoding: 43 43 134
Width: 448
VWidth: -4
Flags: W
HStem: 234 64<29.2861 198 267 412.243>
VStem: 192 70<77.8665 230 294 450.343>
LayerCount: 2
Back
Fore
SplineSet
261 459 m 1,0,1
 266 426 266 426 267 294 c 1,2,-1
 419 298 l 1,3,4
 419 279 419 279 413.5 260 c 128,-1,5
 408 241 408 241 398 234 c 1,6,7
 335 231 335 231 267 230 c 1,8,-1
 262 91 l 1,9,10
 253 81 253 81 233 76 c 0,11,12
 222 73 222 73 192 70 c 1,13,-1
 199 230 l 1,14,-1
 20 234 l 1,15,16
 20 248 20 248 28 272 c 0,17,18
 35 292 35 292 39 298 c 1,19,20
 46 298 46 298 198 294 c 1,21,-1
 192 439 l 1,22,23
 194 444 194 444 217.5 451.5 c 128,-1,24
 241 459 241 459 261 459 c 1,0,1
EndSplineSet
Validated: 1
EndChar

StartChar: exclam
Encoding: 33 33 135
Width: 244
VWidth: -14
Flags: W
HStem: -37 149<80.0214 155.641>
VStem: 40 164<6.1106 70.168> 53 122<291.252 621.875>
LayerCount: 2
Back
Fore
SplineSet
53 515 m 0,0,1
 53 643 53 643 114 643 c 0,2,3
 175 643 175 643 175 521 c 3,4,5
 175 400 175 400 162 280 c 0,6,7
 148 160 148 160 123 160 c 0,8,9
 98 160 98 160 76 286 c 0,10,11
 54 412 54 412 53 515 c 0,0,1
EndSplineSet
Refer: 24 46 N 1 0 0 1 0 -17 2
Validated: 8388609
EndChar

StartChar: bar
Encoding: 124 124 136
Width: 144
VWidth: -3
Flags: W
VStem: 40 80<-142.884 211.385 417.027 746.805> 47 81<-78.76 679.754>
LayerCount: 2
Back
Fore
SplineSet
39 742 m 1,0,1
 83 774 83 774 119 774 c 1,2,-1
 128 311 l 1,3,-1
 120 -124 l 1,4,5
 104 -144 104 -144 73 -154 c 0,6,7
 58 -159 58 -159 40 -160 c 1,8,-1
 47 290 l 1,9,-1
 39 742 l 1,0,1
EndSplineSet
Validated: 1
EndChar

StartChar: slash
Encoding: 47 47 137
Width: 276
VWidth: -14
Flags: W
VStem: 186 60<590.519 675.498>
DStem2: 30 -32 90 -98 0.202795 0.979221<-29.1041 572.161>
LayerCount: 2
Back
Fore
SplineSet
246 637 m 4,0,1
 246 628 246 628 173 278 c 4,2,3
 100 -74 100 -74 90 -98 c 5,4,5
 66 -86 66 -86 50 -70 c 4,6,7
 42 -62 42 -62 30 -32 c 5,8,9
 41 -7 41 -7 108.5 319 c 132,-1,10
 176 645 176 645 186 705 c 5,11,12
 210 690 210 690 225 674 c 4,13,14
 246 652 246 652 246 637 c 4,0,1
EndSplineSet
Validated: 1
EndChar

StartChar: backslash
Encoding: 92 92 138
Width: 273
VWidth: -14
Flags: W
VStem: 26 61<585.874 667.182>
DStem2: 87 698 100 280 0.21501 -0.976612<164.034 411.019 745.707 766.043>
LayerCount: 2
Back
Fore
SplineSet
87 698 m 1,0,1
 97 638 97 638 165 315.5 c 128,-1,2
 233 -7 233 -7 244 -31 c 1,3,4
 221 -76 221 -76 199 -88 c 0,5,6
 185 -96 185 -96 183 -97 c 1,7,-1
 100 280 l 1,8,9
 26 621 26 621 26 633 c 0,10,11
 26 644 26 644 47 666 c 0,12,13
 65 685 65 685 87 698 c 1,0,1
EndSplineSet
Validated: 1
EndChar

StartChar: numbersign
Encoding: 35 35 139
Width: 569
VWidth: -14
Flags: W
HStem: 215 84<194 291> 221 83<38.332 90 399 524.25> 360 82<38.3125 129 230 331 436 527.988>
DStem2: 35 25 96 -45 0.256317 0.966593<-13.2643 203.55 305.601 347.902 453.051 628.604> 236 28 299 -40 0.262338 0.964976<-22.7301 193.914 304.27 344.329 451.003 621.451>
LayerCount: 2
Back
Fore
SplineSet
90 221 m 1,0,1
 21 224 21 224 18 225 c 1,2,3
 19 246 19 246 41 304 c 1,4,-1
 112 302 l 1,5,-1
 129 360 l 1,6,-1
 24 366 l 1,7,8
 25 379 25 379 34 407 c 128,-1,9
 43 435 43 435 49 444 c 1,10,11
 98 444 98 444 149 442 c 1,12,13
 201 651 l 1,14,15
 237 631 237 631 246 622 c 0,16,17
 263 604 263 604 263 580 c 1,18,19
 250 520 250 520 230 442 c 1,20,-1
 353 442 l 1,21,22
 358 460 358 460 407 657 c 1,23,24
 421 650 421 650 443 626 c 0,25,26
 462 605 462 605 467 584 c 1,27,28
 455 521 455 521 436 441 c 1,29,30
 490 443 490 443 542 445 c 1,31,32
 542 425 542 425 535 402 c 0,33,34
 523 365 523 365 516 365 c 2,35,-1
 416 360 l 1,36,-1
 399 299 l 1,37,-1
 535 304 l 1,38,39
 534 267 534 267 528 253 c 0,40,41
 518 225 518 225 508 224 c 1,42,43
 447 221 447 221 377 219 c 1,44,45
 316 1 316 1 299 -40 c 1,46,47
 272 -28 272 -28 262 -15.5 c 128,-1,48
 252 -3 252 -3 236 28 c 1,49,-1
 291 214 l 1,50,51
 200 214 200 214 170 215 c 1,52,53
 96 -45 l 1,54,55
 44 -10 44 -10 35 25 c 1,56,57
 37 29 37 29 90 221 c 1,0,1
210 360 m 1,58,-1
 194 299 l 1,59,60
 233 298 233 298 315 298 c 1,61,-1
 331 359 l 1,62,-1
 210 360 l 1,58,-1
EndSplineSet
Validated: 1
EndChar

StartChar: at
Encoding: 64 64 140
Width: 728
VWidth: -14
Flags: W
HStem: -31 62<312.371 506.564> 152 17<340 420> 369 47<289.002 319.438> 436 70<289.851 418.426> 577 57<251.58 429.799>
VStem: 24 123<201.456 441.05> 189 106<171.203 234.091 405.649 432.441> 432 104<345.396 421.719> 577 113<177.381 405.184>
LayerCount: 2
Back
Fore
SplineSet
413 -31 m 0,0,1
 223 -31 223 -31 123.5 56 c 128,-1,2
 24 143 24 143 24 303.5 c 128,-1,3
 24 464 24 464 119 549 c 128,-1,4
 214 634 214 634 380 634 c 0,5,6
 508 634 508 634 599 535 c 128,-1,7
 690 436 690 436 690 306 c 0,8,9
 690 135 690 135 626 52 c 128,-1,10
 562 -31 562 -31 413 -31 c 0,0,1
547 101 m 1,11,12
 505 101 505 101 445 138 c 0,13,14
 422 152 422 152 420 152 c 128,-1,15
 418 152 418 152 408 143 c 0,16,17
 360 97 360 97 284 97 c 0,18,19
 250 97 250 97 231 105 c 1,20,21
 308 31 308 31 437 31 c 0,22,23
 510 31 510 31 547 101 c 1,11,12
200 508 m 128,-1,25
 147 439 147 439 147 334.5 c 128,-1,26
 147 230 147 230 189 158 c 1,27,-1
 189 173 l 2,28,29
 189 219 189 219 227 253 c 0,30,31
 264 286 264 286 310 302 c 0,32,33
 432 343 432 343 432 372 c 0,34,35
 432 436 432 436 354 436 c 0,36,37
 303 436 303 436 289 418 c 0,38,39
 289 417 289 417 297 416 c 0,40,41
 320 413 320 413 320 396 c 0,42,43
 320 369 320 369 256 369 c 0,44,45
 232 369 232 369 210.5 382.5 c 128,-1,46
 189 396 189 396 189 421.5 c 128,-1,47
 189 447 189 447 222 468 c 0,48,49
 282 506 282 506 366 506 c 0,50,51
 447 506 447 506 503 470 c 0,52,53
 536 448 536 448 536 418 c 2,54,-1
 537 204 l 2,55,56
 537 189 537 189 572 177 c 1,57,58
 577 204 577 204 577 257 c 0,59,60
 577 407 577 407 508.5 492 c 128,-1,61
 440 577 440 577 328 577 c 0,62,24
 253 577 253 577 200 508 c 128,-1,25
340 169 m 0,63,64
 401 169 401 169 429 289 c 1,65,66
 385 276 385 276 340 250 c 128,-1,67
 295 224 295 224 295 194 c 0,68,69
 295 169 295 169 340 169 c 0,63,64
EndSplineSet
Validated: 1
EndChar

StartChar: oe
Encoding: 339 339 141
Width: 666
VWidth: 13
Flags: W
HStem: 0 62<211.787 300.247> 7 64<439.526 558.739> 304 63<138.095 236.259> 321 48<426.342 480.633>
VStem: 44 86<159.176 288.424>
DStem2: 503 262 579 250 0.887534 0.460742<-110.835 0 89.8679 129.348>
LayerCount: 2
Back
Fore
SplineSet
622 113 m 1,0,1
 620 110 620 110 613 96 c 0,2,3
 592 56 592 56 578 44 c 0,4,5
 544 10 544 10 471 7 c 0,6,7
 398 7 398 7 352 58 c 1,8,9
 311 0 311 0 237 0 c 128,-1,10
 163 0 163 0 103.5 57.5 c 128,-1,11
 44 115 44 115 44 195.5 c 128,-1,12
 44 276 44 276 92 321.5 c 128,-1,13
 140 367 140 367 223 367 c 0,14,15
 282 367 282 367 335 314 c 1,16,17
 376 369 376 369 470 369 c 3,18,19
 520 369 520 369 556 338 c 0,20,21
 571 325 571 325 585 311 c 1,22,23
 605 322 605 322 618 322 c 0,24,25
 640 322 640 322 640 292 c 0,26,27
 640 276 640 276 579 250 c 0,28,29
 466 201 466 201 407 162 c 1,30,31
 415 112 415 112 440 91.5 c 128,-1,32
 465 71 465 71 512 71 c 0,33,34
 558 71 558 71 571 97 c 128,-1,35
 584 123 584 123 597 123 c 0,36,37
 603 123 603 123 610.5 118.5 c 128,-1,38
 618 114 618 114 622 113 c 1,0,1
306 120 m 0,39,40
 306 183 306 183 267 243.5 c 128,-1,41
 228 304 228 304 190 304 c 128,-1,42
 152 304 152 304 141 293 c 128,-1,43
 130 282 130 282 130 247 c 0,44,45
 130 181 130 181 177 121.5 c 128,-1,46
 224 62 224 62 257 62 c 128,-1,47
 290 62 290 62 298 72 c 128,-1,48
 306 82 306 82 306 120 c 0,39,40
446 321 m 0,49,50
 435 321 435 321 420 285 c 128,-1,51
 405 249 405 249 402 216 c 1,52,53
 464 238 464 238 503 262 c 1,54,55
 474 321 474 321 446 321 c 0,49,50
EndSplineSet
Validated: 1
EndChar

StartChar: question
Encoding: 63 63 142
Width: 345
VWidth: -14
Flags: W
HStem: -35 149<80.0214 155.641> 564 69<75.8911 183.876>
VStem: 40 164<8.1106 72.168> 94 38<161 254.381> 250 55<391.504 492.56>
LayerCount: 2
Back
Fore
SplineSet
86 304 m 1,0,1
 86 331 86 331 168 357 c 0,2,3
 198 366 198 366 224 388 c 0,4,5
 250 410 250 410 250 441 c 0,6,7
 250 472 250 472 208 518 c 0,8,9
 166 564 166 564 143 564 c 0,10,11
 140 564 140 564 122 554 c 0,12,13
 104 544 104 544 89 544 c 0,14,15
 72 544 72 544 64 558 c 0,16,17
 56 572 56 572 56 590 c 0,18,19
 56 609 56 609 73 621 c 0,20,21
 90 633 90 633 109 633 c 0,22,23
 151 632 151 632 199 606 c 0,24,25
 305 548 305 548 305 424 c 0,26,27
 305 374 305 374 278 340 c 0,28,29
 250 306 250 306 218 292 c 0,30,31
 132 255 132 255 132 224 c 2,32,-1
 133 161 l 1,33,-1
 94 161 l 1,34,-1
 86 304 l 1,0,1
EndSplineSet
Refer: 24 46 S 1 0 0 1 0 -15 2
Validated: 8388609
EndChar

StartChar: percent
Encoding: 37 37 143
Width: 696
VWidth: -14
Flags: W
HStem: -23 56<524.533 599.361> 236 54<466.841 551.109> 317 55<143.251 218.6> 574 56<85.7952 169.522>
VStem: 5 75<448.289 566.715> 223 78<388.192 507.342> 383 78<108.43 226.721> 429 53<582.209 602.56> 604 74<45.9072 168.746>
DStem2: 185 41 237 -36 0.40328 0.915077<-20.4627 529.722>
LayerCount: 2
Back
Fore
SplineSet
204 2 m 0,0,1
 185 32 185 32 185 41 c 1,2,3
 200 70 200 70 307 331 c 0,4,5
 386 523 386 523 429 642 c 1,6,7
 461 617 461 617 472 603 c 0,8,9
 480 589 480 589 482 564 c 0,10,11
 482 556 482 556 364 270 c 0,12,13
 253 0 253 0 237 -36 c 1,14,15
 218 -20 218 -20 204 2 c 0,0,1
646 28 m 128,-1,17
 614 -23 614 -23 550 -23 c 128,-1,18
 486 -23 486 -23 434.5 26 c 128,-1,19
 383 75 383 75 383 143.5 c 128,-1,20
 383 212 383 212 425 251 c 128,-1,21
 467 290 467 290 538 290 c 0,22,23
 589 290 589 290 633.5 243 c 128,-1,24
 678 196 678 196 678 158 c 0,25,16
 678 79 678 79 646 28 c 128,-1,17
597.5 40.5 m 128,-1,27
 604 48 604 48 604 90.5 c 128,-1,28
 604 133 604 133 573 184.5 c 128,-1,29
 542 236 542 236 510 236 c 128,-1,30
 478 236 478 236 469.5 227 c 128,-1,31
 461 218 461 218 461 189 c 0,32,33
 461 133 461 133 499.5 83 c 128,-1,34
 538 33 538 33 564.5 33 c 128,-1,26
 591 33 591 33 597.5 40.5 c 128,-1,27
268 368.5 m 128,-1,36
 235 317 235 317 170.5 317 c 128,-1,37
 106 317 106 317 55.5 366 c 128,-1,38
 5 415 5 415 5 483.5 c 128,-1,39
 5 552 5 552 46 591 c 128,-1,40
 87 630 87 630 156 630 c 0,41,42
 209 630 209 630 255 583.5 c 128,-1,43
 301 537 301 537 301 499 c 0,44,35
 301 420 301 420 268 368.5 c 128,-1,36
216.5 379.5 m 128,-1,46
 223 387 223 387 223 429.5 c 128,-1,47
 223 472 223 472 191.5 523 c 128,-1,48
 160 574 160 574 129 574 c 128,-1,49
 98 574 98 574 89 565.5 c 128,-1,50
 80 557 80 557 80 529 c 0,51,52
 80 473 80 473 118.5 422.5 c 128,-1,53
 157 372 157 372 183.5 372 c 128,-1,45
 210 372 210 372 216.5 379.5 c 128,-1,46
EndSplineSet
Validated: 1
EndChar

StartChar: ampersand
Encoding: 38 38 144
Width: 644
VWidth: -14
Flags: W
HStem: -30 52<142.674 269.555> 336 48<446.189 481.265 555.672 579.843> 586 51<158.104 248.288>
VStem: 15 87<66.2852 243.075> 79 69<466.957 576.022> 274 57<438.182 559.345> 489 61<278.019 332.905>
DStem2: 216 416 137 362 0.721216 -0.69271<-111.626 -19.5698 61.6626 292.076 356.152 561.013>
LayerCount: 2
Back
Fore
SplineSet
91 424 m 128,-1,1
 79 459 79 459 79 508.5 c 128,-1,2
 79 558 79 558 112 597.5 c 128,-1,3
 145 637 145 637 197 637 c 128,-1,4
 249 637 249 637 290 596.5 c 128,-1,5
 331 556 331 556 331 497 c 0,6,7
 331 456 331 456 318 428 c 128,-1,8
 305 400 305 400 265 378 c 1,9,10
 300 344 300 344 426 213 c 1,11,12
 489 311 489 311 489 320.5 c 128,-1,13
 489 330 489 330 481.5 333 c 128,-1,14
 474 336 474 336 463 336 c 128,-1,15
 452 336 452 336 446 341 c 128,-1,16
 440 346 440 346 440 361 c 0,17,18
 440 384 440 384 512.5 384 c 128,-1,19
 585 384 585 384 585 364 c 0,20,21
 585 349 585 349 580 343.5 c 128,-1,22
 575 338 575 338 568 337.5 c 128,-1,23
 561 337 561 337 555.5 333.5 c 128,-1,24
 550 330 550 330 550 320 c 128,-1,25
 550 310 550 310 525.5 264 c 128,-1,26
 501 218 501 218 469 173 c 1,27,28
 505 136 505 136 576 44 c 0,29,30
 588 30 588 30 602 28 c 0,31,32
 627 24 627 24 627 4 c 0,33,34
 627 -34 627 -34 563 -34 c 0,35,36
 520 -34 520 -34 501 -10 c 0,37,38
 444 59 444 59 406 99 c 1,39,40
 277 -30 277 -30 194 -30 c 128,-1,41
 111 -30 111 -30 63 20 c 128,-1,42
 15 70 15 70 15 159 c 0,43,44
 15 211 15 211 50.5 272 c 128,-1,45
 86 333 86 333 137 362 c 1,46,0
 103 389 103 389 91 424 c 128,-1,1
102 159 m 0,47,48
 102 97 102 97 128.5 59.5 c 128,-1,49
 155 22 155 22 202 22 c 0,50,51
 281 22 281 22 368 134 c 1,52,53
 355 148 355 148 187 316 c 1,54,55
 102 247 102 247 102 159 c 0,47,48
148 522 m 0,56,57
 148 479 148 479 216 416 c 1,58,59
 274 441 274 441 274 484.5 c 128,-1,60
 274 528 274 528 254 557 c 128,-1,61
 234 586 234 586 206 586 c 0,62,63
 148 586 148 586 148 522 c 0,56,57
EndSplineSet
Validated: 1
EndChar

StartChar: dollar
Encoding: 36 36 145
Width: 487
VWidth: -15
Flags: W
HStem: -18 60<217 255> 592 50<217 254>
VStem: 10 87<436.648 526.569> 165 50<-66.7871 -28 69 280 407 568 642 689.966> 255 55<-59.7324 -18 86 240 375.49 571 647 693.813> 362 98<118.95 272>
LayerCount: 2
Back
Fore
SplineSet
97 482 m 0,0,1
 97 438 97 438 168 407 c 1,2,3
 165 560 165 560 165 568 c 1,4,5
 97 519 97 519 97 482 c 0,0,1
253 668 m 2,6,7
 253 679 253 679 271.5 690.5 c 128,-1,8
 290 702 290 702 308 702 c 1,9,-1
 310 647 l 1,10,11
 354 642 354 642 404 605.5 c 128,-1,12
 454 569 454 569 454 534.5 c 128,-1,13
 454 500 454 500 444.5 486 c 128,-1,14
 435 472 435 472 418 472 c 0,15,16
 399 472 399 472 352 532 c 0,17,18
 332 558 332 558 313 571 c 1,19,20
 317 457 317 457 317 367 c 1,21,22
 460 327 460 327 460 217 c 0,23,24
 460 74 460 74 310 6 c 1,25,-1
 310 -38 l 2,26,27
 310 -51 310 -51 289.5 -59 c 128,-1,28
 269 -67 269 -67 254 -67 c 1,29,30
 254 -42 254 -42 255 -18 c 1,31,-1
 215 -22 l 1,32,-1
 215 -43 l 2,33,34
 215 -55 215 -55 196 -65 c 128,-1,35
 177 -75 177 -75 164 -75 c 1,36,37
 164 -51 164 -51 165 -28 c 1,38,39
 9 -23 9 -23 9 75 c 0,40,41
 9 112 9 112 19.5 125.5 c 128,-1,42
 30 139 30 139 65 154 c 1,43,44
 100 104 100 104 166 69 c 1,45,46
 168 149 168 149 168 292 c 1,47,48
 99 309 99 309 54.5 347 c 128,-1,49
 10 385 10 385 10 462 c 0,50,51
 10 580 10 580 164 626 c 1,52,53
 163 649 163 649 163 667 c 0,54,55
 163 673 163 673 179.5 685 c 128,-1,56
 196 697 196 697 214 697 c 1,57,-1
 216 642 l 1,58,-1
 254 646 l 1,59,-1
 253 668 l 2,6,7
255 43 m 1,60,-1
 259 272 l 1,61,62
 233 278 233 278 222 280 c 1,63,64
 220 158 220 158 217 44 c 1,65,66
 237 42 237 42 244 42 c 131,-1,67
 251 42 251 42 255 43 c 1,60,-1
258 375 m 1,68,-1
 255 592 l 1,69,-1
 235 592 l 25,70,-1
 217 589 l 1,71,72
 219 532 219 532 221 382 c 1,73,74
 233 380 233 380 258 375 c 1,68,-1
362 156 m 0,75,76
 362 196 362 196 315 240 c 1,77,78
 315 134 315 134 313 86 c 1,79,80
 362 135 362 135 362 156 c 0,75,76
EndSplineSet
Validated: 1
EndChar

StartChar: parenleft
Encoding: 40 40 146
Width: 253
VWidth: -14
Flags: W
VStem: 30 95<147.563 465.148>
LayerCount: 2
Back
Fore
SplineSet
223 -30 m 7,0,1
 223 -50 223 -50 196 -50 c 4,2,3
 162 -50 162 -50 99 48 c 4,4,5
 30 155 30 155 30 296 c 4,6,7
 30 459 30 459 97 567 c 4,8,9
 157 664 157 664 201 664 c 4,10,11
 223 664 223 664 223 645 c 4,12,13
 223 634 223 634 174 553.5 c 132,-1,14
 125 473 125 473 125 294 c 4,15,16
 125 132 125 132 174 59 c 132,-1,17
 223 -14 223 -14 223 -30 c 7,0,1
EndSplineSet
Validated: 1
EndChar

StartChar: parenright
Encoding: 41 41 147
Width: 253
VWidth: -14
Flags: W
VStem: 128 95<147.809 465.148>
LayerCount: 2
Back
Fore
SplineSet
30 -30 m 7,0,1
 30 -14 30 -14 79 59 c 132,-1,2
 128 132 128 132 128 294 c 4,3,4
 128 473 128 473 79 553.5 c 132,-1,5
 30 634 30 634 30 645 c 4,6,7
 30 664 30 664 52 664 c 4,8,9
 96 664 96 664 156 567 c 4,10,11
 223 459 223 459 223 296 c 4,12,13
 223 156 223 156 154 48 c 4,14,15
 91 -50 91 -50 57 -50 c 4,16,17
 30 -50 30 -50 30 -30 c 7,0,1
EndSplineSet
Validated: 1
EndChar

StartChar: asterisk
Encoding: 42 42 148
Width: 338
VWidth: -32
Flags: W
HStem: 463 73<36.1299 101 233 298.344>
VStem: 22 289<488.314 528.647>
LayerCount: 2
Back
Fore
SplineSet
169 612 m 3,0,1
 211 612 211 612 211 529 c 1,2,3
 256 536 256 536 271 536 c 3,4,5
 311 536 311 536 311 514 c 0,6,7
 311 498 311 498 301 488 c 0,8,9
 288 473 288 473 254 467 c 0,10,11
 234 463 234 463 233 463 c 1,12,13
 235 460 235 460 249 442 c 0,14,15
 276 407 276 407 276 382 c 128,-1,16
 276 357 276 357 251 357 c 0,17,18
 228 357 228 357 189 404 c 0,19,20
 170 427 170 427 169 429 c 1,21,22
 165 424 165 424 155 409 c 0,23,24
 134 377 134 377 119 366 c 0,25,26
 107 357 107 357 95 357 c 128,-1,27
 83 357 83 357 75 365.5 c 128,-1,28
 67 374 67 374 67 389.5 c 128,-1,29
 67 405 67 405 101 462 c 1,30,31
 88 462 88 462 64 470 c 0,32,33
 40 480 40 480 36 484 c 0,34,35
 22 497 22 497 22 514 c 0,36,37
 22 536 22 536 60 536 c 0,38,-1
 124 529 l 1,39,40
 140 612 140 612 169 612 c 3,0,1
EndSplineSet
Validated: 1
EndChar

StartChar: germandbls
Encoding: 223 223 149
Width: 496
VWidth: -14
Flags: W
HStem: -27 52<240.875 334.715> 570 64<214.142 327.955>
VStem: 78 105<49.3762 530.541> 361 93<411.549 535.611> 376 92<70.4509 218.249>
LayerCount: 2
Back
Fore
SplineSet
238 8 m 131,-1,1
 238 19 238 19 242 25 c 1,2,3
 309 25 309 25 342.5 53 c 128,-1,4
 376 81 376 81 376 147 c 0,5,6
 376 205 376 205 328 247 c 0,7,8
 270 298 270 298 214 324 c 1,9,10
 361 410 361 410 361 449 c 0,11,12
 361 570 361 570 262 570 c 0,13,14
 225 570 225 570 205 536 c 128,-1,15
 185 502 185 502 185 444 c 2,16,-1
 183 -34 l 1,17,18
 152 -15 152 -15 110 -10 c 128,-1,19
 68 -5 68 -5 38.5 -0.5 c 128,-1,20
 9 4 9 4 9 15 c 0,21,22
 9 30 9 30 57 50 c 0,23,24
 77 58 77 58 78 60 c 1,25,-1
 78 418 l 2,26,27
 78 524 78 524 135.5 579 c 128,-1,28
 193 634 193 634 290 634 c 0,29,30
 361 634 361 634 407.5 580 c 128,-1,31
 454 526 454 526 454 456 c 0,32,33
 454 413 454 413 430 383 c 128,-1,34
 406 353 406 353 355 324 c 1,35,36
 392 295 392 295 412 276 c 0,37,38
 468 222 468 222 468 138 c 0,39,40
 468 89 468 89 427 48 c 0,41,42
 352 -27 352 -27 252 -27 c 1,43,0
 238 -3 238 -3 238 8 c 131,-1,1
EndSplineSet
Validated: 1
EndChar

StartChar: braceleft
Encoding: 123 123 150
Width: 351
VWidth: -14
Flags: W
VStem: 140 89<99.1797 243.036 390.239 531.396>
LayerCount: 2
Back
Fore
SplineSet
296 -50 m 3,0,1
 271 -50 271 -50 208 23 c 0,2,3
 140 104 140 104 140 186 c 0,4,5
 140 244 140 244 74 272 c 0,6,7
 7 298 7 298 7 310 c 3,8,9
 7 325 7 325 72 354 c 0,10,11
 96 365 96 365 117 388.5 c 128,-1,12
 138 412 138 412 138 447 c 128,-1,13
 138 482 138 482 158 523.5 c 128,-1,14
 178 565 178 565 205 595 c 0,15,16
 267 664 267 664 298 664 c 0,17,18
 324 664 324 664 324 645 c 0,19,20
 324 624 324 624 276 572 c 0,21,22
 229 520 229 520 229 443 c 128,-1,23
 229 366 229 366 142 309 c 1,24,25
 197 274 197 274 215 246 c 0,26,27
 229 224 229 224 229 184 c 0,28,29
 229 110 229 110 309 4 c 0,30,31
 324 -16 324 -16 324 -27 c 0,32,33
 324 -50 324 -50 296 -50 c 3,0,1
EndSplineSet
Validated: 1
EndChar

StartChar: braceright
Encoding: 125 125 151
Width: 350
VWidth: -14
Flags: W
VStem: 116 88<96.9863 242.209 391.523 532.845>
LayerCount: 2
Back
Fore
SplineSet
48 -50 m 131,-1,1
 21 -50 21 -50 21 -30 c 0,2,3
 21 -11 21 -11 68.5 44.5 c 128,-1,4
 116 100 116 100 116 176 c 0,5,6
 116 250 116 250 167 286 c 0,7,8
 184 299 184 299 203 309 c 1,9,10
 116 364 116 364 116 443 c 0,11,12
 116 519 116 519 68 572 c 128,-1,13
 20 625 20 625 20 644.5 c 131,-1,14
 20 664 20 664 48 664 c 0,15,16
 78 664 78 664 140 595 c 0,17,18
 167 565 167 565 187 523.5 c 128,-1,19
 207 482 207 482 207 447 c 128,-1,20
 207 412 207 412 227.5 388.5 c 128,-1,21
 248 365 248 365 272 354 c 0,22,23
 338 325 338 325 338 310 c 0,24,25
 338 298 338 298 271 272 c 0,26,27
 246 262 246 262 225 242 c 128,-1,28
 204 222 204 222 204 185.5 c 128,-1,29
 204 149 204 149 184 102 c 128,-1,30
 164 55 164 55 137 23 c 0,31,0
 75 -50 75 -50 48 -50 c 131,-1,1
EndSplineSet
Validated: 1
EndChar

StartChar: bracketleft
Encoding: 91 91 152
Width: 211
VWidth: -14
Flags: W
HStem: -68 65<118 181.291> -59 59<129.709 180.109> 600 59<117.36 186.674> 602 65<114 187.393>
VStem: 25 82<101.509 543.747> 36 82<-3 171.556 413.321 602>
LayerCount: 2
Back
Fore
SplineSet
107 297 m 1,0,-1
 118 -3 l 1,1,-1
 175 0 l 1,2,3
 189 -15 189 -15 199 -59 c 1,4,-1
 112 -68 l 1,5,6
 101 -68 101 -68 73 -62 c 0,7,8
 50 -57 50 -57 36 -50 c 1,9,-1
 25 290 l 1,10,-1
 35 644 l 1,11,12
 92 667 92 667 108 667 c 1,13,-1
 198 659 l 1,14,15
 197 657 197 657 195 648 c 0,16,17
 181 600 181 600 175 600 c 2,18,-1
 114 602 l 1,19,20
 107 364 107 364 107 297 c 1,0,-1
EndSplineSet
Validated: 1
EndChar

StartChar: bracketright
Encoding: 93 93 153
Width: 214
VWidth: -14
Flags: W
HStem: -65 65<34.1164 99> -56 59<25.2958 86.8836> 600 59<26.6523 97.536> 602 65<25.835 101>
VStem: 99 80<0 212.827 371.066 602> 105 82<0 571.941>
LayerCount: 2
Back
Fore
SplineSet
107 667 m 1,0,1
 119 667 119 667 148.5 658 c 128,-1,2
 178 649 178 649 178 644 c 2,3,-1
 187 290 l 1,4,-1
 179 -47 l 5,5,6
 169 -54 169 -54 142 -59.5 c 128,-1,7
 115 -65 115 -65 105 -65 c 1,8,-1
 16 -56 l 1,9,10
 16 -44 16 -44 24.5 -21 c 128,-1,11
 33 2 33 2 41 3 c 1,12,-1
 99 0 l 1,13,14
 105 234 105 234 105 354 c 128,-1,15
 105 474 105 474 101 602 c 1,16,-1
 39 600 l 1,17,18
 34 603 34 603 25 626 c 128,-1,19
 16 649 16 649 16 659 c 1,20,-1
 107 667 l 1,0,1
EndSplineSet
Validated: 1
EndChar

StartChar: uni2010
Encoding: 8208 8208 161
Width: 314
VWidth: -10
Flags: W
HStem: 218 83<43.3369 297.573> 227 83<44.7832 185.224 189.503 203.224 207.503 299.217>
VStem: 30 284
LayerCount: 2
Back
Fore
SplineSet
294 309 m 1025
EndSplineSet
Refer: 133 45 N 1 0 0 1 0 0 2
Validated: 1
EndChar

StartChar: aogonek
Encoding: 261 261 175
Width: 459
VWidth: -3
Flags: W
HStem: -151 40.5<350.535 435.868> -9 74<383.57 446.977> 40 11<181 263> 244 46<128.002 158.622> 311 69<128.19 261.891>
VStem: 30 104<54.0059 114.922 279.649 304.991> 263 63<-95.7998 -4.03741> 275 107<223.083 296.219>
LayerCount: 2
Back
Fore
SplineSet
181 51 m 0,0,1
 246 51 246 51 274 171 c 1,2,3
 228 158 228 158 181 132 c 128,-1,4
 134 106 134 106 134 76 c 0,5,6
 134 51 134 51 181 51 c 0,0,1
263 40 m 0,7,8
 260 40 260 40 246 27 c 0,9,10
 205 -13 205 -13 123 -13 c 0,11,12
 30 -13 30 -13 30 59 c 0,13,14
 30 145 30 145 152 182 c 0,15,16
 274 221 274 221 275 248 c 0,17,18
 275 311 275 311 195 311 c 0,19,20
 173 311 173 311 152.5 304 c 128,-1,21
 132 297 132 297 128 292 c 0,22,23
 128 291 128 291 136 290 c 0,24,25
 159 287 159 287 159 270 c 0,26,27
 159 244 159 244 97 244 c 0,28,29
 74 244 74 244 52 257 c 128,-1,30
 30 270 30 270 30 295 c 128,-1,31
 30 320 30 320 62 341 c 0,32,33
 122 380 122 380 207 380 c 0,34,35
 256 380 256 380 300 366 c 0,36,37
 382 340 382 340 382 297 c 2,38,-1
 383 90 l 2,39,40
 383 75 383 75 421 65 c 128,-1,41
 459 55 459 55 459 37.5 c 128,-1,42
 459 20 459 20 437.5 5.5 c 128,-1,43
 416 -9 416 -9 393 -9 c 0,44,45
 373 -9 373 -9 352 -1 c 1,46,47
 326 -21 326 -21 326 -39 c 0,48,49
 326 -81 326 -81 350 -97 c 0,50,51
 367 -109 367 -109 399.5 -110.5 c 128,-1,52
 432 -112 432 -112 436 -115 c 128,-1,53
 440 -118 440 -118 440 -125 c 0,54,55
 440 -138 440 -138 423 -144.5 c 128,-1,56
 406 -151 406 -151 389 -151 c 0,57,58
 338 -151 338 -151 299 -114 c 0,59,60
 280 -95 280 -95 271.5 -78.5 c 128,-1,61
 263 -62 263 -62 263 -31.5 c 128,-1,62
 263 -1 263 -1 287 29 c 9,63,64
 267 40 267 40 263 40 c 0,7,8
EndSplineSet
Validated: 1
EndChar

StartChar: Aogonek
Encoding: 260 260 176
Width: 670
VWidth: -15
Flags: W
HStem: -155 40<554.544 644.868> -9 61<569.948 647.954> -9 41<398.562 470.191> -2 61<40.9077 81.686 158 242.409 569.534 630.591> 287 76<318.88 404> 562 69<260 365> 575 62.5<75.8383 194 464 531.112>
VStem: 82 76<59 188.577> 472 63<-98.3762 -8.00549>
DStem2: 119 253 191 248 0.216598 0.976261<-178.515 20.7777 112.345 329.276>
LayerCount: 2
Back
Fore
SplineSet
214 347 m 1,0,-1
 404 363 l 1,1,-1
 365 562 l 1,2,-1
 260 559 l 1,3,-1
 214 347 l 1,0,-1
565 -2 m 17,4,5
 535 -24 535 -24 535 -43 c 0,6,7
 535 -111 535 -111 609 -115 c 0,8,9
 641 -117 641 -117 645 -119.5 c 128,-1,10
 649 -122 649 -122 649 -132 c 128,-1,11
 649 -142 649 -142 632.5 -148.5 c 128,-1,12
 616 -155 616 -155 599 -155 c 0,13,14
 547 -155 547 -155 508 -118 c 0,15,16
 489 -99 489 -99 480.5 -82.5 c 128,-1,17
 472 -66 472 -66 472 -42.5 c 128,-1,18
 472 -19 472 -19 478 -4 c 1,19,-1
 420 -9 l 24,20,21
 411 -9 411 -9 404.5 -0.5 c 128,-1,22
 398 8 398 8 398 16 c 0,23,24
 398 32 398 32 414 32 c 0,25,26
 421 32 421 32 477 55 c 1,27,-1
 424 287 l 1,28,29
 343 282 343 282 191 248 c 1,30,31
 160 138 160 138 158 59 c 1,32,-1
 223 56 l 2,33,34
 243 56 243 56 243 28 c 128,-1,35
 243 0 243 0 224 0 c 2,36,-1
 168 -2 l 1,37,-1
 62 -7 l 1,38,39
 40 -7 40 -7 40 24 c 128,-1,40
 40 55 40 55 56 55 c 128,-1,41
 72 55 72 55 82 60 c 1,42,43
 84 105 84 105 119 253 c 0,44,45
 192 566 192 566 194 575 c 1,46,47
 190 576 190 576 138 578.5 c 128,-1,48
 86 581 86 581 75.5 589.5 c 128,-1,49
 65 598 65 598 58.5 616 c 128,-1,50
 52 634 52 634 52 644 c 1,51,52
 114 644 114 644 191.5 637.5 c 128,-1,53
 269 631 269 631 313.5 631 c 128,-1,54
 358 631 358 631 397 637.5 c 128,-1,55
 436 644 436 644 476 644 c 0,56,57
 534 644 534 644 534 611 c 0,58,59
 534 573 534 573 464 573 c 1,60,61
 464 539 464 539 517 329.5 c 128,-1,62
 570 120 570 120 570 70 c 0,63,64
 570 52 570 52 625 52 c 0,65,66
 638 52 638 52 644 40 c 128,-1,67
 650 28 650 28 650 16 c 0,68,69
 650 -9 650 -9 631 -9 c 0,70,71
 618 -9 618 -9 594 -5 c 8,72,73
 565 -2 l 17,4,5
EndSplineSet
Validated: 1
EndChar

StartChar: Eogonek
Encoding: 280 280 177
Width: 641
VWidth: -12
Flags: W
HStem: -132 42<611.533 679.87> -26 108<289.973 463.963> 261 104<171 278.946> 285 105<419.207 523 558 572> 566 90<211.872 358.34>
VStem: 44 117<365 460.071> 524 62<-74.5459 12.4677> 573 59<107.374 285>
LayerCount: 2
Back
Fore
SplineSet
418 82 m 0,0,1
 516 82 516 82 573 119 c 1,2,-1
 572 285 l 1,3,4
 189 262 189 262 171 261 c 1,5,6
 178 195 178 195 232 142 c 0,7,8
 292 82 292 82 418 82 c 0,0,1
184 500 m 0,9,10
 165 447 165 447 161 365 c 1,11,-1
 523 387 l 1,12,13
 474 455 474 455 408 510.5 c 128,-1,14
 342 566 342 566 275 566 c 128,-1,15
 208 566 208 566 184 500 c 0,9,10
620 -76 m 1024,16,17
632 33 m 17,18,19
 586 -3 586 -3 586 -19 c 0,20,21
 586 -60 586 -60 611 -77 c 0,22,23
 628 -88 628 -88 652 -90 c 128,-1,24
 676 -92 676 -92 680 -95 c 128,-1,25
 684 -98 684 -98 684 -108 c 128,-1,26
 684 -118 684 -118 667.5 -125 c 128,-1,27
 651 -132 651 -132 635 -132 c 0,28,29
 600 -132 600 -132 560 -94 c 0,30,31
 524 -58 524 -58 524 -14 c 0,32,33
 524 14 524 14 536 33 c 1,34,35
 520 24 520 24 504 15 c 0,36,37
 430 -26 430 -26 339 -26 c 0,38,39
 239 -26 239 -26 171 24 c 0,40,41
 44 118 44 118 44 329 c 0,42,43
 44 497 44 497 170 605 c 0,44,45
 230 656 230 656 295 656 c 128,-1,46
 360 656 360 656 426.5 628 c 128,-1,47
 493 600 493 600 539 552 c 1,48,49
 544 566 544 566 551.5 598 c 128,-1,50
 559 630 559 630 566.5 642.5 c 128,-1,51
 574 655 574 655 588 655 c 0,52,53
 605 655 605 655 605 629 c 128,-1,54
 605 603 605 603 584.5 516.5 c 128,-1,55
 564 430 564 430 558 390 c 1,56,-1
 638 398 l 9,57,-1
 632 33 l 17,18,19
EndSplineSet
Validated: 1
EndChar

StartChar: eogonek
Encoding: 281 281 178
Width: 425
VWidth: -3
Flags: W
HStem: -140 40<278.535 363.868> -5 67<181.233 192 254.004 322.888> 336 53<165.962 226.924>
VStem: 30 106<221 287.901> 192 62<-62.5874 -5.25171>
DStem2: 136 221 141 161 0.895274 0.445516<0 69.3265 226.816 274.571>
LayerCount: 2
Back
Fore
SplineSet
80 52 m 20,0,1
 30 113 30 113 30 194 c 131,-1,2
 30 275 30 275 84 332 c 0,3,4
 137 389 137 389 216 389 c 0,5,6
 260 389 260 389 307 361 c 0,7,8
 311 358 311 358 347 326 c 1,9,10
 368 338 368 338 385 338 c 0,11,12
 409 338 409 338 409 305 c 0,13,14
 409 289 409 289 341 258 c 0,15,16
 175 181 175 181 141 161 c 1,17,18
 150 106 150 106 180 84 c 128,-1,19
 210 62 210 62 265 62 c 0,20,21
 292 62 292 62 309 71 c 128,-1,22
 326 80 326 80 332 90 c 0,23,24
 347 119 347 119 359 119 c 0,25,26
 366 119 366 119 375.5 113.5 c 128,-1,27
 385 108 385 108 389 107 c 1,28,29
 384 85 384 85 356 49 c 0,30,31
 318 0 318 0 258 -5 c 1,32,33
 254 -13 254 -13 254 -28 c 0,34,35
 254 -70 254 -70 278 -86 c 0,36,37
 295 -98 295 -98 327.5 -100 c 128,-1,38
 360 -102 360 -102 364 -104.5 c 128,-1,39
 368 -107 368 -107 368 -114 c 0,40,41
 368 -127 368 -127 351 -133.5 c 128,-1,42
 334 -140 334 -140 317 -140 c 0,43,44
 264 -140 264 -140 227 -103 c 0,45,46
 208 -84 208 -84 200 -63.5 c 128,-1,47
 192 -43 192 -43 192 -7 c 9,48,49
 122 6 122 6 80 52 c 20,0,1
187 336 m 0,50,51
 174 336 174 336 156.5 296.5 c 128,-1,52
 139 257 139 257 136 221 c 1,53,54
 186 242 186 242 200 248 c 0,55,56
 246 266 246 266 255 272 c 1,57,58
 222 336 222 336 187 336 c 0,50,51
EndSplineSet
Validated: 1
EndChar

StartChar: zdotaccent
Encoding: 380 380 179
Width: 481
VWidth: -2
Flags: W
HStem: 4 77<205.705 413.122> 318 79<81.3049 227.951> 447 149<206.021 281.641>
VStem: 166 164<490.111 554.168> 417 48<-44.8364 -15>
DStem2: 305 277 204 81 0.667545 0.744569<-213.358 0 89.3702 144.013>
LayerCount: 2
Back
Fore
SplineSet
297.5 479.5 m 128,-1,1
 265 447 265 447 248.5 447 c 132,-1,2
 232 447 232 447 199 474.5 c 128,-1,3
 166 502 166 502 166 519.5 c 128,-1,4
 166 537 166 537 195 566.5 c 128,-1,5
 224 596 224 596 238 596 c 128,-1,6
 252 596 252 596 291 567.5 c 128,-1,7
 330 539 330 539 330 525.5 c 128,-1,0
 330 512 330 512 297.5 479.5 c 128,-1,1
381 364.5 m 128,-1,9
 392 382 392 382 404 382 c 3,10,11
 428 382 428 382 428 361 c 0,12,13
 428 349 428 349 372 279 c 128,-1,14
 316 209 316 209 260 145 c 2,15,-1
 204 81 l 1,16,17
 420 81 420 81 452 64 c 0,18,19
 466 57 466 57 465 44 c 0,20,21
 465 -50 465 -50 428 -50 c 0,22,23
 417 -50 417 -50 417 -34.5 c 128,-1,24
 417 -19 417 -19 418 -15 c 1,25,26
 261 4 261 4 219 4 c 0,27,28
 148 4 148 4 79 -14 c 2,29,-1
 30 -27 l 1,30,-1
 48 -7 l 2,31,32
 161 119 161 119 305 277 c 1,33,34
 265 285 265 285 227 296.5 c 128,-1,35
 189 308 189 308 163.5 313 c 128,-1,36
 138 318 138 318 98 318 c 0,37,38
 82 318 82 318 59 291 c 1,39,-1
 46 271 l 1,40,-1
 46 296 l 2,41,42
 46 322 46 322 70 359.5 c 128,-1,43
 94 397 94 397 119 397 c 0,44,45
 170 397 170 397 260.5 372 c 128,-1,46
 351 347 351 347 360.5 347 c 128,-1,8
 370 347 370 347 381 364.5 c 128,-1,9
EndSplineSet
Validated: 1
EndChar

StartChar: lslash
Encoding: 322 322 181
Width: 248
VWidth: -14
Flags: W
VStem: 66 93<56 268 396 561.368>
LayerCount: 2
Back
Fore
SplineSet
159 304 m 1,0,-1
 159 56 l 1,1,2
 180 61 180 61 213 94 c 1,3,4
 231 72 231 72 231 64 c 0,5,6
 231 47 231 47 166.5 9 c 128,-1,7
 102 -29 102 -29 66 -29 c 1,8,-1
 66 268 l 1,9,-1
 12 251 l 1,10,-1
 9 334 l 1,11,12
 21 338 21 338 66 356 c 1,13,-1
 66 521 l 2,14,15
 66 538 66 538 45 560 c 128,-1,16
 24 582 24 582 24 596.5 c 131,-1,17
 24 611 24 611 74 626 c 128,-1,18
 124 641 124 641 159 644 c 1,19,-1
 159 396 l 1,20,-1
 223 425 l 1,21,22
 224 359 224 359 225 348 c 0,23,24
 225 339 225 339 224 338 c 0,25,26
 213 320 213 320 159 304 c 1,0,-1
EndSplineSet
Validated: 1
EndChar

StartChar: Lslash
Encoding: 321 321 182
Width: 645
VWidth: -10
Flags: W
HStem: -18 21G<26 46.5> -10 62<45.5945 146.219 358.401 487.581> -2 54<271.77 435.355> 590 59<46.626 149.672> 591 47<265.441 381.25>
VStem: 147 116<60.7653 258 394 582.142> 586 41<-126 -10>
LayerCount: 2
Back
Fore
SplineSet
271.5 60.5 m 128,-1,1
 280 52 280 52 305 52 c 0,2,3
 472 52 472 52 554 102 c 0,4,5
 592 126 592 126 603 159 c 1,6,7
 615 158 615 158 620 142 c 0,8,9
 627 124 627 124 627 90 c 2,10,-1
 627 -126 l 1,11,-1
 586 -126 l 1,12,-1
 586 -10 l 1,13,14
 521 -2 521 -2 211 -2 c 0,15,16
 174 -2 174 -2 120.5 -10 c 128,-1,17
 67 -18 67 -18 26 -18 c 1,18,19
 26 17 26 17 45 31 c 128,-1,20
 64 45 64 45 86 47 c 0,21,22
 146 52 146 52 147 73 c 0,23,24
 147 142 147 142 149 258 c 1,25,-1
 109 246 l 1,26,27
 107 329 l 1,28,29
 118 332 118 332 151 346 c 1,30,31
 153 478 153 478 153 557 c 3,32,33
 153 585 153 585 90 590 c 0,34,35
 66 592 66 592 46 604.5 c 128,-1,36
 26 617 26 617 26 649 c 1,37,38
 81 649 81 649 129 638 c 0,39,40
 168 629 168 629 191 629 c 131,-1,41
 214 629 214 629 290 638 c 0,42,43
 373 648 373 648 404 649 c 1,44,45
 404 617 404 617 382 605 c 0,46,47
 358 593 358 593 332 591 c 0,48,49
 262 586 262 586 262 557 c 2,50,-1
 262 394 l 1,51,-1
 320 420 l 1,52,53
 324 384 324 384 324 348 c 0,54,55
 324 336 324 336 321 333 c 0,56,57
 316 328 316 328 263 301 c 1,58,-1
 263 76 l 2,59,0
 263 69 263 69 271.5 60.5 c 128,-1,1
EndSplineSet
Validated: 1
EndChar

StartChar: uni0419
Encoding: 1049 1049 187
Width: 703
VWidth: -15
Flags: W
HStem: -31 74<262.529 409.997 635.348 671.93> 786 32<492.031 522.631>
VStem: 84 113<111.234 602.889> 165 72<786.6 812.045> 508 112<111.168 601.194>
DStem2: 274 755 228 721 0.818482 -0.574532<-60.6551 81.7563> 339 714 411 694 0.77121 0.636581<-8.55997 174.785>
LayerCount: 2
Back
Fore
SplineSet
341 650 m 1,0,1
 289 675 289 675 228 721 c 0,2,3
 165 767 165 767 165 798 c 0,4,5
 165 816 165 816 185 816 c 0,6,7
 189 816 189 816 237 809 c 1,8,-1
 245 784 l 2,9,10
 246 777 246 777 274 755 c 0,11,12
 303 733 303 733 339 714 c 1,13,14
 351 722 351 722 379 752 c 0,15,16
 443 818 443 818 481 818 c 0,17,18
 539 818 539 818 539 786 c 1,19,20
 495 786 495 786 459 738 c 0,21,22
 443 718 443 718 411 694 c 0,23,24
 379 668 379 668 341 650 c 1,0,1
EndSplineSet
Refer: 186 1048 N 1 0 0 1 0 0 2
Validated: 1
EndChar

StartChar: uni042F
Encoding: 1071 1071 196
Width: 705
VWidth: -14
Flags: W
HStem: -18 56<549.484 669.627> -13 72<24.1016 77.9653> -6 49<306.158 436.257> 3 53<323.894 438> 274 34<384.062 391.461> 557 44<582.867 674.996> 571 81<263.269 408.113>
VStem: 112 105<341.846 525.046> 437 106<56 274 339.654 523.883> 438 122<341.875 534.863>
DStem2: 78 65 176 10 0.560478 0.828169<-28.932 236.505>
LayerCount: 2
Back
Fore
SplineSet
355.5 49 m 128,-1,1
 382 55 382 55 438 56 c 1,2,-1
 437 274 l 1,3,4
 332 263 332 263 220 78 c 0,5,6
 192 32 192 32 176 10 c 0,7,8
 160 -13 160 -13 90 -13 c 128,-1,9
 20 -13 20 -13 20 25 c 0,10,11
 20 48 20 48 62 59 c 0,12,13
 77 63 77 63 78 65 c 0,14,15
 140 157 140 157 177 210 c 0,16,17
 199 242 199 242 212 263 c 1,18,19
 166 287 166 287 139 333 c 128,-1,20
 112 379 112 379 112 434 c 0,21,22
 112 535 112 535 169 593.5 c 128,-1,23
 226 652 226 652 324 652 c 0,24,25
 360 652 360 652 387.5 640 c 128,-1,26
 415 628 415 628 428 614 c 0,27,28
 462 577 462 577 492 577 c 3,29,30
 542 577 542 577 575 589 c 128,-1,31
 608 601 608 601 658 601 c 0,32,33
 675 601 675 601 675 579 c 128,-1,34
 675 557 675 557 659 557 c 0,35,36
 630 557 630 557 595.5 541.5 c 128,-1,37
 561 526 561 526 560 515 c 0,38,39
 552 424 552 424 548 374 c 0,40,41
 544 318 544 318 543 196 c 0,42,43
 543 74 543 74 549 55 c 1,44,45
 564 38 564 38 642 38 c 0,46,47
 656 38 656 38 664 26.5 c 128,-1,48
 672 15 672 15 672 3 c 0,49,50
 672 -18 672 -18 642 -18 c 0,51,52
 624 -18 624 -18 586 -8 c 128,-1,53
 548 2 548 2 467 3 c 0,54,55
 386 3 386 3 361 -1.5 c 128,-1,56
 336 -6 336 -6 323.5 -6 c 128,-1,57
 311 -6 311 -6 306 2 c 128,-1,58
 301 10 301 10 301 19 c 128,-1,59
 301 28 301 28 306 35.5 c 128,-1,60
 311 43 311 43 320 43 c 128,-1,0
 329 43 329 43 355.5 49 c 128,-1,1
353 571 m 0,61,62
 283 571 283 571 250 539 c 128,-1,63
 217 507 217 507 217 438.5 c 128,-1,64
 217 370 217 370 238.5 339 c 128,-1,65
 260 308 260 308 319 308 c 0,66,67
 394 308 394 308 437 362 c 1,68,-1
 438 527 l 1,69,70
 394 571 394 571 353 571 c 0,61,62
EndSplineSet
Validated: 1
EndChar

StartChar: uni0411
Encoding: 1041 1041 208
Width: 667
VWidth: -14
Flags: W
HStem: -31 65<282.316 461.041> -27 44<20.0547 110.069> 363 66<309.66 450.133> 537 55<28.705 143.39> 562 60<281.505 553.401>
VStem: 135 135<51.0376 281.207> 152 120<51.0376 328.734 397 533.444> 525 102<91.7063 268.176> 561 59<485.361 546.652>
LayerCount: 2
Back
Fore
SplineSet
362 34 m 0,0,1
 435 34 435 34 480 68 c 128,-1,2
 525 102 525 102 525 170 c 131,-1,3
 525 238 525 238 486 301 c 0,4,5
 445 363 445 363 390 363 c 3,6,7
 344 363 344 363 327 351 c 0,8,9
 299 337 299 337 272 307 c 1,10,-1
 270 66 l 1,11,12
 281 55 281 55 306 44.5 c 128,-1,13
 331 34 331 34 362 34 c 0,0,1
348 622 m 3,14,15
 432 622 432 622 526 607.5 c 128,-1,16
 620 593 620 593 620 576 c 0,17,18
 620 496 620 496 612.5 485 c 128,-1,19
 605 474 605 474 591 474 c 128,-1,20
 577 474 577 474 569 492 c 128,-1,21
 561 510 561 510 561 528 c 0,22,23
 561 562 561 562 354 562 c 0,24,25
 287 562 287 562 273 526 c 1,26,-1
 272 397 l 1,27,28
 275 398 275 398 295 408 c 0,29,30
 340 429 340 429 412 429 c 1,31,32
 494 427 494 427 566 332 c 0,33,34
 627 252 627 252 627 173 c 0,35,36
 627 77 627 77 553 23 c 128,-1,37
 479 -31 479 -31 374 -31 c 0,38,39
 313 -31 313 -31 275 -15.5 c 128,-1,40
 237 0 237 0 217 0 c 0,41,42
 168 0 168 0 128 -13.5 c 128,-1,43
 88 -27 88 -27 39 -27 c 0,44,45
 20 -27 20 -27 20 -3 c 0,46,47
 20 17 20 17 34 17 c 0,48,49
 63 17 63 17 98.5 33 c 128,-1,50
 134 49 134 49 135 59 c 0,51,52
 152 195 152 195 152 284 c 0,53,54
 152 502 152 502 145 525 c 0,55,56
 143 533 143 533 123.5 535 c 128,-1,57
 104 537 104 537 49 537 c 0,58,59
 35 537 35 537 28.5 547 c 128,-1,60
 22 557 22 557 22 568 c 128,-1,61
 22 579 22 579 28 585.5 c 128,-1,62
 34 592 34 592 41 592 c 128,-1,63
 48 592 48 592 89 599 c 0,64,65
 224 622 224 622 348 622 c 3,14,15
EndSplineSet
Validated: 1
EndChar

StartChar: uni0413
Encoding: 1043 1043 209
Width: 505
VWidth: -17
Flags: W
HStem: -8 21G<387.5 407> -5 48<49.4067 115.438 234.097 396.369> 520 82<40.7322 118> 534 80<228 445.195>
VStem: 118 110<56.3643 519.237> 453 52<472.321 532.741>
LayerCount: 2
Back
Fore
SplineSet
118 78 m 1048,0,-1
186 7 m 1,1,-1
 36 -5 l 1,2,3
 36 18 36 18 49 29.5 c 128,-1,4
 62 41 62 41 77 43 c 0,5,6
 118 50 118 50 118 78 c 2,7,-1
 118 515 l 2,8,9
 118 520 118 520 60 520 c 1,10,11
 39 541 39 541 33 556.5 c 128,-1,12
 27 572 27 572 25 602 c 1,13,14
 52 602 52 602 190.5 608 c 128,-1,15
 329 614 329 614 414 614 c 0,16,17
 460 614 460 614 482.5 592 c 128,-1,18
 505 570 505 570 505 526 c 128,-1,19
 505 482 505 482 491 472 c 128,-1,20
 477 462 477 462 453 462 c 1,21,22
 450 534 450 534 426 534 c 3,23,24
 361 534 361 534 295 529 c 128,-1,25
 229 524 229 524 228 515 c 1,26,-1
 228 78 l 2,27,28
 228 61 228 61 258 54 c 128,-1,29
 288 47 288 47 332.5 42 c 128,-1,30
 377 37 377 37 397 26 c 0,31,32
 407 21 407 21 407 -8 c 1,33,34
 368 -8 368 -8 290.5 -0.5 c 128,-1,35
 213 7 213 7 186 7 c 1,1,-1
EndSplineSet
Validated: 1
EndChar

StartChar: uni041F
Encoding: 1055 1055 210
Width: 813
VWidth: -15
Flags: W
HStem: -19 53<280.977 428.567> -15 56<39.5945 140.871 524.902 544.019 664.172 770.827> -8 60<254 421.311> 549 87<656.469 751.057> 549 77<254 545 656 751.057> 556 70<67.2944 141.378> 568 79<657.683 757.54>
VStem: 142 112<57.5 549> 545 111<56.2812 548>
LayerCount: 2
Back
Fore
SplineSet
187 626 m 1,0,-1
 606 626 l 2,1,2
 632 626 632 626 704 636 c 128,-1,3
 776 646 776 646 791 647 c 1,4,5
 791 586 791 586 744 568 c 0,6,7
 710 555 710 555 656 549 c 1,8,9
 656 156 656 156 656 74 c 0,10,11
 656 56 656 56 724 46 c 0,12,13
 750 42 750 42 771.5 27.5 c 128,-1,14
 793 13 793 13 793 -21 c 1,15,16
 674 -4 674 -4 606 -4 c 0,17,18
 591 -4 591 -4 570 -11.5 c 128,-1,19
 549 -19 549 -19 515 -19 c 1,20,21
 515 38 515 38 530 43 c 128,-1,22
 545 48 545 48 545 72 c 0,23,24
 545 310 545 310 545 548 c 1,25,-1
 254 549 l 1,26,-1
 254 72 l 2,27,28
 254 58 254 58 305.5 52 c 128,-1,29
 357 46 357 46 408.5 34 c 128,-1,30
 460 22 460 22 460 -19 c 1,31,32
 276 -8 276 -8 222.5 -8 c 128,-1,33
 169 -8 169 -8 116 -15 c 128,-1,34
 63 -22 63 -22 20 -22 c 1,35,36
 20 12 20 12 39 25.5 c 128,-1,37
 58 39 58 39 80 41 c 0,38,39
 142 46 142 46 142 67 c 2,40,-1
 142 549 l 1,41,42
 122 556 122 556 115 556 c 0,43,44
 73 562 73 562 50 573 c 0,45,46
 20 587 20 587 20 636 c 1,47,-1
 187 626 l 1,0,-1
EndSplineSet
Validated: 1
EndChar

StartChar: uni0423
Encoding: 1059 1059 211
Width: 551
VWidth: 8
Flags: W
VStem: 446 105<581.856 632.03>
DStem2: 184 540.5 44 612 0.416277 -0.909238<-43.2393 273.443>
LayerCount: 2
Back
Fore
SplineSet
20 -1 m 1,0,-1
 20 35 l 1,1,2
 156 118 156 118 222 229 c 1,3,4
 80 514 80 514 44 612 c 2,5,-1
 32 644 l 1,6,-1
 194 645 l 1,7,8
 194 628 194 628 182.5 611.5 c 128,-1,9
 171 595 171 595 171 582.5 c 128,-1,10
 171 570 171 570 184 540.5 c 128,-1,11
 197 511 197 511 235.5 436.5 c 128,-1,12
 274 362 274 362 306 293 c 1,13,14
 388 388 388 388 421 448 c 128,-1,15
 454 508 454 508 470 580 c 1,16,17
 446 610 446 610 446 621 c 1,18,19
 465 633 465 633 503 644 c 1,20,-1
 551 652 l 1,21,22
 551 546 551 546 488 419 c 128,-1,23
 425 292 425 292 313 167 c 0,24,25
 163 0 163 0 127 0 c 2,26,-1
 20 -1 l 1,0,-1
EndSplineSet
Validated: 1
EndChar

StartChar: uni0414
Encoding: 1044 1044 212
Width: 617
VWidth: 0
Flags: W
HStem: 18 66<159 428 513 544> 534 128<254.997 349.746> 556 46<524.314 589.793>
VStem: 75 84<84.5615 338.203> 428 85<84 507.951> 544 73<-58.6439 18>
LayerCount: 2
Back
Fore
SplineSet
159 84 m 1,0,-1
 428 82 l 1,1,-1
 425 484 l 2,2,3
 425 503 425 503 382.5 518.5 c 128,-1,4
 340 534 340 534 303 534 c 0,5,6
 245 534 245 534 202.5 420 c 128,-1,7
 160 306 160 306 159 84 c 1,0,-1
512 511 m 2,8,-1
 513 84 l 1,9,10
 592 82 592 82 604.5 72.5 c 128,-1,11
 617 63 617 63 617 49 c 0,12,13
 617 -26 617 -26 613 -43 c 128,-1,14
 609 -60 609 -60 582.5 -60 c 128,-1,15
 556 -60 556 -60 551 -49.5 c 128,-1,16
 546 -39 546 -39 544 18 c 1,17,-1
 142 18 l 1,18,19
 133 -12 133 -12 102 -35 c 128,-1,20
 71 -58 71 -58 53.5 -58 c 128,-1,21
 36 -58 36 -58 33 -53.5 c 128,-1,22
 30 -49 30 -49 30 -30 c 0,23,24
 30 31 30 31 52 80 c 0,25,26
 74 128 74 128 75 204 c 0,27,28
 75 370 75 370 120 508 c 0,29,30
 143 578 143 578 185 620 c 128,-1,31
 227 662 227 662 284 662 c 3,32,33
 310 662 310 662 371 629 c 0,34,35
 429 597 429 597 440 596 c 2,36,37
 537 602 l 1,38,39
 590 602 590 602 590 577 c 0,40,41
 590 556 590 556 551 556 c 3,42,43
 534 556 534 556 524 548 c 0,44,45
 512 538 512 538 512 511 c 2,8,-1
EndSplineSet
Validated: 1
EndChar

StartChar: uni0416
Encoding: 1046 1046 213
Width: 852
VWidth: -15
Flags: W
HStem: -20 55<320.829 377.512 474 546.061> -20 44<30.0879 81.9858 310.094 375.875 770.014 821.912> 596 50<61.3125 89.165 317.202 377.675 474.793 531.547 760.734 791.811>
VStem: 378 96<39.1748 302.084 370 596.438>
DStem2: 150.5 589.5 213 452 0.694493 -0.719499<-72.4342 231.891> 657 259.5 608 143 0.445793 -0.895136<-109.831 272.447>
LayerCount: 2
Back
Fore
SplineSet
344 35 m 0,0,1
 378 35 378 35 378 54 c 2,2,-1
 378 242 l 2,3,4
 378 262 378 262 367 284 c 128,-1,5
 356 306 356 306 349 306 c 0,6,7
 329 306 329 306 287 224.5 c 128,-1,8
 245 143 245 143 200.5 61.5 c 128,-1,9
 156 -20 156 -20 130 -20 c 0,10,11
 101 -20 101 -20 65.5 -14.5 c 128,-1,12
 30 -9 30 -9 30 0.5 c 128,-1,13
 30 10 30 10 40 17 c 128,-1,14
 50 24 50 24 59 24 c 0,15,16
 74 24 74 24 111 95.5 c 128,-1,17
 148 167 148 167 195 259.5 c 128,-1,18
 242 352 242 352 273 386 c 1,19,20
 260 398 260 398 213 452 c 0,21,22
 98 583 98 583 51 596 c 1,23,24
 51 626 51 626 61 636 c 132,-1,25
 71 646 71 646 81 646 c 128,-1,26
 91 646 91 646 150.5 589.5 c 128,-1,27
 210 533 210 533 281.5 461.5 c 128,-1,28
 353 390 353 390 378 370 c 1,29,-1
 378 577 l 2,30,31
 378 597 378 597 347.5 597 c 128,-1,32
 317 597 317 597 317 622 c 0,33,34
 317 643 317 643 340 643 c 0,35,36
 350 643 350 643 379.5 636 c 128,-1,37
 409 629 409 629 426.5 629 c 128,-1,38
 444 629 444 629 473 635 c 128,-1,39
 502 641 502 641 511 641 c 0,40,41
 532 641 532 641 532 622.5 c 128,-1,42
 532 604 532 604 503 598 c 128,-1,43
 474 592 474 592 474 582 c 2,44,-1
 474 370 l 1,45,46
 498 390 498 390 570 462 c 0,47,48
 754 646 754 646 774 646 c 0,49,50
 786 646 786 646 792 634 c 0,51,52
 799 617 799 617 801 596 c 1,53,54
 754 584 754 584 639 452 c 0,55,56
 592 398 592 398 579 386 c 1,57,58
 610 352 610 352 657 259.5 c 128,-1,59
 704 167 704 167 741 95.5 c 128,-1,60
 778 24 778 24 793 24 c 0,61,62
 802 24 802 24 812 17 c 128,-1,63
 822 10 822 10 822 0.5 c 128,-1,64
 822 -9 822 -9 787 -14.5 c 128,-1,65
 752 -20 752 -20 723 -20 c 0,66,67
 702 -20 702 -20 670 31 c 0,68,69
 636 82 636 82 608 143 c 0,70,71
 532 306 532 306 503 306 c 0,72,73
 496 306 496 306 485 284 c 128,-1,74
 474 262 474 262 474 242 c 2,75,-1
 474 54 l 2,76,77
 474 42 474 42 511 36 c 0,78,79
 525 34 525 34 536.5 25 c 128,-1,80
 548 16 548 16 548 2 c 0,81,82
 548 -16 548 -16 526 -16 c 1,83,-1
 427 -8 l 1,84,85
 409 -8 409 -8 376.5 -14 c 128,-1,86
 344 -20 344 -20 334 -20 c 0,87,88
 310 -20 310 -20 310 -1 c 128,-1,89
 310 18 310 18 320.5 26.5 c 128,-1,90
 331 35 331 35 344 35 c 0,0,1
EndSplineSet
Validated: 1
EndChar

StartChar: uni0417
Encoding: 1047 1047 214
Width: 573
VWidth: -13
Flags: W
HStem: -28 64<223.934 378.333> 563 78<198.213 332.303>
VStem: 30 52<-34.2407 44.9648> 74 53<393.933 497.12> 372 144<423.813 526.386> 416 127<84.3645 273.389>
DStem2: 136.5 110 93 51 0.880128 -0.474736<-9.75933 180.62>
LayerCount: 2
Back
Fore
SplineSet
127 471 m 1,0,1
 127 393 127 393 99 393 c 0,2,3
 86 393 86 393 80 423.5 c 128,-1,4
 74 454 74 454 74 481 c 2,5,-1
 74 553 l 1,6,7
 86 563 86 563 107.5 577.5 c 128,-1,8
 129 592 129 592 187.5 616.5 c 128,-1,9
 246 641 246 641 296 641 c 0,10,11
 380 641 380 641 448 596 c 128,-1,12
 516 551 516 551 516 492 c 0,13,14
 516 444 516 444 484 413 c 0,15,16
 460 392 460 392 423 371 c 1,17,18
 468 362 468 362 505.5 312 c 128,-1,19
 543 262 543 262 543 192 c 0,20,21
 543 89 543 89 482 30.5 c 128,-1,22
 421 -28 421 -28 303 -28 c 0,23,24
 273 -28 273 -28 236.5 -17 c 128,-1,25
 200 -6 200 -6 175.5 6.5 c 128,-1,26
 151 19 151 19 123.5 34.5 c 128,-1,27
 96 50 96 50 93 51 c 0,28,29
 88 44 88 44 82 20 c 0,30,31
 66 -39 66 -39 51 -39 c 0,32,33
 42 -39 42 -39 36 -33 c 128,-1,34
 30 -27 30 -27 30 -20 c 0,35,36
 30 4 30 4 70 80 c 1,37,-1
 102 138 l 1,38,39
 115 127 115 127 136.5 110 c 128,-1,40
 158 93 158 93 211.5 64.5 c 128,-1,41
 265 36 265 36 303 36 c 0,42,43
 366 36 366 36 391 71 c 128,-1,44
 416 106 416 106 416 199 c 0,45,46
 416 228 416 228 403 256 c 128,-1,47
 390 284 390 284 372 302 c 0,48,49
 340 334 340 334 290 361 c 1,50,51
 299 368 299 368 312.5 379 c 128,-1,52
 326 390 326 390 349 421.5 c 128,-1,53
 372 453 372 453 372 482.5 c 128,-1,54
 372 512 372 512 337 537.5 c 128,-1,55
 302 563 302 563 266 563 c 128,-1,56
 230 563 230 563 197 540 c 0,57,58
 166 519 166 519 127 471 c 1,0,1
EndSplineSet
Validated: 1
EndChar

StartChar: uni041B
Encoding: 1051 1051 215
Width: 705
VWidth: 0
Flags: W
HStem: -72 72<62.579 124.94> 0 63<408.246 498 576 676.449> 545 117<335.197 423.561> 554 48<590.438 663.67>
VStem: 149 94<26.4258 344.76> 498 78<63 520.722>
LayerCount: 2
Back
Fore
SplineSet
610 602 m 1,0,1
 664 602 664 602 664 576 c 0,2,3
 664 554 664 554 620 554 c 3,4,5
 604 554 604 554 590 546 c 0,6,7
 576 536 576 536 576 509 c 2,8,-1
 576 63 l 1,9,10
 685 60 685 60 685 28 c 0,11,12
 685 18 685 18 677 12 c 0,13,14
 660 0 660 0 560.5 0 c 128,-1,15
 461 0 461 0 433.5 5.5 c 128,-1,16
 406 11 406 11 406 34 c 0,17,18
 406 52 406 52 429 57.5 c 128,-1,19
 452 63 452 63 498 63 c 1,20,-1
 498 484 l 2,21,22
 498 514 498 514 459.5 529.5 c 128,-1,23
 421 545 421 545 380 545 c 0,24,25
 323 545 323 545 283 425 c 128,-1,26
 243 305 243 305 243 83 c 3,27,28
 243 12 243 12 201 -30 c 128,-1,29
 159 -72 159 -72 110 -72 c 128,-1,30
 61 -72 61 -72 40.5 -47 c 128,-1,31
 20 -22 20 -22 20 -3 c 128,-1,32
 20 16 20 16 26.5 33 c 128,-1,33
 33 50 33 50 46 50 c 0,34,35
 51 50 51 50 55 37.5 c 128,-1,36
 59 25 59 25 69.5 12.5 c 128,-1,37
 80 0 80 0 101 0 c 0,38,39
 125 0 125 0 137 64 c 128,-1,40
 149 128 149 128 149 204 c 0,41,42
 149 370 149 370 194 508 c 0,43,44
 217 578 217 578 259 620 c 128,-1,45
 301 662 301 662 358 662 c 0,46,47
 384 662 384 662 444.5 629 c 128,-1,48
 505 596 505 596 514 596 c 2,49,-1
 610 602 l 1,0,1
EndSplineSet
Validated: 1
EndChar

StartChar: uni0424
Encoding: 1060 1060 216
Width: 745
VWidth: -14
Flags: W
HStem: -17 50<201.643 313.066 432.55 545.357> 148 56<138.57 255.915 490.363 606.493> 571 81<172.812 290.547 453.149 572.306>
VStem: 20 84<300.889 498.063> 314 117<53 180 250.266 548.838> 642 83<300.889 496.438>
LayerCount: 2
Back
Fore
SplineSet
244 571 m 0,0,1
 186 571 186 571 145 524.5 c 128,-1,2
 104 478 104 478 104 409 c 0,3,4
 104 204 104 204 180 204 c 0,5,6
 220 204 220 204 258.5 227.5 c 128,-1,7
 297 251 297 251 314 270 c 1,8,-1
 314 527 l 1,9,10
 304 540 304 540 283 555.5 c 128,-1,11
 262 571 262 571 244 571 c 0,0,1
474 -7.5 m 128,-1,13
 432 3 432 3 373.5 3 c 131,-1,14
 315 3 315 3 273.5 -7 c 128,-1,15
 232 -17 232 -17 219 -17 c 128,-1,16
 206 -17 206 -17 201.5 -8.5 c 128,-1,17
 197 0 197 0 197 9 c 128,-1,18
 197 18 197 18 201.5 25.5 c 128,-1,19
 206 33 206 33 215.5 33 c 128,-1,20
 225 33 225 33 255.5 43 c 128,-1,21
 286 53 286 53 314 53 c 1,22,-1
 314 180 l 1,23,24
 312 180 312 180 295 170 c 0,25,26
 257 148 257 148 195.5 148 c 128,-1,27
 134 148 134 148 77 235 c 128,-1,28
 20 322 20 322 20 413.5 c 128,-1,29
 20 505 20 505 79 578.5 c 128,-1,30
 138 652 138 652 220 652 c 0,31,32
 273 652 273 652 308 614 c 0,33,34
 342 576 342 576 370 576 c 3,35,36
 405 576 405 576 437 614 c 0,37,38
 468 652 468 652 525 652 c 0,39,40
 607 652 607 652 666 578.5 c 128,-1,41
 725 505 725 505 725 413.5 c 128,-1,42
 725 322 725 322 668 235 c 128,-1,43
 611 148 611 148 548 148 c 0,44,45
 488 148 488 148 450 170 c 0,46,47
 433 180 433 180 431 180 c 1,48,-1
 431 53 l 1,49,50
 460 53 460 53 491 42.5 c 128,-1,51
 522 32 522 32 531.5 32 c 128,-1,52
 541 32 541 32 545.5 24.5 c 128,-1,53
 550 17 550 17 550 8 c 128,-1,54
 550 -1 550 -1 545.5 -9.5 c 128,-1,55
 541 -18 541 -18 528.5 -18 c 128,-1,12
 516 -18 516 -18 474 -7.5 c 128,-1,13
501 571 m 0,56,57
 483 571 483 571 462 555.5 c 128,-1,58
 441 540 441 540 431 527 c 1,59,-1
 431 270 l 1,60,61
 456 242 456 242 496.5 223 c 128,-1,62
 537 204 537 204 565 204 c 0,63,64
 642 204 642 204 642 409 c 0,65,66
 642 477 642 477 600.5 524 c 128,-1,67
 559 571 559 571 501 571 c 0,56,57
EndSplineSet
Validated: 1
EndChar

StartChar: uni0426
Encoding: 1062 1062 217
Width: 682
VWidth: 0
Flags: W
HStem: -18 80<225.505 428.48> 0 60<566 587>
VStem: 84 112<91.8105 603.643> 451 115<83.5723 598.194> 587 75<-76.291 0>
LayerCount: 2
Back
Fore
SplineSet
451 192 m 2,0,-1
 450 553 l 2,1,2
 450 589 450 589 427.5 600.5 c 128,-1,3
 405 612 405 612 405 623 c 0,4,5
 405 639 405 639 454 645 c 128,-1,6
 503 651 503 651 550 651 c 0,7,8
 566 651 566 651 566 574 c 2,9,-1
 566 60 l 1,10,11
 646 60 646 60 658 48 c 0,12,13
 662 43 662 43 662 32 c 0,14,15
 662 -43 662 -43 657 -60.5 c 128,-1,16
 652 -78 652 -78 625.5 -78 c 128,-1,17
 599 -78 599 -78 594 -67.5 c 128,-1,18
 589 -57 589 -57 587 0 c 1,19,20
 348 -18 348 -18 282 -18 c 3,21,22
 144 -18 144 -18 114 18 c 128,-1,23
 84 54 84 54 84 216 c 1,24,-1
 88 580 l 2,25,26
 88 594 88 594 59 605.5 c 128,-1,27
 30 617 30 617 30 629.5 c 128,-1,28
 30 642 30 642 97.5 647 c 128,-1,29
 165 652 165 652 211 652 c 1,30,31
 201 601 201 601 198.5 530.5 c 128,-1,32
 196 460 196 460 196 211 c 0,33,34
 196 110 196 110 222.5 86 c 128,-1,35
 249 62 249 62 338.5 62 c 128,-1,36
 428 62 428 62 442 102 c 0,37,38
 451 128 451 128 451 192 c 2,0,-1
EndSplineSet
Validated: 1
EndChar

StartChar: uni0427
Encoding: 1063 1063 218
Width: 661
VWidth: 8
Flags: W
HStem: -10 62<389.8 477> -10 49<375.354 476.184> 219 74<231.676 393.26>
VStem: 53 112<361.234 603.807> 467 115<358.144 627.81> 477 105<52 304>
LayerCount: 2
Back
Fore
SplineSet
467 445 m 2,0,-1
 465 556 l 2,1,2
 465 587 465 587 457.5 604.5 c 128,-1,3
 450 622 450 622 450 628 c 0,4,5
 450 654 450 654 565 654 c 0,6,7
 582 654 582 654 582 577 c 2,8,-1
 582 72 l 2,9,10
 582 58 582 58 606 44 c 128,-1,11
 630 30 630 30 631 -11 c 1,12,13
 468 -10 468 -10 399 -10 c 0,14,15
 374 -10 374 -10 374 11 c 0,16,17
 374 27 374 27 412.5 39 c 128,-1,18
 451 51 451 51 477 52 c 1,19,20
 478 256 478 256 478 304 c 1,21,22
 475 283 475 283 449 265.5 c 128,-1,23
 423 248 423 248 367 234 c 128,-1,24
 311 220 311 220 253 219 c 0,25,26
 176 219 176 219 114.5 292 c 128,-1,27
 53 365 53 365 53 466 c 2,28,-1
 53 548 l 2,29,30
 53 572 53 572 36.5 595 c 128,-1,31
 20 618 20 618 20 628 c 0,32,33
 20 643 20 643 83 648 c 0,34,35
 146 652 146 652 170 652 c 1,36,37
 165 535 165 535 165 456.5 c 128,-1,38
 165 378 165 378 206.5 335.5 c 128,-1,39
 248 293 248 293 313 293 c 131,-1,40
 378 293 378 293 424 334 c 0,41,42
 467 372 467 372 467 445 c 2,0,-1
EndSplineSet
Validated: 1
EndChar

StartChar: uni0429
Encoding: 1065 1065 219
Width: 894
VWidth: 0
Flags: W
HStem: -85 138<806.161 868.323> -18 70<242.231 368.377> -7 59<572.049 619.48 779 799>
VStem: 75 112<105.17 603.643> 371 108<52 323.047> 663 116<92.4775 592.481> 799 75<-83.062 -7>
LayerCount: 2
Back
Fore
SplineSet
371 52 m 1,0,-1
 369 578 l 2,1,2
 369 592 369 592 340 603.5 c 128,-1,3
 311 615 311 615 311 627 c 0,4,5
 311 650 311 650 493 650 c 1,6,7
 479 575 479 575 479 52 c 1,8,9
 614 58 614 58 636 86 c 0,10,11
 663 119 663 119 663 185 c 2,12,-1
 661 546 l 2,13,14
 661 583 661 583 639 594 c 0,15,16
 617 606 617 606 616 616 c 0,17,18
 616 632 616 632 665 638 c 128,-1,19
 714 644 714 644 761 644 c 0,20,21
 769 644 769 644 774 619.5 c 128,-1,22
 779 595 779 595 779 567 c 2,23,-1
 779 53 l 1,24,25
 857 51 857 51 864 46 c 0,26,27
 873 40 873 40 874 25 c 0,28,29
 874 -49 874 -49 868.5 -67 c 128,-1,30
 863 -85 863 -85 837 -85 c 128,-1,31
 811 -85 811 -85 806 -75 c 128,-1,32
 801 -65 801 -65 799 -7 c 1,33,34
 339 -18 339 -18 281 -18 c 0,35,36
 135 -18 135 -18 105 18 c 128,-1,37
 75 54 75 54 75 216 c 2,38,-1
 78 580 l 2,39,40
 78 594 78 594 49 605.5 c 128,-1,41
 20 617 20 617 20 629 c 0,42,43
 20 652 20 652 202 652 c 1,44,45
 192 601 192 601 189.5 530.5 c 128,-1,46
 187 460 187 460 187 318 c 0,47,48
 187 114 187 114 222 84 c 0,49,50
 248 62 248 62 371 52 c 1,0,-1
EndSplineSet
Validated: 1
EndChar

StartChar: uni0428
Encoding: 1064 1064 220
Width: 859
VWidth: 0
Flags: W
HStem: -18 70<237.495 370 478 618.48>
VStem: 74 112<98.5513 603.643> 370 108<52 323.047> 662 117<92.6475 591.194>
LayerCount: 2
Back
Fore
SplineSet
662 185 m 2,0,-1
 660 546 l 2,1,2
 660 582 660 582 626 602 c 0,3,4
 615 608 615 608 615 616 c 0,5,6
 615 632 615 632 664 638 c 128,-1,7
 713 644 713 644 761 644 c 0,8,9
 778 644 778 644 778 567 c 2,10,-1
 779 222 l 2,11,12
 779 170 779 170 787 134 c 0,13,14
 797 98 797 98 807 82 c 0,15,16
 836 39 836 39 839 -15 c 1,17,18
 338 -18 338 -18 280 -18 c 0,19,20
 135 -18 135 -18 105 18 c 128,-1,21
 75 54 75 54 74 216 c 1,22,-1
 78 580 l 2,23,24
 78 594 78 594 49 605.5 c 128,-1,25
 20 617 20 617 20 629 c 0,26,27
 20 652 20 652 201 652 c 1,28,29
 191 601 191 601 188.5 530.5 c 128,-1,30
 186 460 186 460 186 318 c 0,31,32
 187 176 187 176 189 152 c 0,33,34
 194 109 194 109 221 84 c 0,35,36
 244 61 244 61 370 52 c 1,37,-1
 368 578 l 2,38,39
 368 592 368 592 339 603.5 c 128,-1,40
 310 615 310 615 310 627 c 0,41,42
 310 650 310 650 492 650 c 1,43,44
 478 575 478 575 478 52 c 1,45,46
 613 58 613 58 635 86 c 0,47,48
 662 120 662 120 662 185 c 2,0,-1
EndSplineSet
Validated: 1
EndChar

StartChar: uni042E
Encoding: 1070 1070 221
Width: 894
VWidth: -15
Flags: W
HStem: -28 54<544.635 703.195> -5 55<62.9851 126.957> 302 78<213 307> 562 55<495.26 643.788>
VStem: 128 85<53.3125 302 380 529.388> 307 102<177.039 300 380 438.56> 762 92<121.434 407.673>
LayerCount: 2
Back
Fore
SplineSet
286 -7 m 1,0,1
 267 -7 267 -7 233.5 0.5 c 128,-1,2
 200 8 200 8 176 8 c 128,-1,3
 152 8 152 8 116 1.5 c 128,-1,4
 80 -5 80 -5 56 -5 c 1,5,6
 56 20 56 20 67 34 c 128,-1,7
 78 48 78 48 92 50 c 0,8,9
 128 56 128 56 128 76 c 2,10,-1
 128 501 l 2,11,12
 128 527 128 527 74 541 c 0,13,14
 54 546 54 546 37 561.5 c 128,-1,15
 20 577 20 577 20 602 c 1,16,17
 132 609 132 609 166.5 609 c 128,-1,18
 201 609 201 609 207 597.5 c 128,-1,19
 213 586 213 586 213 542 c 2,20,-1
 213 380 l 1,21,-1
 314 380 l 1,22,23
 335 498 335 498 409.5 557.5 c 128,-1,24
 484 617 484 617 594 617 c 128,-1,25
 704 617 704 617 779 522 c 128,-1,26
 854 427 854 427 854 301 c 0,27,28
 854 135 854 135 801.5 53.5 c 128,-1,29
 749 -28 749 -28 627 -28 c 0,30,31
 471 -28 471 -28 389 57 c 128,-1,32
 307 142 307 142 307 300 c 1,33,-1
 213 302 l 1,34,-1
 213 76 l 2,35,36
 214 54 214 54 250 48 c 0,37,38
 264 46 264 46 275 32.5 c 128,-1,39
 286 19 286 19 286 -7 c 1,0,1
762 245 m 0,40,41
 762 395 762 395 706.5 478.5 c 128,-1,42
 651 562 651 562 558 562 c 0,43,44
 497 562 497 562 453 493.5 c 128,-1,45
 409 425 409 425 409 319 c 0,46,47
 409 177 409 177 474 101.5 c 128,-1,48
 539 26 539 26 646 26 c 0,49,50
 689 26 689 26 716.5 62.5 c 128,-1,51
 744 99 744 99 753 145 c 128,-1,52
 762 191 762 191 762 245 c 0,40,41
EndSplineSet
Validated: 1
EndChar

StartChar: uni042C
Encoding: 1068 1068 222
Width: 588
VWidth: -15
Flags: W
HStem: -14 62<252.086 438.254> -10 50<29.2836 101.935> 334 58<247.856 370.894>
VStem: 104 106<85.4329 295.178 370 560.98> 483 75<86.7521 206.994>
LayerCount: 2
Back
Fore
SplineSet
210 617 m 1,0,-1
 210 370 l 1,1,2
 233 392 233 392 329.5 392 c 128,-1,3
 426 392 426 392 492 328 c 128,-1,4
 558 264 558 264 558 165 c 0,5,6
 558 116 558 116 538.5 79 c 128,-1,7
 519 42 519 42 489 23 c 0,8,9
 430 -14 430 -14 362 -14 c 128,-1,10
 294 -14 294 -14 247.5 -1.5 c 128,-1,11
 201 11 201 11 181 11 c 128,-1,12
 161 11 161 11 143 6 c 0,13,14
 85 -10 85 -10 41 -10 c 0,15,16
 32 -10 32 -10 26 -4 c 128,-1,17
 20 2 20 2 20 13 c 128,-1,18
 20 24 20 24 29 32 c 128,-1,19
 38 40 38 40 56.5 40 c 128,-1,20
 75 40 75 40 87.5 43.5 c 128,-1,21
 100 47 100 47 102 50 c 128,-1,22
 104 53 104 53 104 60 c 2,23,-1
 104 549 l 1,24,25
 33 586 33 586 33 598 c 0,26,27
 33 612 33 612 69.5 614.5 c 128,-1,28
 106 617 106 617 210 617 c 1,0,-1
441.5 72 m 128,-1,30
 483 96 483 96 483 141.5 c 131,-1,31
 483 187 483 187 423.5 260.5 c 128,-1,32
 364 334 364 334 314 334 c 0,33,34
 234 334 234 334 210 248 c 1,35,-1
 210 136 l 2,36,37
 210 98 210 98 247.5 73 c 128,-1,38
 285 48 285 48 342.5 48 c 128,-1,29
 400 48 400 48 441.5 72 c 128,-1,30
EndSplineSet
Validated: 8388609
EndChar

StartChar: uni042A
Encoding: 1066 1066 223
Width: 620
VWidth: -15
Flags: W
HStem: -14 64<280.881 477.352> -10 50<61.799 133.42> 334 58<279.856 402.894>
VStem: 20 45<448.062 511> 137 105<85.1699 295.178 370 519> 515 75<83.5014 206.803>
LayerCount: 2
Back
Fore
SplineSet
242 617 m 1,0,-1
 242 370 l 1,1,2
 265 392 265 392 361.5 392 c 128,-1,3
 458 392 458 392 524 328 c 128,-1,4
 590 264 590 264 590 165 c 0,5,6
 590 116 590 116 570 79 c 128,-1,7
 550 42 550 42 520 23 c 0,8,9
 461 -14 461 -14 393.5 -14 c 128,-1,10
 326 -14 326 -14 279.5 -1.5 c 128,-1,11
 233 11 233 11 213 11 c 128,-1,12
 193 11 193 11 175 6 c 0,13,14
 117 -10 117 -10 73 -10 c 0,15,16
 64 -10 64 -10 58 -4 c 128,-1,17
 52 2 52 2 52 12.5 c 128,-1,18
 52 23 52 23 61.5 31.5 c 128,-1,19
 71 40 71 40 89 40 c 128,-1,20
 107 40 107 40 119 43 c 128,-1,21
 131 46 131 46 133.5 50 c 128,-1,22
 136 54 136 54 136 60 c 2,23,-1
 137 519 l 1,24,-1
 65 511 l 1,25,26
 65 448 65 448 44 448 c 0,27,28
 29 448 29 448 24.5 464 c 128,-1,29
 20 480 20 480 20 511 c 2,30,-1
 20 606 l 1,31,32
 139 616 139 616 242 617 c 1,0,-1
474.5 70.5 m 128,-1,34
 515 91 515 91 515 139 c 131,-1,35
 515 187 515 187 455.5 260.5 c 128,-1,36
 396 334 396 334 346 334 c 0,37,38
 266 334 266 334 242 248 c 1,39,-1
 242 136 l 2,40,41
 242 98 242 98 278.5 74 c 128,-1,42
 315 50 315 50 374.5 50 c 128,-1,33
 434 50 434 50 474.5 70.5 c 128,-1,34
EndSplineSet
Validated: 1
EndChar

StartChar: uni042D
Encoding: 1069 1069 225
Width: 646
VWidth: -12
Flags: W
HStem: -26 108<197.903 365.396> 261 104<372.918 488> 282 103<206 274.082> 566 90<288.955 444.411>
VStem: 32 37<-86.3033 -81.5 -69 64> 156 50<189.863 282> 498 118<365 450.471>
LayerCount: 2
Back
Fore
SplineSet
488 261 m 1,0,1
 416 263 416 263 206 282 c 1,2,3
 202 210 202 210 195 173 c 1,4,5
 175 178 175 178 166 189.5 c 128,-1,6
 157 201 157 201 156 226 c 0,7,8
 154 321 154 321 149 385 c 1,9,-1
 498 365 l 1,10,11
 490 508 490 508 440 548 c 0,12,13
 418 566 418 566 385 566 c 0,14,15
 314 566 314 566 231.5 513 c 128,-1,16
 149 460 149 460 109 404 c 1,17,18
 54 581 54 581 54 618 c 128,-1,19
 54 655 54 655 71 655 c 0,20,21
 85 655 85 655 92.5 642.5 c 128,-1,22
 100 630 100 630 108 598 c 128,-1,23
 116 566 116 566 121 552 c 1,24,25
 167 600 167 600 233 628 c 128,-1,26
 299 656 299 656 364.5 656 c 128,-1,27
 430 656 430 656 490 605 c 128,-1,28
 550 554 550 554 583 479 c 128,-1,29
 616 404 616 404 616 317.5 c 128,-1,30
 616 231 616 231 586.5 153 c 128,-1,31
 557 75 557 75 488.5 24.5 c 128,-1,32
 420 -26 420 -26 320 -26 c 0,33,34
 270 -26 270 -26 226 -13 c 128,-1,35
 182 0 182 0 155 15 c 128,-1,36
 128 30 128 30 76 64 c 1,37,-1
 69 -91 l 1,38,39
 53 -91 53 -91 44.5 -81.5 c 128,-1,40
 36 -72 36 -72 32 -69 c 1,41,42
 32 -2 32 -2 30 142 c 1,43,44
 49 130 49 130 117.5 106 c 128,-1,45
 186 82 186 82 241.5 82 c 128,-1,46
 297 82 297 82 347.5 98 c 128,-1,47
 398 114 398 114 426 142 c 0,48,49
 480 195 480 195 488 261 c 1,0,1
EndSplineSet
Validated: 1
EndChar

StartChar: uni0431
Encoding: 1073 1073 226
Width: 458
VWidth: -15
Flags: W
HStem: -36 64<188.67 303.35> 319 73<179.142 271.469> 521 81<171.027 307.551>
VStem: 30 103<76.6912 284.393 337 486.317> 328 100<76.2334 248.435> 334 59<627.78 659.688>
LayerCount: 2
Back
Fore
SplineSet
182 602 m 3,0,1
 263 602 263 602 295 617 c 0,2,3
 310 624 310 624 322 638 c 128,-1,4
 334 652 334 652 334 672 c 1,5,6
 368 672 368 672 386 642 c 0,7,8
 392 632 392 632 393 618 c 0,9,10
 393 589 393 589 356 555 c 128,-1,11
 319 521 319 521 260.5 521 c 128,-1,12
 202 521 202 521 166.5 495.5 c 128,-1,13
 131 470 131 470 131 431 c 2,14,-1
 133 337 l 1,15,16
 194 392 194 392 261 392 c 0,17,18
 345 392 345 392 386.5 322.5 c 128,-1,19
 428 253 428 253 428 144 c 0,20,21
 428 92 428 92 369 28 c 128,-1,22
 310 -36 310 -36 240 -36 c 0,23,24
 143 -36 143 -36 86.5 17.5 c 128,-1,25
 30 71 30 71 30 174 c 2,26,-1
 30 425 l 2,27,28
 30 504 30 504 76 553 c 128,-1,29
 122 602 122 602 182 602 c 3,0,1
262 28 m 131,-1,31
 328 28 328 28 328 165 c 0,32,33
 328 216 328 216 295 267.5 c 128,-1,34
 262 319 262 319 223 319 c 0,35,36
 165 319 165 319 133 249 c 1,37,-1
 133 99 l 1,38,30
 196 28 196 28 262 28 c 131,-1,31
EndSplineSet
Validated: 1
EndChar

StartChar: uni0432
Encoding: 1074 1074 227
Width: 403
VWidth: -15
Flags: W
HStem: -9 50<73 262.402> 180 41<134 231.403> 341 48<142.283 243.695>
VStem: 30 103<52.4143 176 224 332.608> 251 98<238.018 333.536> 276 97<56.9333 162.889>
LayerCount: 2
Back
Fore
SplineSet
116 -9 m 0,0,1
 30 -9 30 -9 30 21 c 2,2,-1
 30 289 l 2,3,4
 30 339 30 339 80.5 364 c 128,-1,5
 131 389 131 389 198.5 389 c 128,-1,6
 266 389 266 389 307.5 359 c 128,-1,7
 349 329 349 329 349 286 c 0,8,9
 349 256 349 256 334.5 239 c 128,-1,10
 320 222 320 222 278 201 c 1,11,12
 331 184 331 184 347 170 c 0,13,14
 373 147 373 147 373 115 c 0,15,16
 373 60 373 60 310 25.5 c 128,-1,17
 247 -9 247 -9 116 -9 c 0,0,1
190 341 m 0,18,19
 134 341 134 341 134 286 c 2,20,-1
 134 224 l 1,21,22
 152 221 152 221 182.5 221 c 128,-1,23
 213 221 213 221 232 236 c 0,24,25
 251 252 251 252 251 272 c 0,26,27
 251 307 251 307 243 320 c 0,28,29
 233 340 233 340 190 341 c 0,18,19
133 176 m 1,30,-1
 133 111 l 2,31,32
 133 65 133 65 149 52 c 0,33,34
 159 42 159 42 197 41 c 0,35,36
 275 41 275 41 276 101 c 0,37,38
 276 143 276 143 257.5 161.5 c 128,-1,39
 239 180 239 180 199.5 180 c 128,-1,40
 160 180 160 180 133 176 c 1,30,-1
EndSplineSet
Validated: 1
EndChar

StartChar: uni0433
Encoding: 1075 1075 228
Width: 365
VWidth: -4
Flags: W
HStem: -12 63<128.872 234.901> 340 45<86 228.662>
VStem: 30 88<69.0045 164> 235 97<234.5 314.148>
LayerCount: 2
Back
Fore
SplineSet
282 135 m 1,0,1
 335 116 335 116 335 68 c 128,-1,2
 335 20 335 20 313 4 c 128,-1,3
 291 -12 291 -12 219.5 -12 c 128,-1,4
 148 -12 148 -12 89 31 c 128,-1,5
 30 74 30 74 30 149 c 0,6,7
 30 179 30 179 62 204 c 0,8,9
 94 230 94 230 132 242 c 0,10,11
 234 275 234 275 235 298 c 0,12,13
 235 316 235 316 219 328 c 128,-1,14
 203 340 203 340 186 340 c 0,15,16
 161 340 161 340 147 310 c 0,17,18
 134 282 134 282 99 281 c 0,19,20
 77 281 77 281 61.5 297 c 128,-1,21
 46 313 46 313 46 335 c 0,22,23
 46 385 46 385 126 385 c 0,24,25
 235 385 235 385 296 329 c 0,26,27
 332 296 332 296 332 247 c 0,28,29
 332 222 332 222 278.5 201.5 c 128,-1,30
 225 181 225 181 171.5 158.5 c 128,-1,31
 118 136 118 136 118 107 c 0,32,33
 118 85 118 85 133 68 c 128,-1,34
 148 51 148 51 168 51 c 0,35,36
 202 51 202 51 228 62 c 0,37,38
 241 68 241 68 258 92 c 0,39,40
 272 119 272 119 282 135 c 1,0,1
EndSplineSet
Validated: 1
EndChar

StartChar: uni0434
Encoding: 1076 1076 229
Width: 448
VWidth: -3
Flags: W
HStem: -19 69<224.157 321.022> 316 69<135.763 247.199> 556 67<162.671 257.38>
VStem: 30 95<166.085 293.159> 68 91<506.287 555.523> 318 100<365 497.163> 328 90<77.8167 211.896>
LayerCount: 2
Back
Fore
SplineSet
380 47 m 0,0,1
 338 -19 338 -19 251.5 -19 c 128,-1,2
 165 -19 165 -19 97.5 44.5 c 128,-1,3
 30 108 30 108 30 188 c 0,4,5
 30 285 30 285 84 335 c 128,-1,6
 138 385 138 385 234 385 c 0,7,8
 280 385 280 385 318 365 c 1,9,10
 318 422 l 2,11,12
 318 483 318 483 277 519.5 c 128,-1,13
 236 556 236 556 182 556 c 0,14,15
 170 556 170 556 159 526 c 0,16,17
 155 515 155 515 143.5 505.5 c 128,-1,18
 132 496 132 496 116.5 496 c 128,-1,19
 101 496 101 496 84.5 511 c 128,-1,20
 68 526 68 526 68 547 c 0,21,22
 68 582 68 582 103.5 602.5 c 128,-1,23
 139 623 139 623 205 623 c 3,24,25
 302 623 302 623 358 576 c 0,26,27
 418 526 418 526 418 440 c 2,28,-1
 418 216 l 2,29,30
 418 107 418 107 380 47 c 0,0,1
328 114 m 0,31,32
 328 183 328 183 284.5 249.5 c 128,-1,33
 241 316 241 316 196.5 316 c 128,-1,34
 152 316 152 316 138.5 304 c 128,-1,35
 125 292 125 292 125 254 c 0,36,37
 125 182 125 182 180 116 c 128,-1,38
 235 50 235 50 273 50 c 128,-1,39
 311 50 311 50 319.5 61 c 128,-1,40
 328 72 328 72 328 114 c 0,31,32
EndSplineSet
Validated: 1
EndChar

StartChar: uni0436
Encoding: 1078 1078 230
Width: 563
VWidth: -15
Flags: W
HStem: -12 45<36.0054 69.6431 494.59 527.936> 352 45<497.262 509.739>
VStem: 236 89<-0.207642 169.997 226 390.721>
DStem2: 108 361.5 130 262 0.67467 -0.738119<-38.8717 145.187> 382 282 388 218 0.68672 0.726923<-45.1024 153.689>
LayerCount: 2
Back
Fore
SplineSet
237 -27 m 1,0,-1
 235 131 l 2,1,2
 235 144 235 144 228.5 157 c 128,-1,3
 222 170 222 170 218 170 c 0,4,5
 206 170 206 170 184 124 c 0,6,7
 118 -12 118 -12 100 -12 c 0,8,9
 80 -12 80 -12 58 -7 c 128,-1,10
 36 -2 36 -2 36 10 c 0,11,12
 36 33 36 33 50 33 c 0,13,14
 59 34 59 34 78 70 c 0,15,16
 148 205 148 205 166 224 c 1,17,18
 161 230 161 230 130 262 c 0,19,20
 60 336 60 336 30 344 c 1,21,22
 51 397 51 397 68 397 c 0,23,24
 75 397 75 397 108 361.5 c 128,-1,25
 141 326 141 326 180.5 282.5 c 128,-1,26
 220 239 220 239 236 226 c 1,27,-1
 236 360 l 2,28,29
 236 377 236 377 274 402 c 0,30,31
 296 416 296 416 324 418 c 1,32,-1
 325 226 l 1,33,34
 342 238 342 238 382 282 c 0,35,36
 404 303 404 303 456 362 c 0,37,38
 486 397 486 397 496 397 c 3,39,40
 513 397 513 397 533 352 c 1,41,42
 502 343 502 343 426 259 c 0,43,44
 394 224 394 224 388 218 c 1,45,46
 407 198 407 198 435 150 c 0,47,48
 504 32 504 32 516 32 c 0,49,50
 526 32 526 32 528 29 c 128,-1,51
 530 26 530 26 530 12 c 0,52,53
 530 -12 530 -12 464 -12 c 0,54,55
 446 -12 446 -12 377 124 c 0,56,57
 354 170 354 170 342 170 c 0,58,59
 338 170 338 170 331.5 156.5 c 128,-1,60
 325 143 325 143 325 130 c 2,61,-1
 325 31 l 2,62,63
 325 23 325 23 312.5 9.5 c 128,-1,64
 300 -4 300 -4 288 -12 c 0,65,66
 266 -26 266 -26 237 -27 c 1,0,-1
EndSplineSet
Validated: 1
EndChar

StartChar: uni0437
Encoding: 1079 1079 231
Width: 398
VWidth: -13
Flags: W
HStem: -12 50<132.234 250.612> 12.5 105.5<46.0851 89.871> 335 58<116.035 222.818>
VStem: 228 121<259.719 327.891> 263 105<51.4414 172.501>
LayerCount: 2
Back
Fore
SplineSet
98 294 m 0,0,1
 88 281 88 281 76 281 c 131,-1,2
 64 281 64 281 48.5 301.5 c 128,-1,3
 33 322 33 322 33 341 c 0,4,5
 33 346 33 346 55 358 c 128,-1,6
 77 370 77 370 116 381.5 c 128,-1,7
 155 393 155 393 203 393 c 128,-1,8
 251 393 251 393 300 366 c 128,-1,9
 349 339 349 339 349 303 c 0,10,11
 349 280 349 280 330.5 262 c 128,-1,12
 312 244 312 244 276 230 c 1,13,14
 309 224 309 224 338.5 193.5 c 128,-1,15
 368 163 368 163 368 122 c 0,16,17
 368 59 368 59 325 23.5 c 128,-1,18
 282 -12 282 -12 197 -12 c 0,19,20
 151 -12 151 -12 90.5 12.5 c 128,-1,21
 30 37 30 37 30 54 c 0,22,23
 30 75 30 75 41 96.5 c 128,-1,24
 52 118 52 118 63 118 c 0,25,26
 68 118 68 118 88 98 c 0,27,28
 148 38 148 38 191.5 38 c 128,-1,29
 235 38 235 38 249 54 c 128,-1,30
 263 70 263 70 263 126 c 0,31,32
 263 154 263 154 233.5 180 c 128,-1,33
 204 206 204 206 144 230 c 1,34,35
 198 248 198 248 219 272 c 0,36,37
 228 282 228 282 228 293 c 0,38,39
 228 335 228 335 166 335 c 3,40,41
 132 335 132 335 98 294 c 0,0,1
EndSplineSet
Validated: 1
EndChar

StartChar: uni043A
Encoding: 1082 1082 232
Width: 411
VWidth: -15
Flags: W
HStem: -22 38<357.005 390.133> 354 50<317.726 339.778>
VStem: 30 93<4.75769 181.997 222 384.558>
DStem2: 186.5 281.5 224 238 0.71236 0.701814<-5.20517 170.054> 279.5 160 186.5 131 0.518232 -0.85524<-88.7092 161.828>
LayerCount: 2
Back
Fore
SplineSet
355 354 m 1,0,1
 325 346 325 346 260 276 c 0,2,3
 234 248 234 248 224 238 c 1,4,5
 245 217 245 217 279.5 160 c 128,-1,6
 314 103 314 103 340.5 59.5 c 128,-1,7
 367 16 367 16 379 16 c 128,-1,8
 391 16 391 16 391 0 c 0,9,10
 391 -11 391 -11 355.5 -16.5 c 128,-1,11
 320 -22 320 -22 292 -22 c 0,12,13
 274 -22 274 -22 244.5 29 c 128,-1,14
 215 80 215 80 186.5 131 c 128,-1,15
 158 182 158 182 144 182 c 0,16,17
 139 182 139 182 131 168 c 128,-1,18
 123 154 123 154 123 141 c 2,19,-1
 123 36 l 2,20,21
 123 19 123 19 90.5 -2.5 c 128,-1,22
 58 -24 58 -24 30 -24 c 1,23,-1
 30 358 l 2,24,25
 30 373 30 373 62.5 390.5 c 128,-1,26
 95 408 95 408 121 408 c 1,27,-1
 123 222 l 1,28,29
 142 235 142 235 186.5 281.5 c 128,-1,30
 231 328 231 328 268.5 366 c 128,-1,31
 306 404 306 404 314.5 404 c 128,-1,32
 323 404 323 404 333 392 c 0,33,34
 343 378 343 378 355 354 c 1,0,1
EndSplineSet
Validated: 1
EndChar

StartChar: uni043B
Encoding: 1083 1083 233
Width: 485
VWidth: -3
Flags: W
HStem: -20 68<43.1569 149.5> 302 80<242.486 341.616>
VStem: 138 89<68.5994 286.727> 357 98<3.71118 285.497>
LayerCount: 2
Back
Fore
SplineSet
126 -20 m 3,0,1
 91 -20 91 -20 66 -10 c 128,-1,2
 41 0 41 0 31 15 c 0,3,4
 11 43 11 43 11 66 c 0,5,6
 11 72 11 72 17 72 c 128,-1,7
 23 72 23 72 44.5 60 c 128,-1,8
 66 48 66 48 79 48 c 0,9,10
 138 48 138 48 138 183 c 0,11,12
 138 235 138 235 147.5 276.5 c 128,-1,13
 157 318 157 318 186.5 350 c 128,-1,14
 216 382 216 382 264 382 c 0,15,16
 354 382 354 382 452 368 c 1,17,-1
 455 -19 l 1,18,19
 397 -19 397 -19 377 6 c 128,-1,20
 357 31 357 31 357 101 c 2,21,-1
 357 240 l 2,22,23
 357 270 357 270 339.5 286 c 128,-1,24
 322 302 322 302 298 302 c 0,25,26
 250 302 250 302 238.5 271.5 c 128,-1,27
 227 241 227 241 227 145 c 0,28,29
 227 88 227 88 200 34 c 128,-1,30
 173 -20 173 -20 126 -20 c 3,0,1
EndSplineSet
Validated: 1
EndChar

StartChar: uni043C
Encoding: 1084 1084 234
Width: 507
VWidth: -15
Flags: W
HStem: -22 36<131 164.632 340.157 363.812>
VStem: 40 91<12.1995 251> 370 85<15.1584 248>
DStem2: 254 183 131 251 0.481025 -0.876707<-113.53 35.3553> 271 152 255 25 0.438336 0.898811<0 129.681>
LayerCount: 2
Back
Fore
SplineSet
458 388 m 1,0,-1
 455 347 l 1,1,-1
 455 36 l 2,2,3
 455 28 455 28 465.5 14 c 128,-1,4
 476 0 476 0 477 -22 c 1,5,-1
 335 -22 l 1,6,7
 335 -2 335 -2 340 4.5 c 128,-1,8
 345 11 345 11 352 11 c 3,9,10
 358 11 358 11 364 15 c 0,11,12
 370 20 370 20 370 34 c 2,13,-1
 370 248 l 1,14,15
 367 241 367 241 255 25 c 1,16,17
 254 29 254 29 230 70 c 0,18,19
 152 204 152 204 131 251 c 1,20,-1
 131 24 l 2,21,22
 131 14 131 14 142 14 c 0,23,24
 178 11 178 11 178 -22 c 1,25,-1
 30 -22 l 1,26,27
 31 0 31 0 35.5 10 c 128,-1,28
 40 20 40 20 40 31 c 2,29,-1
 40 344 l 2,30,31
 40 346 40 346 38 356 c 128,-1,32
 36 366 36 366 36 387 c 1,33,-1
 120 387 l 2,34,35
 141 387 141 387 254 183 c 0,36,37
 265 162 265 162 271 152 c 1,38,39
 276 162 276 162 290 192 c 0,40,41
 348 318 348 318 370 355 c 0,42,43
 388 386 388 386 397 386 c 2,44,-1
 458 388 l 1,0,-1
EndSplineSet
Validated: 1
EndChar

StartChar: uni043D
Encoding: 1085 1085 235
Width: 432
VWidth: -3
Flags: W
HStem: 121 78<157 311>
VStem: 58 99<-1.6687 121 199 328.562> 311 91<0.727295 121 199 350.333>
LayerCount: 2
Back
Fore
SplineSet
10 364 m 3,0,1
 10 392 10 392 53.5 392 c 131,-1,2
 97 392 97 392 133 372 c 0,3,4
 157 358 157 358 157 335 c 2,5,-1
 157 199 l 1,6,-1
 311 199 l 1,7,8
 311 296 l 2,9,10
 311 369 311 369 288 390 c 1,11,12
 316 390 316 390 346 379 c 128,-1,13
 376 368 376 368 388 351 c 0,14,15
 402 330 402 330 402 265 c 2,16,-1
 402 29 l 2,17,18
 402 14 402 14 370 -6 c 0,19,20
 341 -25 341 -25 313 -29 c 1,21,22
 311 83 311 83 311 121 c 1,23,-1
 157 121 l 1,24,25
 157 35 l 2,26,27
 157 10 157 10 122 -10 c 0,28,29
 91 -29 91 -29 58 -29 c 1,30,-1
 58 163 l 2,31,32
 58 315 58 315 37 328 c 0,33,34
 10 346 10 346 10 364 c 3,0,1
EndSplineSet
Validated: 1
EndChar

StartChar: uni0444
Encoding: 1092 1092 236
Width: 602
VWidth: 8
Flags: W
HStem: -172 68<185.151 268 334 427.877> -11 67<130.794 246.569 355.505 471.206> 313 82<162.027 232.87 369.867 439.563>
VStem: 30 91<79.2125 260.754> 268 66<-104 19 77.9089 294.976 329 370> 481 91<79.2125 260.754>
CounterMasks: 1 1c
LayerCount: 2
Back
Fore
SplineSet
334 370 m 1,0,-1
 334 329 l 1,1,2
 344 340 344 340 350 350 c 0,3,4
 382 394 382 394 417 395 c 0,5,6
 477 395 477 395 524.5 334.5 c 128,-1,7
 572 274 572 274 572 225 c 0,8,9
 572 120 572 120 539.5 54.5 c 128,-1,10
 507 -11 507 -11 435 -11 c 0,11,12
 394 -11 394 -11 374.5 -4 c 128,-1,13
 355 3 355 3 334 19 c 1,14,-1
 334 -104 l 1,15,16
 409 -104 409 -104 428.5 -119.5 c 128,-1,17
 448 -135 448 -135 448 -174 c 1,18,19
 331 -172 331 -172 301 -172 c 2,20,-1
 164 -174 l 1,21,22
 164 -138 164 -138 184.5 -121 c 128,-1,23
 205 -104 205 -104 268 -104 c 1,24,-1
 268 19 l 1,25,26
 254 8 254 8 244 2 c 0,27,28
 221 -11 221 -11 167 -11 c 0,29,30
 95 -11 95 -11 62.5 54.5 c 128,-1,31
 30 120 30 120 30 225 c 0,32,33
 30 274 30 274 78 334.5 c 128,-1,34
 126 395 126 395 186 395 c 0,35,36
 222 394 222 394 252 350 c 0,37,38
 262 334 262 334 268 329 c 1,39,-1
 268 370 l 1,40,-1
 334 370 l 1,0,-1
204 313 m 0,41,42
 169 313 169 313 145 264.5 c 128,-1,43
 121 216 121 216 121 159.5 c 128,-1,44
 121 103 121 103 129.5 79.5 c 128,-1,45
 138 56 138 56 166 56 c 0,46,47
 255 56 255 56 268 115 c 1,48,-1
 268 260 l 1,49,50
 255 286 255 286 241.5 299.5 c 128,-1,51
 228 313 228 313 204 313 c 0,41,42
398 313 m 0,52,53
 374 313 374 313 360.5 299.5 c 128,-1,54
 347 286 347 286 334 260 c 1,55,-1
 334 115 l 1,56,57
 347 56 347 56 436 56 c 0,58,59
 464 56 464 56 472.5 79.5 c 128,-1,60
 481 103 481 103 481 159.5 c 128,-1,61
 481 216 481 216 457 264.5 c 128,-1,62
 433 313 433 313 398 313 c 0,52,53
EndSplineSet
Validated: 1
EndChar

StartChar: uni0446
Encoding: 1094 1094 237
Width: 449
VWidth: -4
Flags: W
HStem: -15 78<164.314 262.973>
VStem: 33 93<104.703 378.978> 308 102<247.908 372.667> 319 82<118.806 309.192> 364 65<-82.6644 17.7129>
LayerCount: 2
Back
Fore
SplineSet
33 185 m 2,0,-1
 34 335 l 1,1,2
 30 350 30 350 30 367 c 0,3,4
 30 393 30 393 130 393 c 1,5,6
 126 264 126 264 126 221 c 0,7,8
 126 134 126 134 151.5 98.5 c 128,-1,9
 177 63 177 63 236 63 c 0,10,11
 272 63 272 63 295.5 115.5 c 128,-1,12
 319 168 319 168 319 245.5 c 128,-1,13
 319 323 319 323 313.5 345.5 c 128,-1,14
 308 368 308 368 308 374 c 0,15,16
 308 395 308 395 394 395 c 0,17,18
 410 395 410 395 410 311 c 0,19,20
 410 253 410 253 407.5 214.5 c 128,-1,21
 405 176 405 176 405 165 c 128,-1,22
 405 154 405 154 403 146 c 2,23,-1
 401 130 l 1,24,25
 401 93 401 93 415 70.5 c 128,-1,26
 429 48 429 48 429 39 c 0,27,28
 429 -32 429 -32 422.5 -58.5 c 128,-1,29
 416 -85 416 -85 396 -85 c 0,30,31
 381 -85 381 -85 372.5 -65.5 c 128,-1,32
 364 -46 364 -46 364 -24 c 0,33,34
 364 9 364 9 351 18 c 0,35,36
 345 23 345 23 310 41 c 1,37,38
 275 11 275 11 244 -2 c 128,-1,39
 213 -15 213 -15 168.5 -15 c 128,-1,40
 124 -15 124 -15 98 3 c 0,41,42
 73 21 73 21 59 51 c 0,43,44
 33 108 33 108 33 185 c 2,0,-1
EndSplineSet
Validated: 1
EndChar

StartChar: uni0447
Encoding: 1095 1095 238
Width: 440
VWidth: -4
Flags: W
HStem: 105 78<159.457 296.176>
VStem: 30 104<236.63 368.487> 41 93<207.513 356.502> 317 78<-20.1353 141 207.237 299.482> 320 90<208.219 345.004>
LayerCount: 2
Back
Fore
SplineSet
395 0 m 1,0,1
 384 -17 384 -17 357 -28 c 1,2,-1
 317 -39 l 1,3,4
 316 101 316 101 313 141 c 1,5,6
 291 119 291 119 259 112 c 128,-1,7
 227 105 227 105 172.5 105 c 128,-1,8
 118 105 118 105 79.5 147.5 c 128,-1,9
 41 190 41 190 41 233 c 128,-1,10
 41 276 41 276 43.5 301.5 c 128,-1,11
 46 327 46 327 46 333 c 1,12,13
 30 341 30 341 30 357 c 128,-1,14
 30 373 30 373 79 379.5 c 128,-1,15
 128 386 128 386 164 386 c 1,16,17
 143 339 143 339 138.5 322.5 c 128,-1,18
 134 306 134 306 134 266 c 128,-1,19
 134 226 134 226 159 204.5 c 128,-1,20
 184 183 184 183 243 183 c 0,21,22
 277 183 277 183 298.5 206.5 c 128,-1,23
 320 230 320 230 320 264 c 128,-1,24
 320 298 320 298 315.5 317 c 128,-1,25
 311 336 311 336 305 340 c 0,26,27
 290 349 290 349 290 362 c 0,28,29
 290 384 290 384 394 384 c 0,30,31
 410 384 410 384 410 322 c 0,32,33
 410 223 410 223 398 52 c 2,34,-1
 395 0 l 1,0,1
EndSplineSet
Validated: 1
EndChar

StartChar: uni0449
Encoding: 1097 1097 239
Width: 724
VWidth: -4
Flags: W
HStem: -15 78<142 280.187 403.75 537.391>
VStem: 34 93<101.139 376.978> 304 97<103.139 378.978> 594 90<125.407 368.407> 639 65<-82.6644 23.8899>
LayerCount: 2
Back
Fore
SplineSet
308 185 m 2,0,-1
 309 335 l 1,1,2
 304 350 304 350 304 367 c 0,3,4
 304 393 304 393 405 393 c 1,5,6
 401 264 401 264 401 221 c 0,7,8
 401 134 401 134 426 98.5 c 128,-1,9
 451 63 451 63 510 63 c 0,10,11
 546 63 546 63 570 115.5 c 128,-1,12
 594 168 594 168 594 245.5 c 128,-1,13
 594 323 594 323 588.5 345.5 c 128,-1,14
 583 368 583 368 583 374 c 0,15,16
 583 395 583 395 669 395 c 0,17,18
 684 395 684 395 684 294.5 c 128,-1,19
 684 194 684 194 676 130 c 1,20,21
 676 93 676 93 690 70.5 c 128,-1,22
 704 48 704 48 704 39 c 0,23,24
 704 -32 704 -32 697.5 -58.5 c 128,-1,25
 691 -85 691 -85 671 -85 c 0,26,27
 656 -85 656 -85 647.5 -65.5 c 128,-1,28
 639 -46 639 -46 639 -24.5 c 128,-1,29
 639 -3 639 -3 634.5 6 c 128,-1,30
 630 15 630 15 626 18 c 0,31,32
 620 23 620 23 585 41 c 1,33,34
 550 11 550 11 518.5 -2 c 128,-1,35
 487 -15 487 -15 431.5 -15 c 128,-1,36
 376 -15 376 -15 343 34 c 1,37,38
 298 -17 298 -17 160 -17 c 0,39,40
 124 -17 124 -17 98 1 c 0,41,42
 72 20 72 20 59 50 c 0,43,44
 34 109 34 109 34 183 c 2,45,-1
 34 333 l 1,46,47
 30 348 30 348 30 365 c 0,48,49
 30 391 30 391 130 391 c 1,50,51
 127 262 127 262 127 219 c 0,52,53
 127 132 127 132 152 96.5 c 128,-1,54
 177 61 177 61 236 61 c 0,55,56
 260 61 260 61 280 85 c 0,57,58
 308 120 308 120 308 185 c 2,0,-1
EndSplineSet
Validated: 1
EndChar

StartChar: uni0448
Encoding: 1096 1096 240
Width: 722
VWidth: -4
Flags: W
HStem: -17 78<144.282 278.166 408.312 533.042>
VStem: 34 93<101.139 376.978> 304 97<103.139 378.978> 594 90<125.407 368.407>
LayerCount: 2
Back
Fore
SplineSet
669 395 m 0,0,1
 684 395 684 395 684 294.5 c 128,-1,2
 684 194 684 194 676 130 c 1,3,4
 676 112 676 112 689 74.5 c 128,-1,5
 702 37 702 37 702 16 c 128,-1,6
 702 -5 702 -5 696 -12.5 c 128,-1,7
 690 -20 690 -20 672 -20 c 0,8,9
 639 -20 639 -20 584 41 c 1,10,11
 549 11 549 11 518 -2 c 128,-1,12
 487 -15 487 -15 431.5 -15 c 128,-1,13
 376 -15 376 -15 343 34 c 1,14,15
 298 -17 298 -17 160 -17 c 0,16,17
 124 -17 124 -17 98 1 c 0,18,19
 72 20 72 20 59 50 c 0,20,21
 34 109 34 109 34 183 c 2,22,-1
 34 333 l 1,23,24
 30 348 30 348 30 365 c 0,25,26
 30 391 30 391 130 391 c 1,27,28
 127 262 127 262 127 219 c 0,29,30
 127 132 127 132 152 96.5 c 128,-1,31
 177 61 177 61 236 61 c 0,32,33
 260 61 260 61 280 85 c 0,34,35
 308 120 308 120 308 185 c 2,36,-1
 309 335 l 1,37,38
 304 350 304 350 304 367 c 0,39,40
 304 393 304 393 405 393 c 1,41,42
 401 264 401 264 401 221 c 0,43,44
 401 134 401 134 426 98.5 c 128,-1,45
 451 63 451 63 510 63 c 0,46,47
 546 63 546 63 570 115.5 c 128,-1,48
 594 168 594 168 594 245.5 c 128,-1,49
 594 323 594 323 588.5 345.5 c 128,-1,50
 583 368 583 368 583 374 c 0,51,52
 583 395 583 395 669 395 c 0,0,1
EndSplineSet
Validated: 1
EndChar

StartChar: uni044A
Encoding: 1098 1098 241
Width: 454
VWidth: -15
Flags: W
HStem: -36 62<189.632 328.932> 170 68<199.357 311.067>
VStem: 95 88<40.6876 163.353 206 300> 339 85<37.3792 142.412>
LayerCount: 2
Back
Fore
SplineSet
64.5 285.5 m 128,-1,1
 44 279 44 279 32 279 c 128,-1,2
 20 279 20 279 20 298 c 0,3,4
 21 336 21 336 61 369 c 0,5,6
 105 405 105 405 183 405 c 1,7,-1
 183 206 l 1,8,9
 230 238 230 238 293.5 238 c 128,-1,10
 357 238 357 238 390.5 193.5 c 128,-1,11
 424 149 424 149 424 79 c 0,12,13
 424 45 424 45 375.5 4.5 c 128,-1,14
 327 -36 327 -36 269 -36 c 0,15,16
 187 -36 187 -36 140.5 -2.5 c 128,-1,17
 94 31 94 31 94 97 c 2,18,-1
 95 300 l 1,19,0
 85 292 85 292 64.5 285.5 c 128,-1,1
183 53 m 1,20,21
 215 26 215 26 285 26 c 0,22,23
 315 26 315 26 327 41.5 c 128,-1,24
 339 57 339 57 339 89.5 c 128,-1,25
 339 122 339 122 313 146 c 128,-1,26
 287 170 287 170 254 170 c 0,27,28
 194 170 194 170 183 145 c 1,29,-1
 183 53 l 1,20,21
EndSplineSet
Validated: 1
EndChar

StartChar: uni044B
Encoding: 1099 1099 242
Width: 536
VWidth: -15
Flags: W
HStem: -36 62<115.483 255.431> 170 68<125.207 238.317>
VStem: 21 88<40 163.353 206 389.712> 266 85<38.2324 142.413> 412 93<-4.74463 385.516>
LayerCount: 2
Back
Fore
SplineSet
505 413 m 1,0,-1
 506 28 l 2,1,2
 505 20 505 20 493 6 c 0,3,4
 481 -8 481 -8 467 -16 c 0,5,6
 440 -32 440 -32 413 -32 c 1,7,-1
 412 353 l 2,8,9
 413 362 413 362 425 376 c 0,10,11
 437 390 437 390 451 397 c 0,12,13
 478 413 478 413 505 413 c 1,0,-1
EndSplineSet
Refer: 243 1100 N 1 0 0 1 -9 0 2
Validated: 1
EndChar

StartChar: uni044C
Encoding: 1100 1100 243
Width: 390
VWidth: -15
Flags: W
HStem: -36 62<124.483 264.431> 170 68<134.207 247.317>
VStem: 30 88<40 163.353 206 389.712> 275 85<38.2324 142.413>
LayerCount: 2
Back
Fore
SplineSet
118 405 m 1,0,-1
 118 206 l 1,1,2
 164 238 164 238 228 238 c 128,-1,3
 292 238 292 238 326 193.5 c 128,-1,4
 360 149 360 149 360 79 c 0,5,6
 360 45 360 45 312 4.5 c 128,-1,7
 264 -36 264 -36 205 -36 c 0,8,9
 124 -36 124 -36 77 -2 c 128,-1,10
 30 32 30 32 30 98 c 2,11,-1
 30 345 l 2,12,13
 30 381 30 381 50 390 c 0,14,15
 80 404 80 404 118 405 c 1,0,-1
118 53 m 1,16,17
 150 26 150 26 220 26 c 0,18,19
 251 26 251 26 263 42 c 128,-1,20
 275 58 275 58 275 90 c 128,-1,21
 275 122 275 122 249 146 c 128,-1,22
 223 170 223 170 189 170 c 0,23,24
 129 170 129 170 118 145 c 1,25,-1
 118 53 l 1,16,17
EndSplineSet
Validated: 1
EndChar

StartChar: uni044D
Encoding: 1101 1101 244
Width: 361
VWidth: -12
Flags: W
HStem: -26 66<84.1313 201.61> 132 85<148.333 223> 144 83<96.4802 172.667> 324 71<121.023 208.663>
VStem: 231 100<217 295.552>
LayerCount: 2
Back
Fore
SplineSet
223 132 m 1,0,-1
 98 144 l 1,1,2
 88 187 88 187 85 227 c 1,3,-1
 231 217 l 1,4,5
 227 324 227 324 163 324 c 0,6,7
 121 324 121 324 64 239 c 1,8,9
 43 247 43 247 43 284 c 0,10,11
 43 299 43 299 71 331 c 0,12,13
 129 395 129 395 197 395 c 0,14,15
 251 395 251 395 291 330 c 128,-1,16
 331 265 331 265 331 182 c 128,-1,17
 331 99 331 99 292 36.5 c 128,-1,18
 253 -26 253 -26 175 -26 c 0,19,20
 123 -26 123 -26 71.5 2.5 c 128,-1,21
 20 31 20 31 20 74 c 0,22,23
 20 86 20 86 23 94 c 1,24,25
 52 72 52 72 86 56 c 128,-1,26
 120 40 120 40 143 40 c 128,-1,27
 166 40 166 40 185 49 c 0,28,29
 221 66 221 66 223 132 c 1,0,-1
EndSplineSet
Validated: 1
EndChar

StartChar: uni044E
Encoding: 1102 1102 245
Width: 593
VWidth: -15
Flags: W
HStem: -9 69<365.086 461.904> 134 61<118 172> 326 69<277.429 388.324>
VStem: 31 87<9.5625 134 195 369.901> 172 95<195.658 302.605> 469 94<94.8322 251>
LayerCount: 2
Back
Fore
SplineSet
118 37 m 2,0,1
 118 30 118 30 106 18 c 0,2,3
 92 6 92 6 80 -2 c 0,4,5
 59 -14 59 -14 31 -16 c 1,6,-1
 30 340 l 2,7,8
 30 347 30 347 42 360 c 0,9,10
 56 373 56 373 68 380 c 0,11,12
 89 392 89 392 117 394 c 1,13,-1
 118 195 l 1,14,-1
 172 195 l 1,15,16
 172 295 172 295 226 345 c 128,-1,17
 280 395 280 395 375 395 c 0,18,19
 445 395 445 395 504 335.5 c 128,-1,20
 563 276 563 276 563 226 c 0,21,22
 563 123 563 123 521.5 57 c 128,-1,23
 480 -9 480 -9 403 -9 c 128,-1,24
 326 -9 326 -9 267 32 c 128,-1,25
 208 73 208 73 184 134 c 1,26,-1
 118 134 l 1,27,-1
 118 37 l 2,0,1
469 124 m 0,28,29
 469 193 469 193 425.5 259.5 c 128,-1,30
 382 326 382 326 337.5 326 c 128,-1,31
 293 326 293 326 280 314 c 128,-1,32
 267 302 267 302 267 264 c 0,33,34
 267 192 267 192 321.5 126 c 128,-1,35
 376 60 376 60 414 60 c 128,-1,36
 452 60 452 60 460.5 71 c 128,-1,37
 469 82 469 82 469 124 c 0,28,29
EndSplineSet
Validated: 1
EndChar

StartChar: uni044F
Encoding: 1103 1103 246
Width: 394
VWidth: -15
Flags: W
HStem: -10 22G<46 103 341 364> 180 41<188.748 265> 341 48<151.274 250.296>
VStem: 44 99<235.193 325.988> 265 99<8.77417 176 224 326.559>
LayerCount: 2
Back
Fore
SplineSet
247 327 m 128,-1,1
 229 341 229 341 205 341 c 3,2,3
 163 341 163 341 151 320 c 0,4,5
 143 304 143 304 143 277.5 c 131,-1,6
 143 251 143 251 161 236 c 0,7,8
 180 221 180 221 213.5 221 c 128,-1,9
 247 221 247 221 265 224 c 1,10,-1
 265 286 l 2,11,0
 265 313 265 313 247 327 c 128,-1,1
128 196 m 1,12,13
 44 224 44 224 44 286 c 0,14,15
 44 329 44 329 85.5 359 c 128,-1,16
 127 389 127 389 194.5 389 c 128,-1,17
 262 389 262 389 313 364 c 128,-1,18
 364 339 364 339 364 289 c 2,19,-1
 364 -9 l 1,20,21
 318 -9 318 -9 303 -1 c 0,22,23
 269 17 269 17 265 38 c 1,24,-1
 265 176 l 1,25,26
 238 180 238 180 201 180 c 0,27,28
 194 180 194 180 179 132 c 0,29,30
 134 -10 134 -10 72 -10 c 0,31,32
 20 -10 20 -10 20 23 c 0,33,34
 21 38 21 38 55 64 c 0,35,36
 69 75 69 75 89.5 110 c 128,-1,37
 110 145 110 145 128 196 c 1,12,13
EndSplineSet
Validated: 1
EndChar

StartChar: rcaron
Encoding: 345 345 247
Width: 386
VWidth: 0
Flags: W
HStem: -17 21G<74 88.5> 306 87<238.428 299.252> 549 32<335.031 365.631>
VStem: 8 72<549.6 575.045> 74 99<13.1725 278.216>
DStem2: 117 518 71 484 0.818482 -0.574532<-60.6551 81.7563> 182 477 254 457 0.77121 0.636581<-8.55997 174.785>
LayerCount: 2
Back
Fore
SplineSet
184 413 m 1,0,1
 132 438 132 438 71 484 c 0,2,3
 8 530 8 530 8 561 c 0,4,5
 8 579 8 579 28 579 c 0,6,7
 32 579 32 579 80 572 c 1,8,-1
 88 547 l 2,9,10
 89 540 89 540 117 518 c 0,11,12
 146 496 146 496 182 477 c 1,13,14
 194 485 194 485 222 515 c 0,15,16
 286 581 286 581 324 581 c 0,17,18
 382 581 382 581 382 549 c 1,19,20
 338 549 338 549 302 501 c 0,21,22
 286 481 286 481 254 457 c 0,23,24
 222 431 222 431 184 413 c 1,0,1
EndSplineSet
Refer: 18 114 N 1 0 0 1 0 0 3
Validated: 1
EndChar

StartChar: Rcaron
Encoding: 344 344 248
Width: 690
VWidth: 0
Flags: W
HStem: -18 56<25.373 145.516> -13 72<617.035 670.898> -6 49<258.743 388.842> 3 53<257 371.106> 274 34<303.539 310.938> 557 44<20.0042 112.133> 571 6<203 342> 808 32<510.715 541.349>
VStem: 135 122<341.875 534.863> 152 106<56 274 339.654 523.883> 478 105<341.846 525.046>
DStem2: 293 776 247 742 0.822449 -0.568839<-40.7409 80.6989> 483 263 475 78 0.560478 -0.828169<2.5761 269.105>
LayerCount: 2
Back
Fore
SplineSet
360 672 m 1,0,1
 309 696 309 696 247 742 c 0,2,3
 185 788 185 788 184 820 c 0,4,5
 184 838 184 838 203 838 c 0,6,7
 206 838 206 838 255 831 c 1,8,-1
 264 806 l 2,9,10
 265 798 265 798 293 776 c 0,11,12
 321 754 321 754 357 736 c 1,13,14
 369 744 369 744 398 774 c 0,15,16
 462 840 462 840 499 840 c 0,17,18
 558 840 558 840 558 808 c 1,19,20
 514 808 514 808 477 760 c 0,21,22
 462 740 462 740 430 716 c 0,23,24
 398 690 398 690 360 672 c 1,0,1
EndSplineSet
Refer: 52 82 N 1 0 0 1 0 0 3
Validated: 1
EndChar

StartChar: Ccaron
Encoding: 268 268 249
Width: 664
VWidth: 0
Flags: W
HStem: -17.5 53.5<346.25 479.312> 593 65<237.734 354.444> 813 32<484.031 514.631>
VStem: 40 101<233.909 453.71> 157 72<813.6 839.045> 585 38<-69 25>
DStem2: 266 782 220 748 0.818482 -0.574532<-60.6551 81.7563> 331 741 403 721 0.77121 0.636581<-8.55997 174.785>
LayerCount: 2
Back
Fore
SplineSet
333 677 m 5,0,1
 281 702 281 702 220 748 c 4,2,3
 157 794 157 794 157 825 c 4,4,5
 157 843 157 843 177 843 c 4,6,7
 181 843 181 843 229 836 c 5,8,-1
 237 811 l 6,9,10
 238 804 238 804 266 782 c 4,11,12
 295 760 295 760 331 741 c 5,13,14
 343 749 343 749 371 779 c 4,15,16
 435 845 435 845 473 845 c 4,17,18
 531 845 531 845 531 813 c 5,19,20
 487 813 487 813 451 765 c 4,21,22
 435 745 435 745 403 721 c 4,23,24
 371 695 371 695 333 677 c 5,0,1
EndSplineSet
Refer: 36 67 N 1 0 0 1 0 0 3
Validated: 1
EndChar

StartChar: ccaron
Encoding: 269 269 250
Width: 414
VWidth: 0
Flags: W
HStem: -19 67<194.676 309.425> 316 73<160.558 274.363> 548 32<362.715 393.349>
VStem: 30 102<109.638 284.232>
DStem2: 144 516 98 482 0.823412 -0.567443<-39.9294 81.3711>
LayerCount: 2
Back
Fore
SplineSet
212 412 m 1,0,1
 160 436 160 436 98 482 c 0,2,3
 36 528 36 528 36 560 c 0,4,5
 36 578 36 578 55 578 c 0,6,7
 58 578 58 578 107 571 c 1,8,-1
 116 546 l 6,9,10
 116 538 116 538 144 516 c 0,11,12
 172 494 172 494 209 476 c 1,13,14
 221 484 221 484 250 514 c 0,15,16
 314 580 314 580 351 580 c 0,17,18
 410 580 410 580 410 548 c 1,19,20
 366 548 366 548 329 500 c 0,21,22
 314 480 314 480 282 456 c 0,23,24
 250 430 250 430 212 412 c 1,0,1
EndSplineSet
Refer: 2 99 N 1 0 0 1 0 0 3
Validated: 1
EndChar

StartChar: Ecaron
Encoding: 282 282 251
Width: 674
VWidth: 0
Flags: W
HStem: -26 108<285.973 459.963> 261 104<167 274.946> 285 105<415.207 519 554 568> 566 90<207.872 354.34> 812 32<433.715 464.631>
VStem: 40 117<365 460.071> 107 71<795.689 835> 568 66<167.755 285> 586 37<-69 57.4231>
DStem2: 216 780 170 746 0.822449 -0.568839<-60.6253 80.8796>
LayerCount: 2
Back
Fore
SplineSet
283 676 m 1,0,1
 232 700 232 700 170 746 c 0,2,3
 108 792 108 792 107 824 c 0,4,5
 107 842 107 842 126 842 c 0,6,7
 129 842 129 842 178 835 c 1,8,9
 191 800 191 800 216 780 c 0,10,11
 244 758 244 758 280 740 c 1,12,13
 292 748 292 748 322 778 c 0,14,15
 388 844 388 844 423 844 c 0,16,17
 481 844 481 844 481 812 c 1,18,19
 437 812 437 812 400 764 c 0,20,21
 386 744 386 744 354 720 c 0,22,23
 322 694 322 694 283 676 c 1,0,1
EndSplineSet
Refer: 3 69 N 1 0 0 1 0 0 3
Validated: 1
EndChar

StartChar: ecaron
Encoding: 283 283 252
Width: 429
VWidth: 0
Flags: W
HStem: -9 71<180.699 315.58> 336 53<165.962 239.625> 549 32<355.715 386.349>
VStem: 30 106<221 287.901>
DStem2: 138 518 92 484 0.82105 -0.570856<-61.6877 81.4011> 136 221 141 161 0.895274 0.445516<0 69.3265 226.816 274.571>
LayerCount: 2
Back
Fore
SplineSet
205 413 m 1,0,1
 154 438 154 438 92 484 c 0,2,3
 30 530 30 530 29 561 c 0,4,5
 29 579 29 579 48 579 c 0,6,7
 51 579 51 579 100 572 c 1,8,-1
 109 547 l 2,9,10
 110 540 110 540 138 518 c 0,11,12
 166 496 166 496 202 477 c 1,13,14
 214 485 214 485 243 515 c 0,15,16
 307 581 307 581 344 581 c 0,17,18
 403 581 403 581 403 549 c 1,19,20
 359 549 359 549 322 501 c 0,21,22
 307 481 307 481 275 457 c 0,23,24
 243 431 243 431 205 413 c 1,0,1
EndSplineSet
Refer: 5 101 N 1 0 0 1 0 0 3
Validated: 1
EndChar

StartChar: Dcaron
Encoding: 270 270 253
Width: 641
VWidth: 0
Flags: W
HStem: -21 55<268.645 462.435> 570 44<30.0625 116.727> 583 72<279.934 403.92> 811 32<455.398 486.066>
VStem: 135 105<60.1628 550.619> 518 83<134.87 411.747>
DStem2: 237 780 191 746 0.822019 -0.56946<-61.6367 81.6319>
LayerCount: 2
Back
Fore
SplineSet
305 675 m 1,0,1
 253 700 253 700 191 746 c 0,2,3
 129 792 129 792 129 823 c 0,4,5
 129 841 129 841 147 841 c 0,6,7
 149 841 149 841 199 834 c 1,8,-1
 209 809 l 2,9,10
 210 802 210 802 237 780 c 0,11,12
 265 758 265 758 301 739 c 1,13,14
 313 747 313 747 343 777 c 0,15,16
 407 843 407 843 443 843 c 0,17,18
 503 843 503 843 503 811 c 1,19,20
 459 811 459 811 421 763 c 0,21,22
 407 743 407 743 375 719 c 0,23,24
 343 693 343 693 305 675 c 1,0,1
EndSplineSet
Refer: 37 68 N 1 0 0 1 0 0 3
Validated: 1
EndChar

StartChar: dcaron
Encoding: 271 271 254
Width: 499
VWidth: 0
Flags: W
HStem: -10 76<181.756 263.966> 328 59<164.638 273.45> 602 20G<357 388.5>
VStem: 30 101<122.119 290.309> 302 97<101.193 305.234 365 550.434> 450 111<407.871 576.447>
LayerCount: 2
Back
Fore
SplineSet
503 617 m 0,0,1
 561 617 561 617 561 568 c 0,2,3
 561 518 561 518 547 445 c 0,4,5
 520 303 520 303 450 303 c 1,6,7
 450 617 450 617 503 617 c 0,0,1
EndSplineSet
Refer: 10 100 N 1 0 0 1 0 0 2
Validated: 1
EndChar

StartChar: Ncaron
Encoding: 327 327 255
Width: 716
VWidth: 0
Flags: W
HStem: -15 49<213.512 349.938> -11 57<65.438 139.958 209 335.976> 576 39<43.0349 111.787> 584 54<51.1458 165.679 521.86 584 651 676.75> 797 32<529.715 560.349>
VStem: 140 69<49.9648 438> 584 67<3.47559 43 190 587.451>
DStem2: 367 412 209 438 0.683634 -0.729825<-126.99 310.37> 311 765 265 731 0.823412 -0.567443<-39.9294 81.3711>
LayerCount: 2
Back
Fore
SplineSet
379 661 m 5,0,1
 327 685 327 685 265 731 c 4,2,3
 203 777 203 777 203 809 c 4,4,5
 203 827 203 827 222 827 c 4,6,7
 225 827 225 827 274 820 c 5,8,-1
 283 795 l 6,9,10
 283 787 283 787 311 765 c 4,11,12
 339 743 339 743 376 725 c 5,13,14
 388 733 388 733 417 763 c 4,15,16
 481 829 481 829 518 829 c 4,17,18
 577 829 577 829 577 797 c 5,19,20
 533 797 533 797 496 749 c 4,21,22
 481 729 481 729 449 705 c 4,23,24
 417 679 417 679 379 661 c 5,0,1
EndSplineSet
Refer: 50 78 N 1 0 0 1 0 0 3
Validated: 1
EndChar

StartChar: ncaron
Encoding: 328 328 256
Width: 531
VWidth: 0
Flags: W
HStem: -14 21G<99 124 351 351.5> 321 78<236.232 351.5> 331 69<48.3159 73.3354> 556 32<405.398 436.066>
VStem: 99 100<30.9569 304.281> 362 89<74.3832 282.524>
DStem2: 187 524 141 490 0.823412 -0.567443<-39.9041 80.9173>
LayerCount: 2
Back
Fore
SplineSet
255 420 m 1,0,1
 203 444 203 444 141 490 c 0,2,3
 79 536 79 536 79 568 c 0,4,5
 79 586 79 586 97 586 c 0,6,7
 99 586 99 586 149 579 c 1,8,-1
 159 554 l 2,9,10
 160 546 160 546 187 524 c 0,11,12
 215 502 215 502 251 484 c 1,13,14
 263 492 263 492 293 522 c 0,15,16
 357 588 357 588 393 588 c 0,17,18
 453 588 453 588 453 556 c 1,19,20
 409 556 409 556 371 508 c 0,21,22
 357 488 357 488 325 464 c 0,23,24
 293 438 293 438 255 420 c 1,0,1
EndSplineSet
Refer: 1 110 N 1 0 0 1 0 0 3
Validated: 1
EndChar

StartChar: Scaron
Encoding: 352 352 257
Width: 636
VWidth: 0
Flags: W
HStem: -28 83<284.513 427.585> 246 126<193.109 313.754> 587 69<222.983 318.247> 605 20G<540 551.5> 812 32<453.715 484.349>
VStem: 30 51<-93.3164 -68> 77 101<348 501.671> 503 103<148.729 294.734>
DStem2: 30 -70 81 -68 0.312751 0.949835<-13.9492 104.181> 236 780 190 746 0.822449 -0.568839<-40.7409 80.6989> 495 550 523 512 0.5547 0.83205<0 83.3962>
LayerCount: 2
Back
Fore
SplineSet
303 676 m 1,0,1
 252 700 252 700 190 746 c 0,2,3
 128 792 128 792 127 824 c 0,4,5
 127 842 127 842 146 842 c 0,6,7
 149 842 149 842 198 835 c 1,8,-1
 207 810 l 2,9,10
 208 802 208 802 236 780 c 0,11,12
 264 758 264 758 300 740 c 1,13,14
 312 748 312 748 341 778 c 0,15,16
 405 844 405 844 442 844 c 0,17,18
 501 844 501 844 501 812 c 1,19,20
 457 812 457 812 420 764 c 0,21,22
 405 744 405 744 373 720 c 0,23,24
 341 694 341 694 303 676 c 1,0,1
EndSplineSet
Refer: 53 83 N 1 0 0 1 0 0 3
Validated: 1
EndChar

StartChar: scaron
Encoding: 353 353 258
Width: 364
VWidth: 0
Flags: W
HStem: -12 63<139.309 231.984> 173 85<142.354 228.906> 347 45<137.681 279> 549 32<316.715 347.349>
VStem: 33 97<244 333.815> 247 87<80.9199 182>
DStem2: 98 518 52 484 0.822019 -0.56946<-39.3986 82.0736>
LayerCount: 2
Back
Fore
SplineSet
166 413 m 1,0,1
 114 438 114 438 52 484 c 0,2,3
 -10 530 -10 530 -10 561 c 0,4,5
 -10 579 -10 579 9 579 c 0,6,7
 12 579 12 579 61 572 c 1,8,-1
 70 547 l 2,9,10
 70 540 70 540 98 518 c 0,11,12
 126 496 126 496 163 477 c 1,13,14
 175 485 175 485 204 515 c 0,15,16
 268 581 268 581 305 581 c 0,17,18
 364 581 364 581 364 549 c 1,19,20
 320 549 320 549 283 501 c 0,21,22
 268 481 268 481 236 457 c 0,23,24
 204 431 204 431 166 413 c 1,0,1
EndSplineSet
Refer: 19 115 N 1 0 0 1 0 0 3
Validated: 1
EndChar

StartChar: Tcaron
Encoding: 356 356 259
Width: 680
VWidth: 0
Flags: W
HStem: -13 57<484.059 542.186> 7 37<188.976 281.602> 530 82<108.669 289.736 404.129 501.85> 533 69<404.129 615.734> 542 80<72.822 283.784> 801 32<493.715 524.349>
VStem: 15 52<493.346 540.883> 290 110<56 523.813> 621 59<613.218 664.951>
DStem2: 275 770 229 736 0.822019 -0.56946<-39.3986 82.0736>
LayerCount: 2
Back
Fore
SplineSet
343 665 m 1,0,1
 291 690 291 690 229 736 c 0,2,3
 167 782 167 782 167 813 c 0,4,5
 167 831 167 831 186 831 c 0,6,7
 189 831 189 831 238 824 c 1,8,-1
 247 799 l 2,9,10
 247 792 247 792 275 770 c 0,11,12
 303 748 303 748 340 729 c 1,13,14
 352 737 352 737 381 767 c 0,15,16
 445 833 445 833 482 833 c 0,17,18
 541 833 541 833 541 801 c 1,19,20
 497 801 497 801 460 753 c 0,21,22
 445 733 445 733 413 709 c 0,23,24
 381 683 381 683 343 665 c 1,0,1
EndSplineSet
Refer: 55 84 N 1 0 0 1 0 0 3
Validated: 1
EndChar

StartChar: tcaron
Encoding: 357 357 260
Width: 368
VWidth: 0
Flags: W
HStem: -22 80<178.037 278.25> 304 70<167 319.045>
VStem: 69 98<70.3047 304> 210 111<534.871 703.447>
LayerCount: 2
Back
Fore
SplineSet
263 744 m 0,0,1
 321 744 321 744 321 695 c 0,2,3
 321 645 321 645 307 572 c 0,4,5
 280 430 280 430 210 430 c 1,6,7
 210 744 210 744 263 744 c 0,0,1
EndSplineSet
Refer: 20 116 N 1 0 0 1 0 0 2
Validated: 1
EndChar

StartChar: Zcaron
Encoding: 381 381 263
Width: 640
VWidth: 0
Flags: W
HStem: -14 21G<30 240> 0 114<215 547.219> 553 105<71.8516 347.927> 561 83<81.116 347.927 350.073 458> 569 82<96.8125 455.666> 816 32<450.715 481.349>
VStem: 544 50<-144.155 -8.87036> 544 66<-120.277 -7>
DStem2: 232 784 186 750 0.823412 -0.567443<-39.9294 81.3711>
LayerCount: 2
Back
Fore
SplineSet
300 680 m 1,0,1
 248 704 248 704 186 750 c 0,2,3
 124 796 124 796 124 828 c 0,4,5
 124 846 124 846 143 846 c 0,6,7
 146 846 146 846 195 839 c 1,8,-1
 204 814 l 2,9,10
 204 806 204 806 232 784 c 0,11,12
 260 762 260 762 297 744 c 1,13,14
 309 752 309 752 338 782 c 0,15,16
 402 848 402 848 439 848 c 0,17,18
 498 848 498 848 498 816 c 1,19,20
 454 816 454 816 417 768 c 0,21,22
 402 748 402 748 370 724 c 0,23,24
 338 698 338 698 300 680 c 1,0,1
EndSplineSet
Refer: 60 90 N 1 0 0 1 0 0 3
Validated: 1
EndChar

StartChar: zcaron
Encoding: 382 382 264
Width: 480
VWidth: 0
Flags: W
HStem: 4 77<204 413.122> 318 79<81.6147 227.951> 553 32<386.715 417.349>
VStem: 417 48<-44.8364 -15>
DStem2: 30 -27 204 81 0.667545 0.744569<196.566 409.924 499.294 553.937> 168 522 122 488 0.822019 -0.56946<-39.3986 82.0736>
LayerCount: 2
Back
Fore
SplineSet
236 417 m 1,0,1
 184 442 184 442 122 488 c 0,2,3
 60 534 60 534 60 565 c 0,4,5
 60 583 60 583 79 583 c 0,6,7
 82 583 82 583 131 576 c 1,8,-1
 140 551 l 2,9,10
 140 544 140 544 168 522 c 0,11,12
 196 500 196 500 233 481 c 1,13,14
 245 489 245 489 274 519 c 0,15,16
 338 585 338 585 375 585 c 0,17,18
 434 585 434 585 434 553 c 1,19,20
 390 553 390 553 353 505 c 0,21,22
 338 485 338 485 306 461 c 0,23,24
 274 435 274 435 236 417 c 1,0,1
EndSplineSet
Refer: 31 122 N 1 0 0 1 0 0 3
Validated: 1
EndChar

StartChar: AE
Encoding: 198 198 269
Width: 981
VWidth: -15
Flags: W
HStem: -22 108<592.973 766.963> -7 62<30.5625 71.686 148 231.589> 248 110<208 333.44> 289 105<722.207 826 861 875> 559 72<250 425.5> 570 90<461.188 661.34> 575 62<65.8383 182.337>
VStem: 72 76<59 188.577> 348 116<369 467.166> 354 120<199.045 264> 875 66<166.219 289> 893 37<-79.9231 63.0417>
DStem2: 109 253 181 248 0.216341 0.976318<-178.536 17.3496 123.931 329.257>
LayerCount: 2
Back
Fore
SplineSet
158 -2 m 1,0,-1
 52 -7 l 17,1,2
 30 -7 30 -7 30 24 c 128,-1,3
 30 55 30 55 46 55 c 128,-1,4
 62 55 62 55 72 60 c 1,5,6
 74 105 74 105 109 253 c 0,7,8
 182 566 182 566 184 575 c 1,9,10
 180 576 180 576 128 578.5 c 128,-1,11
 76 581 76 581 65.5 589.5 c 128,-1,12
 55 598 55 598 48.5 616 c 128,-1,13
 42 634 42 634 42 644 c 1,14,15
 104 644 104 644 180 637 c 0,16,17
 255 631 255 631 303 631 c 0,18,19
 370 631 370 631 410 638 c 24,20,21
 536 660 536 660 598 660 c 0,22,23
 663 660 663 660 729.5 632 c 128,-1,24
 796 604 796 604 842 556 c 1,25,26
 847 570 847 570 854.5 602 c 128,-1,27
 862 634 862 634 869.5 646.5 c 128,-1,28
 877 659 877 659 891 659 c 0,29,30
 908 659 908 659 908 633 c 128,-1,31
 908 607 908 607 887.5 520.5 c 128,-1,32
 867 434 867 434 861 394 c 1,33,-1
 941 402 l 1,34,35
 930 271 930 271 930 -65 c 0,36,37
 930 -66 930 -66 923 -72 c 0,38,39
 907 -85 907 -85 893 -87 c 1,40,41
 892 -43 892 -43 886 68 c 1,42,43
 834 34 834 34 807 19 c 0,44,45
 733 -22 733 -22 642 -22 c 0,46,47
 542 -22 542 -22 474 28 c 0,48,49
 369 107 369 107 354 264 c 1,50,51
 268 256 268 256 181 248 c 1,52,53
 150 138 150 138 148 59 c 1,54,-1
 213 56 l 2,55,56
 233 55 233 55 233 28 c 128,-1,57
 233 1 233 1 214 0 c 2,58,-1
 158 -2 l 1,0,-1
487 504 m 0,59,60
 468 451 468 451 464 369 c 1,61,-1
 826 391 l 1,62,63
 777 459 777 459 711 514.5 c 128,-1,64
 645 570 645 570 578 570 c 128,-1,65
 511 570 511 570 487 504 c 0,59,60
721 86 m 0,66,67
 819 86 819 86 876 123 c 1,68,-1
 875 289 l 1,69,70
 492 266 492 266 474 265 c 1,71,72
 481 199 481 199 535 146 c 0,73,74
 595 86 595 86 721 86 c 0,66,67
348 366 m 1,75,76
 354 476 354 476 427 563 c 1,77,-1
 250 559 l 1,78,-1
 208 358 l 1,79,-1
 348 366 l 1,75,76
EndSplineSet
Validated: 1
EndChar

StartChar: Oslash
Encoding: 216 216 270
Width: 747
VWidth: -15
Flags: W
HStem: -17 55<331.114 522.694> 591 57<268.247 446.74>
VStem: 40 124<206.025 454.784> 594 113<152.877 416.65>
DStem2: 128 54 153 -32 0.605014 0.796215<-16.3048 22.3357 131.43 588.293>
LayerCount: 2
Back
Fore
SplineSet
498 534 m 1,0,1
 436 591 436 591 345 591 c 0,2,3
 270 591 270 591 217 520.5 c 128,-1,4
 164 450 164 450 164 341 c 0,5,6
 164 228 164 228 211 156 c 1,7,8
 264 224 264 224 349 337 c 0,9,10
 441 458 441 458 498 534 c 1,0,1
551 605 m 1,11,12
 575 638 575 638 585 652 c 1,13,14
 613 609 613 609 613 578 c 0,15,16
 613 568 613 568 607 560 c 1,17,18
 707 460 707 460 707 322 c 0,19,20
 707 151 707 151 643 67 c 128,-1,21
 579 -17 579 -17 430 -17 c 0,22,23
 293 -17 293 -17 203 28 c 1,24,25
 161 -25 161 -25 153 -32 c 1,26,27
 128 0 128 0 127 34 c 3,28,29
 127 43 127 43 128 54 c 1,30,31
 132 57 132 57 142 69 c 1,32,33
 40 156 40 156 40 318 c 0,34,35
 40 478 40 478 135 563 c 128,-1,36
 230 648 230 648 397 648 c 0,37,38
 482 648 482 648 551 605 c 1,11,12
260 102 m 1,39,40
 337 38 337 38 454 38 c 0,41,42
 494 38 494 38 523 59 c 0,43,44
 594 110 594 110 594 264 c 0,45,46
 594 394 594 394 545 476 c 1,47,48
 490 403 490 403 390 272 c 0,49,50
 312 170 312 170 260 102 c 1,39,40
EndSplineSet
Validated: 1
EndChar

StartChar: ae
Encoding: 230 230 271
Width: 686
VWidth: -3
Flags: W
HStem: -13 64<76.5 221.939> -10 71<426.69 561.648> 255 46<128.002 158.622> 322 69<128.128 261.891> 335 53<412.419 486.237>
VStem: 30 104<54.0059 124.979 279.326 316.219> 275 108<234.083 299.116>
DStem2: 383 220 388 160 0.906106 0.42305<0 141.485 228.547 274.634>
LayerCount: 2
Back
Fore
SplineSet
123 -13 m 0,0,1
 30 -13 30 -13 30 59 c 0,2,3
 30 154 30 154 152 193 c 128,-1,4
 274 232 274 232 275 259 c 0,5,6
 275 322 275 322 195 322 c 0,7,8
 172 322 172 322 152 315 c 0,9,10
 128 307 128 307 128 303 c 0,11,12
 128 302 128 302 136 301 c 0,13,14
 159 298 159 298 159 281 c 0,15,16
 159 255 159 255 97 255 c 0,17,18
 74 255 74 255 52 268 c 128,-1,19
 30 281 30 281 30 306 c 128,-1,20
 30 331 30 331 62 352 c 0,21,22
 122 391 122 391 207 391 c 0,23,24
 256 391 256 391 300 377 c 0,25,26
 334 366 334 366 354 352 c 1,27,28
 400 388 400 388 463 388 c 0,29,30
 517 388 517 388 554 360 c 0,31,32
 558 357 558 357 594 325 c 1,33,34
 615 337 615 337 632 337 c 0,35,36
 656 337 656 337 656 304 c 0,37,38
 656 288 656 288 588 257 c 0,39,40
 422 180 422 180 388 160 c 1,41,42
 397 105 397 105 427 83 c 128,-1,43
 457 61 457 61 512 61 c 0,44,45
 539 61 539 61 556 70 c 128,-1,46
 573 79 573 79 579 89 c 0,47,48
 594 118 594 118 606 118 c 0,49,50
 613 118 613 118 622.5 112.5 c 128,-1,51
 632 107 632 107 636 106 c 1,52,53
 631 88 631 88 603 48 c 0,54,55
 559 -10 559 -10 464 -10 c 3,56,57
 417 -10 417 -10 307 51 c 0,58,59
 285 63 285 63 281 63 c 1,60,61
 255 36 255 36 246 27 c 0,62,63
 204 -13 204 -13 123 -13 c 0,0,1
181 51 m 0,64,65
 246 51 246 51 274 182 c 1,66,67
 228 169 228 169 181 143 c 128,-1,68
 134 117 134 117 134 76 c 0,69,70
 134 51 134 51 181 51 c 0,64,65
434 335 m 0,71,72
 421 335 421 335 403.5 295.5 c 128,-1,73
 386 256 386 256 383 220 c 1,74,75
 433 241 433 241 447 247 c 0,76,77
 500 267 500 267 513 276 c 1,78,79
 483 335 483 335 434 335 c 0,71,72
EndSplineSet
Validated: 1
EndChar

StartChar: oslash
Encoding: 248 248 272
Width: 450
VWidth: -3
Flags: W
HStem: -20 21G<83 95.5> -11 69<222.335 319.092> 324 69<133.948 244.449>
VStem: 30 93<172.552 301.937> 326 94<94.0215 245.5>
DStem2: 53 39 87 -20 0.640184 0.768221<-12.6292 41.2014 154.412 299.99 419.651 487.774>
LayerCount: 2
Back
Fore
SplineSet
378 55 m 128,-1,1
 336 -11 336 -11 250 -11 c 0,2,3
 186 -11 186 -11 132 24 c 1,4,5
 104 -5 104 -5 87 -20 c 1,6,7
 79 -13 79 -13 66 8 c 0,8,9
 54 29 54 29 53 39 c 1,10,11
 58 45 58 45 79 69 c 1,12,13
 30 124 30 124 30 188 c 0,14,15
 30 295 30 295 83 344 c 128,-1,16
 136 393 136 393 232 393 c 0,17,18
 282 393 282 393 327 362 c 1,19,20
 337 375 337 375 344 385 c 0,21,22
 367 416 367 416 368 417 c 0,23,24
 406 387 406 387 406 380 c 128,-1,25
 406 373 406 373 391 343 c 0,26,27
 386 333 386 333 376 318 c 1,28,29
 420 267 420 267 420 224 c 0,30,0
 420 121 420 121 378 55 c 128,-1,1
200 100 m 1,31,32
 241 58 241 58 271 58 c 0,33,34
 309 58 309 58 317.5 69 c 128,-1,35
 326 80 326 80 326 122 c 0,36,37
 326 173 326 173 302 222 c 1,38,39
 280 195 280 195 253 162 c 0,40,41
 224 128 224 128 200 100 c 1,31,32
263 283 m 1,42,43
 228 324 228 324 194 324 c 0,44,45
 150 324 150 324 136.5 312 c 128,-1,46
 123 300 123 300 123 262 c 0,47,48
 123 207 123 207 155 155 c 1,49,50
 187 193 187 193 226 238 c 0,51,52
 246 262 246 262 263 283 c 1,42,43
EndSplineSet
Validated: 1
EndChar

StartChar: OE
Encoding: 338 338 273
Width: 1016
VWidth: -15
Flags: W
HStem: -29 108<666.151 820.314> -17 55<330.115 519.921> 258 104<561 656.913> 282 105<781.676 874 905 918> 563 90<597.746 728.664> 591 57<268.247 446.582>
VStem: 40 124<208.071 455.158> 435 117<362 456.736> 918 58<173.978 282> 934 33<-86.6377 56.2383>
LayerCount: 2
Back
Fore
SplineSet
927 61 m 1,0,1
 881 27 881 27 857 12 c 0,2,3
 791 -29 791 -29 710 -29 c 0,4,5
 630 -29 630 -29 572 12 c 1,6,7
 521 -17 521 -17 430 -17 c 0,8,9
 240 -17 240 -17 140 70.5 c 128,-1,10
 40 158 40 158 40 318.5 c 128,-1,11
 40 479 40 479 135 563.5 c 128,-1,12
 230 648 230 648 397 648 c 0,13,14
 493 648 493 648 557 600 c 1,15,16
 611 653 611 653 671 653 c 0,17,18
 729 653 729 653 788 625 c 128,-1,19
 847 597 847 597 888 549 c 1,20,21
 893 563 893 563 899 595 c 0,22,23
 906 628 906 628 913 640 c 0,24,25
 919 652 919 652 932 652 c 0,26,27
 947 652 947 652 947 626 c 128,-1,28
 947 600 947 600 929 514 c 0,29,30
 910 428 910 428 905 387 c 1,31,-1
 976 395 l 1,32,33
 969 295 969 295 967 -72 c 0,34,35
 967 -73 967 -73 960 -79 c 0,36,37
 946 -92 946 -92 934 -94 c 1,38,39
 933 -50 933 -50 927 61 c 1,0,1
572 497 m 0,40,41
 555 444 555 444 552 362 c 1,42,-1
 874 384 l 1,43,44
 830 452 830 452 772 508 c 0,45,46
 714 563 714 563 653 563 c 3,47,48
 594 563 594 563 572 497 c 0,40,41
781 79 m 0,49,50
 868 79 868 79 918 116 c 1,51,-1
 918 282 l 1,52,53
 577 259 577 259 561 258 c 1,54,55
 567 192 567 192 615 139 c 0,56,57
 668 79 668 79 781 79 c 0,49,50
498 534 m 1,58,59
 436 591 436 591 345 591 c 0,60,61
 270 591 270 591 217 520.5 c 128,-1,62
 164 450 164 450 164 341 c 0,63,64
 164 194 164 194 244 116 c 128,-1,65
 324 38 324 38 454 38 c 0,66,67
 493 38 493 38 521 58 c 1,68,69
 435 152 435 152 435 326 c 0,70,71
 435 445 435 445 498 534 c 1,58,59
EndSplineSet
Validated: 1
EndChar
